<svg width="48" height="48" viewBox="0 0 48 48" fill="none" xmlns="http://www.w3.org/2000/svg">
<g clip-path="url(#clip0_330_3605)">
<path d="M0 8C0 3.58172 3.58172 0 8 0H40C44.4183 0 48 3.58172 48 8V40C48 44.4183 44.4183 48 40 48H8C3.58172 48 0 44.4183 0 40V8Z" fill="black"/>
<path d="M33.2891 9H38.1959L27.4238 21.3074L40 38H30.132L22.3998 27.8504L13.5466 38H8.63965L20.0515 24.8378L8 9H18.1217L25.108 18.2664L33.2891 9ZM31.5717 35.1026H34.293L16.6928 11.7821H13.7699L31.5717 35.1026Z" fill="white"/>
</g>
<defs>
<clipPath id="clip0_330_3605">
<rect width="48" height="48" fill="white"/>
</clipPath>
</defs>
</svg>
