<svg width="48" height="48" viewBox="0 0 48 48" fill="none" xmlns="http://www.w3.org/2000/svg">
<path d="M47.871 36.0654C47.6799 36.4287 47.3071 36.6523 46.9004 36.6523H40.103C39.7703 36.6492 39.4529 36.5156 39.2187 36.2766L36.6181 32.9916C35.5889 31.7621 34.2455 32.144 34.2455 33.712V35.9102C34.2455 36.3169 33.9189 36.646 33.5183 36.646H27.3157C26.912 36.646 26.5854 36.3169 26.5854 35.9102V31.3461C26.5854 31.1505 26.7333 30.9921 26.9274 30.9797C30.5079 30.7841 33.4382 27.7134 33.4382 24.0994C33.4382 20.5195 30.5387 17.3805 26.9274 17.1849C26.7333 17.1724 26.5854 17.011 26.5854 16.8185V12.1115C26.5854 11.9159 26.6624 11.7296 26.798 11.5899C26.9367 11.4533 27.1215 11.3757 27.3157 11.3757H37.9893C42.9532 11.3757 46.9836 15.2164 46.9836 20.0693C46.9836 22.904 45.7079 25.363 43.6712 26.7354C43.4278 26.8999 43.2583 27.1545 43.1997 27.4464C43.1412 27.7382 43.2028 28.0394 43.3661 28.2847L47.8093 34.926C48.0404 35.2644 48.062 35.7022 47.871 36.0654ZM13.6717 11C17.5726 11 21.0637 12.6797 23.5596 15.3561C23.6951 15.502 23.7629 15.7007 23.7506 15.9026C23.7383 16.1044 23.6428 16.2907 23.4918 16.418L19.9483 19.411C19.6617 19.6501 19.2396 19.6315 18.9715 19.3676C17.5572 17.9673 15.6561 17.1786 13.6748 17.1662C9.89711 17.1662 6.83739 20.0662 6.83739 24.0186C6.83739 27.968 9.89711 30.8369 13.6748 30.8369C15.6561 30.8214 17.5572 30.0327 18.9715 28.6324C19.2396 28.3685 19.6587 28.3499 19.9483 28.589L23.4918 31.5789C23.6458 31.7093 23.7414 31.8956 23.7537 32.0974C23.766 32.2993 23.6982 32.4949 23.5627 32.6439C21.0668 35.3203 17.5757 37 13.6748 37C6.11637 37 0 31.523 0 24.0186C0 16.5111 6.11637 11 13.6717 11Z" fill="#FE5000"/>
</svg>
