<svg width="40" height="40" viewBox="0 0 40 40" fill="none" xmlns="http://www.w3.org/2000/svg">
<mask id="mask0_9069_55609" style="mask-type:alpha" maskUnits="userSpaceOnUse" x="0" y="0" width="40" height="40">
<rect width="40" height="40" fill="#D9D9D9"/>
</mask>
<g mask="url(#mask0_9069_55609)">
<path d="M20.1279 28.6304C20.4465 28.6304 20.7178 28.5142 20.9417 28.2817C21.1658 28.0494 21.2779 27.774 21.2779 27.4554C21.2779 27.151 21.1653 26.8832 20.94 26.6521C20.7147 26.421 20.4428 26.3054 20.1242 26.3054C19.8056 26.3054 19.5307 26.4217 19.2996 26.6542C19.0685 26.8864 18.9529 27.1547 18.9529 27.4592C18.9529 27.7778 19.0692 28.0526 19.3017 28.2838C19.5339 28.5149 19.8093 28.6304 20.1279 28.6304ZM19.2733 23.205H20.7008C20.7294 22.5392 20.8564 21.9672 21.0817 21.4892C21.3072 21.0114 21.7757 20.446 22.4871 19.7929C23.2663 19.0493 23.8297 18.3764 24.1775 17.7742C24.525 17.1719 24.6988 16.4974 24.6988 15.7504C24.6988 14.4638 24.2654 13.4226 23.3988 12.6271C22.5318 11.8315 21.4658 11.4337 20.2008 11.4337C19.0647 11.4337 18.0706 11.7372 17.2183 12.3442C16.3661 12.9508 15.7321 13.6794 15.3162 14.53L16.6796 15.0833C16.9865 14.4053 17.4087 13.8558 17.9462 13.435C18.4835 13.0139 19.2001 12.8033 20.0963 12.8033C21.186 12.8033 22.0011 13.1019 22.5417 13.6992C23.0822 14.2964 23.3525 14.9893 23.3525 15.7779C23.3525 16.3632 23.1944 16.8943 22.8783 17.3712C22.5619 17.8482 22.1246 18.3363 21.5663 18.8354C20.7174 19.614 20.1229 20.3392 19.7829 21.0108C19.4432 21.6825 19.2733 22.4139 19.2733 23.205ZM20.0054 35C17.9357 35 15.9913 34.6064 14.1721 33.8192C12.3532 33.0319 10.7638 31.959 9.40375 30.6004C8.04375 29.2415 6.96986 27.6535 6.18208 25.8363C5.39403 24.019 5 22.0754 5 20.0054C5 17.9312 5.39361 15.9811 6.18083 14.155C6.96806 12.3292 8.04097 10.7408 9.39958 9.39C10.7585 8.03917 12.3465 6.96986 14.1637 6.18208C15.981 5.39403 17.9246 5 19.9946 5C22.0688 5 24.0189 5.39361 25.845 6.18083C27.6708 6.96806 29.2592 8.03639 30.61 9.38583C31.9608 10.7353 33.0301 12.3222 33.8179 14.1467C34.606 15.9708 35 17.9201 35 19.9946C35 22.0643 34.6064 24.0088 33.8192 25.8279C33.0319 27.6468 31.9636 29.2362 30.6142 30.5963C29.2647 31.9563 27.6778 33.0301 25.8533 33.8179C24.0292 34.606 22.0799 35 20.0054 35ZM20 33.5896C23.785 33.5896 26.9963 32.2699 29.6338 29.6304C32.271 26.9907 33.5896 23.7806 33.5896 20C33.5896 16.215 32.271 13.0037 29.6338 10.3662C26.9963 7.72903 23.785 6.41042 20 6.41042C16.2194 6.41042 13.0093 7.72903 10.3696 10.3662C7.73014 13.0037 6.41042 16.215 6.41042 20C6.41042 23.7806 7.73014 26.9907 10.3696 29.6304C13.0093 32.2699 16.2194 33.5896 20 33.5896Z" fill="#9CB0C3"/>
</g>
</svg>
