<?xml version="1.0" encoding="UTF-8"?>
<svg xmlns="http://www.w3.org/2000/svg" xmlns:xlink="http://www.w3.org/1999/xlink" width="31px" height="32px" viewBox="0 0 31 31" version="1.1">
<g id="surface1">
<path style="fill:none;stroke-width:2;stroke-linecap:butt;stroke-linejoin:miter;stroke:rgb(49.411765%,56.862748%,43.529412%);stroke-opacity:1;stroke-miterlimit:4;" d="M 76.378402 0.524194 L 76.378402 76.975806 " transform="matrix(0.0996785,0,0,0.096875,0,0)"/>
<path style="fill:none;stroke-width:2;stroke-linecap:butt;stroke-linejoin:miter;stroke:rgb(7.450981%,45.882353%,92.156863%);stroke-opacity:1;stroke-miterlimit:4;" d="M 76.378402 76.975806 L 0 76.975806 " transform="matrix(0.0996785,0,0,0.096875,0,0)"/>
<path style="fill:none;stroke-width:2;stroke-linecap:butt;stroke-linejoin:miter;stroke:rgb(95.294118%,50.196081%,11.372549%);stroke-opacity:1;stroke-miterlimit:4;" d="M 235.09186 1.08871 C 234.974294 1.129032 234.895917 1.169355 234.81754 1.209677 C 234.699975 1.290323 234.621598 1.370968 234.621598 1.491935 L 234.621598 77.016129 " transform="matrix(0.0996785,0,0,0.096875,0,0)"/>
<path style="fill:none;stroke-width:2;stroke-linecap:butt;stroke-linejoin:miter;stroke:rgb(49.411765%,70.588237%,14.901961%);stroke-opacity:1;stroke-miterlimit:4;" d="M 234.621598 77.016129 C 234.621598 77.016129 234.582409 77.016129 234.582409 77.016129 " transform="matrix(0.0996785,0,0,0.096875,0,0)"/>
<path style="fill:none;stroke-width:2;stroke-linecap:butt;stroke-linejoin:miter;stroke:rgb(56.862748%,62.7451%,50.196081%);stroke-opacity:1;stroke-miterlimit:4;" d="M 76.417591 77.016129 C 76.417591 77.016129 76.378402 76.975806 76.378402 76.975806 " transform="matrix(0.0996785,0,0,0.096875,0,0)"/>
<path style="fill:none;stroke-width:2;stroke-linecap:butt;stroke-linejoin:miter;stroke:rgb(45.882353%,47.058824%,24.313726%);stroke-opacity:1;stroke-miterlimit:4;" d="M 310.529738 76.774194 L 234.621598 77.016129 " transform="matrix(0.0996785,0,0,0.096875,0,0)"/>
<path style="fill:none;stroke-width:2;stroke-linecap:butt;stroke-linejoin:miter;stroke:rgb(7.450981%,51.764709%,58.431375%);stroke-opacity:1;stroke-miterlimit:4;" d="M 76.417591 182.701613 L 0 182.66129 " transform="matrix(0.0996785,0,0,0.096875,0,0)"/>
<path style="fill:none;stroke-width:2;stroke-linecap:butt;stroke-linejoin:miter;stroke:rgb(0%,59.607846%,22.745098%);stroke-opacity:1;stroke-miterlimit:4;" d="M 76.456779 259.112903 L 76.417591 220.846774 " transform="matrix(0.0996785,0,0,0.096875,0,0)"/>
<path style=" stroke:none;fill-rule:nonzero;fill:rgb(0%,40.000001%,85.490197%);fill-opacity:1;" d="M 7.613281 0.0507812 L 7.613281 7.457031 L 0 7.457031 L 0 2.011719 C 0.0546875 1.628906 0.171875 1.304688 0.351562 1.042969 C 0.792969 0.394531 1.429688 0.0703125 2.269531 0.0664062 C 4.039062 0.0546875 5.820312 0.0507812 7.613281 0.0507812 Z M 7.613281 0.0507812 "/>
<path style=" stroke:none;fill-rule:nonzero;fill:rgb(98.431373%,73.725492%,1.568628%);fill-opacity:1;" d="M 7.613281 0.0507812 L 23.304688 0.0507812 C 23.335938 0.0507812 23.367188 0.0625 23.394531 0.078125 L 23.433594 0.105469 C 23.421875 0.109375 23.414062 0.113281 23.40625 0.117188 C 23.394531 0.125 23.386719 0.132812 23.386719 0.144531 L 23.386719 7.460938 C 23.386719 7.460938 23.382812 7.460938 23.382812 7.460938 L 7.617188 7.460938 C 7.617188 7.460938 7.613281 7.457031 7.613281 7.457031 Z M 7.613281 0.0507812 "/>
<path style=" stroke:none;fill-rule:nonzero;fill:rgb(91.764706%,26.274511%,20.784314%);fill-opacity:1;" d="M 23.433594 0.105469 L 30.953125 7.4375 L 23.386719 7.460938 L 23.386719 0.144531 C 23.386719 0.132812 23.394531 0.125 23.40625 0.117188 C 23.414062 0.113281 23.421875 0.109375 23.433594 0.105469 Z M 23.433594 0.105469 "/>
<path style=" stroke:none;fill-rule:nonzero;fill:rgb(14.901961%,51.764709%,98.823529%);fill-opacity:1;" d="M 0 7.457031 L 7.613281 7.457031 C 7.613281 7.457031 7.617188 7.460938 7.617188 7.460938 L 7.617188 17.699219 L 0 17.695312 Z M 0 7.457031 "/>
<path style=" stroke:none;fill-rule:nonzero;fill:rgb(0%,67.450982%,27.843139%);fill-opacity:1;" d="M 30.953125 7.4375 L 31 7.46875 L 31 23.152344 C 30.824219 24.09375 30.324219 24.699219 29.5 24.972656 C 29.207031 25.070312 28.773438 25.117188 28.199219 25.117188 C 24.484375 25.113281 20.734375 25.105469 16.945312 25.101562 C 16.394531 25.101562 15.835938 25.105469 15.269531 25.113281 C 15.238281 25.113281 15.210938 25.125 15.191406 25.144531 C 13.335938 26.9375 11.476562 28.75 9.609375 30.574219 C 9.320312 30.851562 8.996094 31.007812 8.585938 30.949219 C 8.203125 30.894531 7.921875 30.703125 7.742188 30.375 C 7.664062 30.234375 7.625 29.980469 7.625 29.609375 C 7.621094 28.113281 7.617188 26.609375 7.621094 25.101562 L 7.617188 21.394531 L 11.382812 17.734375 C 11.417969 17.703125 11.460938 17.683594 11.511719 17.683594 L 23.300781 17.6875 C 23.347656 17.6875 23.382812 17.652344 23.382812 17.609375 L 23.382812 7.460938 C 23.382812 7.460938 23.386719 7.460938 23.386719 7.460938 Z M 30.953125 7.4375 "/>
<path style=" stroke:none;fill-rule:nonzero;fill:rgb(0%,51.372552%,17.647059%);fill-opacity:1;" d="M 7.617188 17.699219 L 7.617188 21.394531 L 7.621094 25.101562 C 6.027344 25.113281 4.449219 25.113281 2.882812 25.113281 C 2.230469 25.109375 1.757812 25.0625 1.472656 24.960938 C 0.664062 24.6875 0.175781 24.082031 0 23.140625 L 0 17.695312 Z M 7.617188 17.699219 "/>
</g>
</svg>
