<svg width="40" height="40" viewBox="0 0 40 40" fill="none" xmlns="http://www.w3.org/2000/svg">
<mask id="mask0_9069_55621" style="mask-type:alpha" maskUnits="userSpaceOnUse" x="0" y="0" width="40" height="40">
<rect width="40" height="40" fill="#D9D9D9"/>
</mask>
<g mask="url(#mask0_9069_55621)">
<path d="M7.43583 31.6666C6.75306 31.6666 6.17639 31.4313 5.70583 30.9608C5.23528 30.4902 5 29.9135 5 29.2308V10.7691C5 10.0863 5.23528 9.50964 5.70583 9.03909C6.17639 8.56853 6.75306 8.33325 7.43583 8.33325H32.5642C33.2469 8.33325 33.8236 8.56853 34.2942 9.03909C34.7647 9.50964 35 10.0863 35 10.7691V29.2308C35 29.9135 34.7647 30.4902 34.2942 30.9608C33.8236 31.4313 33.2469 31.6666 32.5642 31.6666H7.43583ZM20 19.9016L6.41042 10.8866V29.2308C6.41042 29.5299 6.50653 29.7756 6.69875 29.9678C6.89097 30.1601 7.13667 30.2562 7.43583 30.2562H32.5642C32.8633 30.2562 33.109 30.1601 33.3013 29.9678C33.4935 29.7756 33.5896 29.5299 33.5896 29.2308V10.8866L20 19.9016ZM20 18.2991L33.03 9.74367H6.99792L20 18.2991ZM6.41042 10.8866V9.74367V29.2308C6.41042 29.5299 6.50653 29.7756 6.69875 29.9678C6.89097 30.1601 7.13667 30.2562 7.43583 30.2562H6.41042V10.8866Z" fill="#9CB0C3"/>
</g>
</svg>
