<svg width="40" height="40" viewBox="0 0 40 40" fill="none" xmlns="http://www.w3.org/2000/svg">
<mask id="mask0_9069_55627" style="mask-type:alpha" maskUnits="userSpaceOnUse" x="0" y="0" width="40" height="40">
<rect width="40" height="40" fill="#D9D9D9"/>
</mask>
<g mask="url(#mask0_9069_55627)">
<path d="M32.0035 19.0151C31.7613 15.8406 30.5278 13.141 28.3031 10.9163C26.0787 8.69159 23.3863 7.46521 20.226 7.23715V5.82715C22.0043 5.92104 23.6725 6.32645 25.2306 7.0434C26.7887 7.76034 28.1566 8.71118 29.3343 9.8959C30.5121 11.0806 31.4593 12.452 32.176 14.0101C32.893 15.5681 33.3056 17.2365 33.4139 19.0151H32.0035ZM25.2152 19.0151C24.973 17.7331 24.4014 16.6338 23.5006 15.7172C22.5995 14.8005 21.508 14.2388 20.226 14.0322V12.6217C21.8991 12.8284 23.3234 13.5238 24.4989 14.708C25.6745 15.8921 26.3834 17.3278 26.6256 19.0151H25.2152ZM31.5102 33.3334C28.7816 33.3334 25.9485 32.6231 23.011 31.2026C20.0738 29.782 17.3203 27.7869 14.7506 25.2171C12.202 22.6472 10.2174 19.8988 8.79685 16.9722C7.37629 14.0455 6.66602 11.2178 6.66602 8.48923C6.66602 7.97784 6.83657 7.54618 7.17768 7.19423C7.51879 6.84257 7.94504 6.66673 8.45643 6.66673H12.2818C12.753 6.66673 13.1517 6.81048 13.4781 7.09798C13.8042 7.3852 14.0314 7.76354 14.1598 8.23298L15.0123 12.0222C15.0764 12.4719 15.0571 12.8719 14.9543 13.2222C14.8518 13.5727 14.6731 13.8612 14.4181 14.0876L10.7268 17.5322C11.4649 18.8319 12.2546 20.0326 13.096 21.1342C13.9377 22.2356 14.8317 23.2672 15.7781 24.2288C16.8003 25.2694 17.8982 26.2235 19.0718 27.0913C20.2457 27.9594 21.5285 28.7744 22.9202 29.5363L26.5123 25.8613C26.7878 25.5599 27.0896 25.3602 27.4177 25.2621C27.7457 25.1644 28.1099 25.1433 28.5102 25.1988L31.7664 25.9038C32.2378 26.0008 32.6167 26.2295 32.9031 26.5901C33.1895 26.9503 33.3327 27.3634 33.3327 27.8292V31.543C33.3327 32.0544 33.1569 32.4806 32.8052 32.8217C32.4532 33.1628 32.0216 33.3334 31.5102 33.3334ZM10.0389 16.2521L13.4406 13.1005C13.5331 13.0149 13.5955 12.8974 13.6277 12.748C13.6596 12.5983 13.6614 12.4594 13.6331 12.3313L12.8114 8.58965C12.7828 8.41882 12.7116 8.29062 12.5977 8.20507C12.4838 8.11979 12.3413 8.07715 12.1702 8.07715H8.5281C8.40004 8.07715 8.29324 8.11979 8.20768 8.20507C8.12213 8.29062 8.07935 8.39757 8.07935 8.5259C8.08435 9.66895 8.25824 10.8883 8.60102 12.1838C8.94352 13.4794 9.42282 14.8355 10.0389 16.2521ZM24.2781 30.1967C25.4128 30.7773 26.6513 31.209 27.9935 31.4917C29.3357 31.7742 30.4957 31.923 31.4735 31.938C31.6019 31.938 31.7088 31.8953 31.7943 31.8101C31.8796 31.7245 31.9223 31.6176 31.9223 31.4892V27.8934C31.9223 27.7223 31.8796 27.5798 31.7943 27.4659C31.7088 27.352 31.5806 27.2808 31.4098 27.2521L28.2043 26.5867C28.0763 26.5581 27.9642 26.5599 27.8681 26.5921C27.7717 26.6241 27.6702 26.6863 27.5635 26.7788L24.2781 30.1967Z" fill="#9CB0C3"/>
</g>
</svg>
