<svg width="48" height="48" viewBox="0 0 48 48" fill="none" xmlns="http://www.w3.org/2000/svg">
<path d="M14 8L22.5 7H31.5L40.5 10.5L43 20.5L39.5 31.5L34 44.5L31 47H16.5L10.5 42.5L6 36.5L4.5 32L6 22.5L9.5 11L14 8Z" fill="white"/>
<path d="M24 1C11.2925 1 1 11.5598 1 24.5839C1 35.0062 7.5895 43.8443 16.7262 46.9592C17.8762 47.1813 18.2979 46.4523 18.2979 45.8253C18.2979 45.2652 18.2788 43.7813 18.2692 41.8161C11.8713 43.2389 10.522 38.6518 10.522 38.6518C9.4755 35.9298 7.96325 35.2027 7.96325 35.2027C5.87983 33.7405 8.12425 33.77 8.12425 33.77C10.4338 33.9351 11.6471 36.1991 11.6471 36.1991C13.6979 39.8055 17.031 38.7638 18.3458 38.1605C18.5528 36.6354 19.1451 35.5958 19.8025 35.0061C14.6946 34.4165 9.326 32.3883 9.326 23.3517C9.326 20.7771 10.2172 18.6742 11.6931 17.0233C11.4343 16.4279 10.6581 14.0302 11.8943 10.7815C11.8943 10.7815 13.8206 10.1486 18.2193 13.1988C20.0593 12.6741 22.0143 12.4147 23.9693 12.4028C25.9243 12.4147 27.8793 12.6741 29.7193 13.1988C34.0893 10.1486 36.0156 10.7815 36.0156 10.7815C37.2518 14.0302 36.4756 16.4279 36.2456 17.0233C37.7118 18.6742 38.6031 20.7771 38.6031 23.3517C38.6031 32.4119 33.2268 34.4067 28.1093 34.9865C28.9143 35.694 29.6618 37.1405 29.6618 39.3495C29.6618 42.5059 29.6331 45.0411 29.6331 45.8076C29.6331 46.4267 30.0356 47.1637 31.2143 46.9278C40.4162 43.8344 47 34.9904 47 24.5839C47 11.5598 36.7017 1 24 1Z" fill="black"/>
</svg>
