<svg width="40" height="40" viewBox="0 0 40 40" fill="none" xmlns="http://www.w3.org/2000/svg">
<mask id="mask0_9069_55615" style="mask-type:alpha" maskUnits="userSpaceOnUse" x="0" y="0" width="40" height="40">
<rect width="40" height="40" fill="#D9D9D9"/>
</mask>
<g mask="url(#mask0_9069_55615)">
<path d="M14.4871 21.8592H25.5129V21.6238C25.5129 20.7663 24.9993 20.0636 23.9721 19.5158C22.9451 18.9683 21.6211 18.6946 20 18.6946C18.3789 18.6946 17.0549 18.9683 16.0279 19.5158C15.0007 20.0636 14.4871 20.7663 14.4871 21.6238V21.8592ZM20 15.6646C20.6714 15.6646 21.2424 15.4293 21.7129 14.9588C22.1835 14.4882 22.4188 13.9172 22.4188 13.2458C22.4188 12.5744 22.1835 12.0035 21.7129 11.5329C21.2424 11.0624 20.6714 10.8271 20 10.8271C19.3286 10.8271 18.7576 11.0624 18.2871 11.5329C17.8165 12.0035 17.5813 12.5744 17.5813 13.2458C17.5813 13.9172 17.8165 14.4882 18.2871 14.9588C18.7576 15.4293 19.3286 15.6646 20 15.6646ZM5 33.4617V7.43583C5 6.75306 5.23528 6.17639 5.70583 5.70583C6.17639 5.23528 6.75306 5 7.43583 5H32.5642C33.2469 5 33.8236 5.23528 34.2942 5.70583C34.7647 6.17639 35 6.75306 35 7.43583V25.8975C35 26.5803 34.7647 27.1569 34.2942 27.6275C33.8236 28.0981 33.2469 28.3333 32.5642 28.3333H10.1283L5 33.4617ZM9.51083 26.9229H32.5642C32.8206 26.9229 33.0556 26.8161 33.2692 26.6025C33.4828 26.3889 33.5896 26.1539 33.5896 25.8975V7.43583C33.5896 7.17945 33.4828 6.94444 33.2692 6.73083C33.0556 6.51722 32.8206 6.41042 32.5642 6.41042H7.43583C7.17944 6.41042 6.94444 6.51722 6.73083 6.73083C6.51722 6.94444 6.41042 7.17945 6.41042 7.43583V30.1017L9.51083 26.9229Z" fill="#9CB0C3"/>
</g>
</svg>
