<svg version="1.1" viewBox="0.0 0.0 800.0 600.0" fill="none" stroke="none" stroke-linecap="square" stroke-miterlimit="10" xmlns:xlink="http://www.w3.org/1999/xlink" xmlns="http://www.w3.org/2000/svg"><clipPath id="p.0"><path d="m0 0l800.0 0l0 600.0l-800.0 0l0 -600.0z" clip-rule="nonzero"/></clipPath><g clip-path="url(#p.0)"><path fill="#000000" fill-opacity="0.0" d="m0 0l800.0 0l0 600.0l-800.0 0z" fill-rule="evenodd"/><path fill="#1e88e5" d="m208.21577 170.72925l170.17323 0l0 215.21259l-170.17323 0z" fill-rule="evenodd"/><path fill="#ffffff" d="m258.12305 283.13553l2.546875 0q0.625 0 1.1875 -0.15625q0.5625 -0.15625 1.015625 -0.453125q0.40625 -0.25 0.734375 -0.609375q0.328125 -0.375 0.578125 -0.8125q0.25 -0.484375 0.390625 -1.0625q0.15625 -0.59375 0.15625 -1.25l0 -0.78125q0 -0.6875 -0.15625 -1.28125q-0.15625 -0.609375 -0.4375 -1.109375q-0.234375 -0.40625 -0.5625 -0.75q-0.3125 -0.359375 -0.734375 -0.59375q-0.46875 -0.296875 -1.046875 -0.453125q-0.5625 -0.15625 -1.21875 -0.15625l-2.453125 0l0 9.46875zm1.84375 -7.984375l0.609375 0q0.328125 0 0.609375 0.078125q0.296875 0.0625 0.53125 0.203125q0.296875 0.1875 0.53125 0.46875q0.234375 0.28125 0.375 0.640625q0.109375 0.3125 0.171875 0.6875q0.0625 0.359375 0.0625 0.765625l0 0.796875q0 0.4375 -0.0625 0.8125q-0.0625 0.375 -0.171875 0.6875q-0.140625 0.34375 -0.34375 0.609375q-0.203125 0.265625 -0.453125 0.4375q-0.234375 0.15625 -0.53125 0.25q-0.28125 0.078125 -0.625 0.078125l-0.703125 0l0 -6.515625zm10.654449 7.984375l1.84375 0l0 -0.109375q-0.140625 -0.265625 -0.21875 -0.640625q-0.0625 -0.375 -0.0625 -0.9375l0 -3.015625q0 -0.609375 -0.234375 -1.078125q-0.21875 -0.46875 -0.625 -0.765625q-0.40625 -0.3125 -0.953125 -0.46875q-0.546875 -0.15625 -1.1875 -0.15625q-0.71875 0 -1.265625 0.1875q-0.546875 0.171875 -0.921875 0.46875q-0.390625 0.3125 -0.59375 0.71875q-0.1875 0.40625 -0.1875 0.84375l1.8125 0q0 -0.1875 0.046875 -0.34375q0.0625 -0.15625 0.171875 -0.265625q0.140625 -0.125 0.34375 -0.1875q0.203125 -0.0625 0.5 -0.0625q0.3125 0 0.5625 0.078125q0.25 0.078125 0.40625 0.234375q0.15625 0.140625 0.234375 0.34375q0.078125 0.1875 0.078125 0.4375l0 0.421875l-1.015625 0q-0.765625 0 -1.375 0.140625q-0.609375 0.140625 -1.015625 0.40625q-0.453125 0.28125 -0.6875 0.734375q-0.21875 0.453125 -0.21875 1.046875q0 0.453125 0.171875 0.84375q0.1875 0.390625 0.515625 0.65625q0.328125 0.28125 0.78125 0.4375q0.453125 0.15625 0.984375 0.15625q0.34375 0 0.625 -0.0625q0.28125 -0.0625 0.53125 -0.171875q0.234375 -0.09375 0.421875 -0.234375q0.203125 -0.15625 0.34375 -0.3125q0.03125 0.1875 0.078125 0.359375q0.046875 0.171875 0.109375 0.296875zm-1.71875 -1.265625q-0.25 0 -0.453125 -0.0625q-0.1875 -0.0625 -0.3125 -0.171875q-0.140625 -0.109375 -0.203125 -0.265625q-0.0625 -0.15625 -0.0625 -0.34375q0 -0.25 0.078125 -0.453125q0.09375 -0.203125 0.28125 -0.359375q0.203125 -0.140625 0.5 -0.21875q0.296875 -0.078125 0.71875 -0.078125l0.921875 0l0 1.203125q-0.078125 0.140625 -0.21875 0.28125q-0.125 0.125 -0.328125 0.234375q-0.1875 0.09375 -0.421875 0.171875q-0.234375 0.0625 -0.5 0.0625zm8.638794 -7.5l-1.8125 0l0 1.71875l-1.609375 0l0 1.34375l1.609375 0l0 3.203125q0 0.6875 0.1875 1.1875q0.1875 0.5 0.515625 0.8125q0.34375 0.328125 0.8125 0.484375q0.46875 0.15625 1.046875 0.15625q0.296875 0 0.609375 -0.03125q0.3125 -0.03125 0.59375 -0.078125q0.28125 -0.0625 0.53125 -0.140625q0.265625 -0.078125 0.453125 -0.1875l-0.171875 -1.25q-0.125 0.03125 -0.296875 0.078125q-0.171875 0.03125 -0.375 0.046875q-0.203125 0.03125 -0.421875 0.0625q-0.21875 0.015625 -0.421875 0.015625q-0.28125 0 -0.515625 -0.0625q-0.234375 -0.078125 -0.390625 -0.234375q-0.171875 -0.140625 -0.265625 -0.390625q-0.078125 -0.265625 -0.078125 -0.65625l0 -3.015625l2.625 0l0 -1.34375l-2.625 0l0 -1.71875zm9.076324 8.765625l1.84375 0l0 -0.109375q-0.140625 -0.265625 -0.21875 -0.640625q-0.0625 -0.375 -0.0625 -0.9375l0 -3.015625q0 -0.609375 -0.234375 -1.078125q-0.21875 -0.46875 -0.625 -0.765625q-0.40625 -0.3125 -0.953125 -0.46875q-0.546875 -0.15625 -1.1875 -0.15625q-0.71875 0 -1.265625 0.1875q-0.546875 0.171875 -0.921875 0.46875q-0.390625 0.3125 -0.59375 0.71875q-0.1875 0.40625 -0.1875 0.84375l1.8125 0q0 -0.1875 0.046875 -0.34375q0.0625 -0.15625 0.171875 -0.265625q0.140625 -0.125 0.34375 -0.1875q0.203125 -0.0625 0.5 -0.0625q0.3125 0 0.5625 0.078125q0.25 0.078125 0.40625 0.234375q0.15625 0.140625 0.234375 0.34375q0.078125 0.1875 0.078125 0.4375l0 0.421875l-1.015625 0q-0.765625 0 -1.375 0.140625q-0.609375 0.140625 -1.015625 0.40625q-0.453125 0.28125 -0.6875 0.734375q-0.21875 0.453125 -0.21875 1.046875q0 0.453125 0.171875 0.84375q0.1875 0.390625 0.515625 0.65625q0.328125 0.28125 0.78125 0.4375q0.453125 0.15625 0.984375 0.15625q0.34375 0 0.625 -0.0625q0.28125 -0.0625 0.53125 -0.171875q0.234375 -0.09375 0.421875 -0.234375q0.203125 -0.15625 0.34375 -0.3125q0.03125 0.1875 0.078125 0.359375q0.046875 0.171875 0.109375 0.296875zm-1.71875 -1.265625q-0.25 0 -0.453125 -0.0625q-0.1875 -0.0625 -0.3125 -0.171875q-0.140625 -0.109375 -0.203125 -0.265625q-0.0625 -0.15625 -0.0625 -0.34375q0 -0.25 0.078125 -0.453125q0.09375 -0.203125 0.28125 -0.359375q0.203125 -0.140625 0.5 -0.21875q0.296875 -0.078125 0.71875 -0.078125l0.921875 0l0 1.203125q-0.078125 0.140625 -0.21875 0.28125q-0.125 0.125 -0.328125 0.234375q-0.1875 0.09375 -0.421875 0.171875q-0.234375 0.0625 -0.5 0.0625zm15.496368 -8.203125l-2.265625 0l0 9.46875l1.671875 0l0 -2.8125l-0.078125 -4.25l1.125 3.9375l0.890625 0l1.25 -4.109375l-0.078125 4.421875l0 2.8125l1.671875 0l0 -9.46875l-2.265625 0l-1.015625 3.546875l-0.90625 -3.546875zm10.216919 9.46875l1.84375 0l0 -0.109375q-0.140625 -0.265625 -0.21875 -0.640625q-0.0625 -0.375 -0.0625 -0.9375l0 -3.015625q0 -0.609375 -0.234375 -1.078125q-0.21875 -0.46875 -0.625 -0.765625q-0.40625 -0.3125 -0.953125 -0.46875q-0.546875 -0.15625 -1.1875 -0.15625q-0.71875 0 -1.265625 0.1875q-0.546875 0.171875 -0.921875 0.46875q-0.390625 0.3125 -0.59375 0.71875q-0.1875 0.40625 -0.1875 0.84375l1.8125 0q0 -0.1875 0.046875 -0.34375q0.0625 -0.15625 0.171875 -0.265625q0.140625 -0.125 0.34375 -0.1875q0.203125 -0.0625 0.5 -0.0625q0.3125 0 0.5625 0.078125q0.25 0.078125 0.40625 0.234375q0.15625 0.140625 0.234375 0.34375q0.078125 0.1875 0.078125 0.4375l0 0.421875l-1.015625 0q-0.765625 0 -1.375 0.140625q-0.609375 0.140625 -1.015625 0.40625q-0.453125 0.28125 -0.6875 0.734375q-0.21875 0.453125 -0.21875 1.046875q0 0.453125 0.171875 0.84375q0.1875 0.390625 0.515625 0.65625q0.328125 0.28125 0.78125 0.4375q0.453125 0.15625 0.984375 0.15625q0.34375 0 0.625 -0.0625q0.28125 -0.0625 0.53125 -0.171875q0.234375 -0.09375 0.421875 -0.234375q0.203125 -0.15625 0.34375 -0.3125q0.03125 0.1875 0.078125 0.359375q0.046875 0.171875 0.109375 0.296875zm-1.71875 -1.265625q-0.25 0 -0.453125 -0.0625q-0.1875 -0.0625 -0.3125 -0.171875q-0.140625 -0.109375 -0.203125 -0.265625q-0.0625 -0.15625 -0.0625 -0.34375q0 -0.25 0.078125 -0.453125q0.09375 -0.203125 0.28125 -0.359375q0.203125 -0.140625 0.5 -0.21875q0.296875 -0.078125 0.71875 -0.078125l0.921875 0l0 1.203125q-0.078125 0.140625 -0.21875 0.28125q-0.125 0.125 -0.328125 0.234375q-0.1875 0.09375 -0.421875 0.171875q-0.234375 0.0625 -0.5 0.0625zm10.373199 -5.90625q-0.703125 0 -1.3125 0.34375q-0.59375 0.34375 -1.015625 0.9375l-0.015625 -0.15625l-0.078125 -1.0l-1.671875 0l0 7.046875l1.796875 0l0 -4.234375q0.125 -0.296875 0.3125 -0.515625q0.1875 -0.21875 0.453125 -0.359375q0.234375 -0.125 0.515625 -0.1875q0.28125 -0.0625 0.625 -0.0625q0.34375 0 0.71875 0.046875q0.375 0.03125 0.734375 0.125l0.265625 -1.8125q-0.21875 -0.0625 -0.5625 -0.109375q-0.34375 -0.0625 -0.765625 -0.0625zm6.263794 -1.59375l-1.8125 0l0 1.71875l-1.609375 0l0 1.34375l1.609375 0l0 3.203125q0 0.6875 0.1875 1.1875q0.1875 0.5 0.515625 0.8125q0.34375 0.328125 0.8125 0.484375q0.46875 0.15625 1.046875 0.15625q0.296875 0 0.609375 -0.03125q0.3125 -0.03125 0.59375 -0.078125q0.28125 -0.0625 0.53125 -0.140625q0.265625 -0.078125 0.453125 -0.1875l-0.171875 -1.25q-0.125 0.03125 -0.296875 0.078125q-0.171875 0.03125 -0.375 0.046875q-0.203125 0.03125 -0.421875 0.0625q-0.21875 0.015625 -0.421875 0.015625q-0.28125 0 -0.515625 -0.0625q-0.234375 -0.078125 -0.390625 -0.234375q-0.171875 -0.140625 -0.265625 -0.390625q-0.078125 -0.265625 -0.078125 -0.65625l0 -3.015625l2.625 0l0 -1.34375l-2.625 0l0 -1.71875z" fill-rule="nonzero"/><path fill="#4a9fea" d="m422.0144 170.36375l170.17322 0l0 215.2126l-170.17322 0z" fill-rule="evenodd"/><path fill="#ffffff" d="m463.92352 192.16376l2.546875 0q0.625 0 1.1875 -0.15625q0.5625 -0.15625 1.015625 -0.453125q0.40625 -0.25 0.734375 -0.609375q0.328125 -0.375 0.578125 -0.8125q0.25 -0.484375 0.390625 -1.0625q0.15625 -0.59375 0.15625 -1.25l0 -0.78125q0 -0.6875 -0.15625 -1.28125q-0.15625 -0.609375 -0.4375 -1.109375q-0.234375 -0.40625 -0.5625 -0.75q-0.3125 -0.359375 -0.734375 -0.59375q-0.46875 -0.296875 -1.046875 -0.453125q-0.5625 -0.15625 -1.21875 -0.15625l-2.453125 0l0 9.46875zm1.84375 -7.984375l0.609375 0q0.328125 0 0.609375 0.078125q0.296875 0.0625 0.53125 0.203125q0.296875 0.1875 0.53125 0.46875q0.234375 0.28125 0.375 0.640625q0.109375 0.3125 0.171875 0.6875q0.0625 0.359375 0.0625 0.765625l0 0.796875q0 0.4375 -0.0625 0.8125q-0.0625 0.375 -0.171875 0.6875q-0.140625 0.34375 -0.34375 0.609375q-0.203125 0.265625 -0.453125 0.4375q-0.234375 0.15625 -0.53125 0.25q-0.28125 0.078125 -0.625 0.078125l-0.703125 0l0 -6.515625zm9.670044 8.109375q1.03125 0 1.78125 -0.390625q0.75 -0.390625 1.09375 -0.890625l-0.90625 -0.96875q-0.3125 0.40625 -0.8125 0.609375q-0.5 0.1875 -1.046875 0.1875q-0.375 0 -0.703125 -0.109375q-0.3125 -0.125 -0.546875 -0.328125q-0.25 -0.21875 -0.390625 -0.46875q-0.140625 -0.265625 -0.234375 -0.6875l0 -0.015625l4.78125 0l0 -0.765625q0 -0.78125 -0.21875 -1.421875q-0.21875 -0.640625 -0.625 -1.09375q-0.421875 -0.453125 -1.015625 -0.703125q-0.59375 -0.25 -1.359375 -0.25q-0.734375 0 -1.359375 0.265625q-0.625 0.265625 -1.078125 0.75q-0.453125 0.484375 -0.703125 1.15625q-0.25 0.65625 -0.25 1.46875l0 0.25q0 0.71875 0.25 1.34375q0.265625 0.609375 0.734375 1.078125q0.46875 0.453125 1.125 0.71875q0.671875 0.265625 1.484375 0.265625zm-0.203125 -5.828125q0.34375 0 0.59375 0.109375q0.265625 0.09375 0.453125 0.28125q0.1875 0.1875 0.28125 0.453125q0.109375 0.25 0.109375 0.53125l0 0.140625l-2.96875 0q0.0625 -0.34375 0.1875 -0.625q0.140625 -0.28125 0.34375 -0.484375q0.1875 -0.203125 0.4375 -0.296875q0.25 -0.109375 0.5625 -0.109375zm9.326324 3.765625q0 0.171875 -0.078125 0.3125q-0.078125 0.125 -0.234375 0.234375q-0.171875 0.109375 -0.4375 0.171875q-0.265625 0.046875 -0.609375 0.046875q-0.296875 0 -0.578125 -0.046875q-0.28125 -0.0625 -0.484375 -0.1875q-0.21875 -0.125 -0.359375 -0.328125q-0.140625 -0.21875 -0.15625 -0.5l-1.71875 0q0 0.4375 0.203125 0.859375q0.21875 0.421875 0.625 0.75q0.40625 0.34375 1.015625 0.5625q0.609375 0.203125 1.40625 0.203125q0.71875 0 1.296875 -0.15625q0.59375 -0.171875 1.015625 -0.453125q0.40625 -0.28125 0.625 -0.671875q0.234375 -0.40625 0.234375 -0.875q0 -0.5 -0.234375 -0.859375q-0.21875 -0.375 -0.609375 -0.640625q-0.40625 -0.25 -0.953125 -0.40625q-0.546875 -0.171875 -1.171875 -0.28125q-0.453125 -0.0625 -0.734375 -0.140625q-0.28125 -0.09375 -0.453125 -0.203125q-0.171875 -0.109375 -0.234375 -0.234375q-0.0625 -0.140625 -0.0625 -0.296875q0 -0.15625 0.078125 -0.296875q0.078125 -0.140625 0.21875 -0.234375q0.15625 -0.125 0.390625 -0.1875q0.25 -0.0625 0.59375 -0.0625q0.390625 0 0.65625 0.09375q0.28125 0.09375 0.4375 0.265625q0.125 0.125 0.171875 0.28125q0.0625 0.140625 0.0625 0.3125l1.8125 0q0 -0.484375 -0.21875 -0.890625q-0.203125 -0.421875 -0.609375 -0.734375q-0.40625 -0.296875 -1.0 -0.46875q-0.578125 -0.171875 -1.3125 -0.171875q-0.703125 0 -1.265625 0.1875q-0.5625 0.171875 -0.953125 0.46875q-0.390625 0.296875 -0.609375 0.703125q-0.203125 0.390625 -0.203125 0.828125q0 0.4375 0.203125 0.78125q0.21875 0.34375 0.578125 0.609375q0.359375 0.265625 0.875 0.453125q0.515625 0.1875 1.125 0.3125q0.484375 0.09375 0.796875 0.1875q0.328125 0.078125 0.53125 0.1875q0.1875 0.109375 0.25 0.234375q0.078125 0.125 0.078125 0.28125zm6.779419 -6.828125l-1.8125 0l0 1.71875l-1.609375 0l0 1.34375l1.609375 0l0 3.203125q0 0.6875 0.1875 1.1875q0.1875 0.5 0.515625 0.8125q0.34375 0.328125 0.8125 0.484375q0.46875 0.15625 1.046875 0.15625q0.296875 0 0.609375 -0.03125q0.3125 -0.03125 0.59375 -0.078125q0.28125 -0.0625 0.53125 -0.140625q0.265625 -0.078125 0.453125 -0.1875l-0.171875 -1.25q-0.125 0.03125 -0.296875 0.078125q-0.171875 0.03125 -0.375 0.046875q-0.203125 0.03125 -0.421875 0.0625q-0.21875 0.015625 -0.421875 0.015625q-0.28125 0 -0.515625 -0.0625q-0.234375 -0.078125 -0.390625 -0.234375q-0.171875 -0.140625 -0.265625 -0.390625q-0.078125 -0.265625 -0.078125 -0.65625l0 -3.015625l2.625 0l0 -1.34375l-2.625 0l0 -1.71875zm5.1700745 1.71875l0 1.484375l2.0 0l0 4.09375l-2.0 0l0 1.46875l5.734375 0l0 -1.46875l-1.90625 0l0 -5.578125l-3.828125 0zm1.875 -1.796875q0 0.203125 0.0625 0.390625q0.078125 0.171875 0.21875 0.296875q0.140625 0.125 0.328125 0.203125q0.1875 0.078125 0.421875 0.078125q0.484375 0 0.765625 -0.265625q0.28125 -0.28125 0.28125 -0.703125q0 -0.421875 -0.28125 -0.6875q-0.28125 -0.28125 -0.765625 -0.28125q-0.234375 0 -0.421875 0.078125q-0.1875 0.0625 -0.328125 0.1875q-0.140625 0.140625 -0.21875 0.328125q-0.0625 0.171875 -0.0625 0.375zm5.638794 8.84375l1.8125 0l0 -5.0q0.09375 -0.140625 0.203125 -0.25q0.109375 -0.125 0.25 -0.21875q0.15625 -0.109375 0.375 -0.171875q0.21875 -0.0625 0.484375 -0.0625q0.3125 0 0.5625 0.0625q0.25 0.0625 0.421875 0.21875q0.171875 0.15625 0.265625 0.4375q0.09375 0.265625 0.09375 0.671875l0 4.3125l1.8125 0l0 -4.328125q0 -0.78125 -0.1875 -1.3125q-0.171875 -0.53125 -0.484375 -0.875q-0.328125 -0.34375 -0.78125 -0.5q-0.4375 -0.15625 -0.96875 -0.15625q-0.421875 0 -0.796875 0.125q-0.359375 0.109375 -0.671875 0.328125q-0.1875 0.125 -0.34375 0.296875q-0.15625 0.15625 -0.296875 0.359375l-0.109375 -0.984375l-1.640625 0l0 7.046875zm12.388794 0l1.84375 0l0 -0.109375q-0.140625 -0.265625 -0.21875 -0.640625q-0.0625 -0.375 -0.0625 -0.9375l0 -3.015625q0 -0.609375 -0.234375 -1.078125q-0.21875 -0.46875 -0.625 -0.765625q-0.40625 -0.3125 -0.953125 -0.46875q-0.546875 -0.15625 -1.1875 -0.15625q-0.71875 0 -1.265625 0.1875q-0.546875 0.171875 -0.921875 0.46875q-0.390625 0.3125 -0.59375 0.71875q-0.1875 0.40625 -0.1875 0.84375l1.8125 0q0 -0.1875 0.046875 -0.34375q0.0625 -0.15625 0.171875 -0.265625q0.140625 -0.125 0.34375 -0.1875q0.203125 -0.0625 0.5 -0.0625q0.3125 0 0.5625 0.078125q0.25 0.078125 0.40625 0.234375q0.15625 0.140625 0.234375 0.34375q0.078125 0.1875 0.078125 0.4375l0 0.421875l-1.015625 0q-0.765625 0 -1.375 0.140625q-0.609375 0.140625 -1.015625 0.40625q-0.453125 0.28125 -0.6875 0.734375q-0.21871948 0.453125 -0.21871948 1.046875q0 0.453125 0.17184448 0.84375q0.1875 0.390625 0.515625 0.65625q0.328125 0.28125 0.78125 0.4375q0.453125 0.15625 0.984375 0.15625q0.34375 0 0.625 -0.0625q0.28125 -0.0625 0.53125 -0.171875q0.234375 -0.09375 0.421875 -0.234375q0.203125 -0.15625 0.34375 -0.3125q0.03125 0.1875 0.078125 0.359375q0.046875 0.171875 0.109375 0.296875zm-1.71875 -1.265625q-0.25 0 -0.453125 -0.0625q-0.1875 -0.0625 -0.3125 -0.171875q-0.140625 -0.109375 -0.203125 -0.265625q-0.0625 -0.15625 -0.0625 -0.34375q0 -0.25 0.078125 -0.453125q0.09375 -0.203125 0.28125 -0.359375q0.203125 -0.140625 0.5 -0.21875q0.296875 -0.078125 0.71875 -0.078125l0.921875 0l0 1.203125q-0.078125 0.140625 -0.21875 0.28125q-0.125 0.125 -0.328125 0.234375q-0.1875 0.09375 -0.421875 0.171875q-0.234375 0.0625 -0.5 0.0625zm8.638855 -7.5l-1.8125 0l0 1.71875l-1.609375 0l0 1.34375l1.609375 0l0 3.203125q0 0.6875 0.1875 1.1875q0.1875 0.5 0.515625 0.8125q0.34375 0.328125 0.8125 0.484375q0.46875 0.15625 1.046875 0.15625q0.296875 0 0.609375 -0.03125q0.3125 -0.03125 0.59375 -0.078125q0.28125 -0.0625 0.53125 -0.140625q0.265625 -0.078125 0.453125 -0.1875l-0.171875 -1.25q-0.125 0.03125 -0.296875 0.078125q-0.171875 0.03125 -0.375 0.046875q-0.203125 0.03125 -0.421875 0.0625q-0.21875 0.015625 -0.421875 0.015625q-0.28125 0 -0.515625 -0.0625q-0.234375 -0.078125 -0.390625 -0.234375q-0.171875 -0.140625 -0.265625 -0.390625q-0.078125 -0.265625 -0.078125 -0.65625l0 -3.015625l2.625 0l0 -1.34375l-2.625 0l0 -1.71875zm5.170044 1.71875l0 1.484375l2.0 0l0 4.09375l-2.0 0l0 1.46875l5.734375 0l0 -1.46875l-1.90625 0l0 -5.578125l-3.828125 0zm1.875 -1.796875q0 0.203125 0.0625 0.390625q0.078125 0.171875 0.21875 0.296875q0.140625 0.125 0.328125 0.203125q0.1875 0.078125 0.421875 0.078125q0.484375 0 0.765625 -0.265625q0.28125 -0.28125 0.28125 -0.703125q0 -0.421875 -0.28125 -0.6875q-0.28125 -0.28125 -0.765625 -0.28125q-0.234375 0 -0.421875 0.078125q-0.1875 0.0625 -0.328125 0.1875q-0.140625 0.140625 -0.21875 0.328125q-0.0625 0.171875 -0.0625 0.375zm5.388794 5.265625l0 0.125q0 0.78125 0.21875 1.4375q0.21875 0.65625 0.65625 1.125q0.421875 0.484375 1.03125 0.765625q0.625 0.265625 1.421875 0.265625q0.796875 0 1.40625 -0.265625q0.625 -0.28125 1.046875 -0.765625q0.421875 -0.46875 0.640625 -1.125q0.21875 -0.65625 0.21875 -1.4375l0 -0.125q0 -0.78125 -0.21875 -1.421875q-0.21875 -0.65625 -0.640625 -1.140625q-0.4375 -0.484375 -1.0625 -0.75q-0.609375 -0.28125 -1.40625 -0.28125q-0.78125 0 -1.40625 0.28125q-0.609375 0.265625 -1.03125 0.75q-0.4375 0.484375 -0.65625 1.140625q-0.21875 0.640625 -0.21875 1.421875zm1.8125 0.125l0 -0.125q0 -0.4375 0.078125 -0.8125q0.09375 -0.390625 0.265625 -0.6875q0.1875 -0.296875 0.46875 -0.453125q0.28125 -0.171875 0.6875 -0.171875q0.421875 0 0.703125 0.171875q0.28125 0.15625 0.46875 0.453125q0.171875 0.296875 0.25 0.6875q0.09375 0.375 0.09375 0.8125l0 0.125q0 0.453125 -0.09375 0.84375q-0.078125 0.375 -0.25 0.65625q-0.1875 0.296875 -0.46875 0.46875q-0.28125 0.171875 -0.6875 0.171875q-0.40625 0 -0.703125 -0.171875q-0.28125 -0.171875 -0.46875 -0.46875q-0.171875 -0.28125 -0.265625 -0.65625q-0.078125 -0.390625 -0.078125 -0.84375zm6.435669 3.453125l1.8125 0l0 -5.0q0.09375 -0.140625 0.203125 -0.25q0.109375 -0.125 0.25 -0.21875q0.15625 -0.109375 0.375 -0.171875q0.21875 -0.0625 0.484375 -0.0625q0.3125 0 0.5625 0.0625q0.25 0.0625 0.421875 0.21875q0.171875 0.15625 0.265625 0.4375q0.09375 0.265625 0.09375 0.671875l0 4.3125l1.8125 0l0 -4.328125q0 -0.78125 -0.1875 -1.3125q-0.171875 -0.53125 -0.484375 -0.875q-0.328125 -0.34375 -0.78125 -0.5q-0.4375 -0.15625 -0.96875 -0.15625q-0.421875 0 -0.796875 0.125q-0.359375 0.109375 -0.671875 0.328125q-0.1875 0.125 -0.34375 0.296875q-0.15625 0.15625 -0.296875 0.359375l-0.109375 -0.984375l-1.640625 0l0 7.046875z" fill-rule="nonzero"/><path fill="#4a9fea" d="m-1.0761212 88.964325l170.17323 0l0 42.740158l-170.17323 0z" fill-rule="evenodd"/><path fill="#ffffff" d="m55.456165 112.16565l-1.828125 0q-0.03125 0.4375 -0.15625 0.75q-0.109375 0.296875 -0.3125 0.484375q-0.203125 0.203125 -0.5 0.296875q-0.28125 0.078125 -0.625 0.078125q-0.28125 0 -0.5 -0.0625q-0.203125 -0.0625 -0.390625 -0.1875q-0.15625 -0.109375 -0.28125 -0.28125q-0.125 -0.1875 -0.21875 -0.40625q-0.125 -0.34375 -0.1875 -0.78125q-0.0625 -0.453125 -0.0625 -1.015625l0 -1.28125q0 -0.421875 0.03125 -0.78125q0.046875 -0.359375 0.125 -0.65625q0.109375 -0.390625 0.296875 -0.671875q0.1875 -0.296875 0.453125 -0.453125q0.15625 -0.09375 0.34375 -0.140625q0.1875 -0.046875 0.390625 -0.046875q0.40625 0 0.6875 0.109375q0.296875 0.109375 0.5 0.3125q0.1875 0.21875 0.28125 0.546875q0.109375 0.3125 0.125 0.734375l1.828125 0q-0.0625 -0.75 -0.3125 -1.328125q-0.25 -0.59375 -0.671875 -1.015625q-0.4375 -0.40625 -1.046875 -0.625q-0.609375 -0.21875 -1.390625 -0.21875q-0.515625 0 -0.984375 0.140625q-0.453125 0.125 -0.84375 0.375q-0.421875 0.28125 -0.765625 0.71875q-0.328125 0.421875 -0.546875 0.953125q-0.171875 0.453125 -0.265625 0.96875q-0.09375 0.515625 -0.09375 1.078125l0 1.28125q0 0.609375 0.09375 1.15625q0.109375 0.546875 0.296875 1.0q0.1875 0.453125 0.46875 0.84375q0.296875 0.375 0.65625 0.640625q0.390625 0.28125 0.890625 0.4375q0.5 0.15625 1.09375 0.15625q0.734375 0 1.34375 -0.21875q0.609375 -0.21875 1.0625 -0.625q0.4375 -0.40625 0.703125 -0.96875q0.265625 -0.578125 0.3125 -1.296875zm1.2325592 -0.609375l0 0.125q0 0.78125 0.21875 1.4375q0.21875 0.65625 0.65625 1.125q0.421875 0.484375 1.03125 0.765625q0.625 0.265625 1.421875 0.265625q0.796875 0 1.40625 -0.265625q0.625 -0.28125 1.046875 -0.765625q0.421875 -0.46875 0.640625 -1.125q0.21875 -0.65625 0.21875 -1.4375l0 -0.125q0 -0.78125 -0.21875 -1.421875q-0.21875 -0.65625 -0.640625 -1.140625q-0.4375 -0.484375 -1.0625 -0.75q-0.609375 -0.28125 -1.40625 -0.28125q-0.78125 0 -1.40625 0.28125q-0.609375 0.265625 -1.03125 0.75q-0.4375 0.484375 -0.65625 1.140625q-0.21875 0.640625 -0.21875 1.421875zm1.8125 0.125l0 -0.125q0 -0.4375 0.078125 -0.8125q0.09375 -0.390625 0.265625 -0.6875q0.1875 -0.296875 0.46875 -0.453125q0.28125 -0.171875 0.6875 -0.171875q0.421875 0 0.703125 0.171875q0.28125 0.15625 0.46875 0.453125q0.171875 0.296875 0.25 0.6875q0.09375 0.375 0.09375 0.8125l0 0.125q0 0.453125 -0.09375 0.84375q-0.078125 0.375 -0.25 0.65625q-0.1875 0.296875 -0.46875 0.46875q-0.28125 0.171875 -0.6875 0.171875q-0.40625 0 -0.703125 -0.171875q-0.28125 -0.171875 -0.46875 -0.46875q-0.171875 -0.28125 -0.265625 -0.65625q-0.078125 -0.390625 -0.078125 -0.84375zm6.435688 3.453125l1.8125 0l0 -5.0q0.09375 -0.140625 0.203125 -0.25q0.109375 -0.125 0.25 -0.21875q0.15625 -0.109375 0.375 -0.171875q0.21875 -0.0625 0.484375 -0.0625q0.3125 0 0.5625 0.0625q0.25 0.0625 0.421875 0.21875q0.171875 0.15625 0.265625 0.4375q0.09375 0.265625 0.09375 0.671875l0 4.3125l1.8125 0l0 -4.328125q0 -0.78125 -0.1875 -1.3125q-0.171875 -0.53125 -0.484375 -0.875q-0.328125 -0.34375 -0.78125 -0.5q-0.4375 -0.15625 -0.96875 -0.15625q-0.421875 0 -0.796875 0.125q-0.359375 0.109375 -0.671875 0.328125q-0.1875 0.125 -0.34375 0.296875q-0.15625 0.15625 -0.296875 0.359375l-0.109375 -0.984375l-1.640625 0l0 7.046875zm7.998184 0l1.8125 0l0 -5.0q0.09375 -0.140625 0.203125 -0.25q0.109375 -0.125 0.25 -0.21875q0.15625 -0.109375 0.375 -0.171875q0.21875 -0.0625 0.484375 -0.0625q0.3125 0 0.5625 0.0625q0.25 0.0625 0.421875 0.21875q0.171875 0.15625 0.265625 0.4375q0.09375 0.265625 0.09375 0.671875l0 4.3125l1.8125 0l0 -4.328125q0 -0.78125 -0.1875 -1.3125q-0.171875 -0.53125 -0.484375 -0.875q-0.328125 -0.34375 -0.78125 -0.5q-0.4375 -0.15625 -0.96875 -0.15625q-0.421875 0 -0.796875 0.125q-0.359375 0.109375 -0.671875 0.328125q-0.1875 0.125 -0.34375 0.296875q-0.15625 0.15625 -0.296875 0.359375l-0.109375 -0.984375l-1.640625 0l0 7.046875zm11.404434 0.125q1.03125 0 1.78125 -0.390625q0.75 -0.390625 1.09375 -0.890625l-0.90625 -0.96875q-0.3125 0.40625 -0.8125 0.609375q-0.5 0.1875 -1.046875 0.1875q-0.375 0 -0.703125 -0.109375q-0.3125 -0.125 -0.546875 -0.328125q-0.25 -0.21875 -0.390625 -0.46875q-0.140625 -0.265625 -0.234375 -0.6875l0 -0.015625l4.78125 0l0 -0.765625q0 -0.78125 -0.21875 -1.421875q-0.21875 -0.640625 -0.625 -1.09375q-0.421875 -0.453125 -1.015625 -0.703125q-0.59375 -0.25 -1.359375 -0.25q-0.734375 0 -1.359375 0.265625q-0.625 0.265625 -1.078125 0.75q-0.453125 0.484375 -0.703125 1.15625q-0.25 0.65625 -0.25 1.46875l0 0.25q0 0.71875 0.25 1.34375q0.265625 0.609375 0.734375 1.078125q0.46875 0.453125 1.125 0.71875q0.671875 0.265625 1.484375 0.265625zm-0.203125 -5.828125q0.34375 0 0.59375 0.109375q0.265625 0.09375 0.453125 0.28125q0.1875 0.1875 0.28125 0.453125q0.109375 0.25 0.109375 0.53125l0 0.140625l-2.96875 0q0.0625 -0.34375 0.1875 -0.625q0.140625 -0.28125 0.34375 -0.484375q0.1875 -0.203125 0.4375 -0.296875q0.25 -0.109375 0.5625 -0.109375zm7.904434 4.390625q-0.4375 0 -0.71875 -0.171875q-0.28125 -0.1875 -0.4375 -0.46875q-0.171875 -0.296875 -0.234375 -0.671875q-0.0625 -0.375 -0.0625 -0.796875l0 -0.1875q0 -0.40625 0.0625 -0.78125q0.0625 -0.375 0.234375 -0.671875q0.171875 -0.296875 0.4375 -0.46875q0.28125 -0.171875 0.71875 -0.171875q0.296875 0 0.53125 0.109375q0.25 0.09375 0.421875 0.25q0.1875 0.171875 0.265625 0.40625q0.09375 0.234375 0.09375 0.5l1.703125 0q0 -0.625 -0.21875 -1.125q-0.21875 -0.515625 -0.609375 -0.875q-0.40625 -0.34375 -0.96875 -0.53125q-0.546875 -0.203125 -1.203125 -0.203125q-0.8125 0 -1.421875 0.28125q-0.609375 0.28125 -1.03125 0.765625q-0.421875 0.46875 -0.625 1.125q-0.203125 0.640625 -0.203125 1.390625l0 0.1875q0 0.75 0.203125 1.40625q0.21875 0.640625 0.625 1.125q0.421875 0.46875 1.03125 0.75q0.625 0.28125 1.4375 0.28125q0.609375 0 1.15625 -0.1875q0.546875 -0.203125 0.953125 -0.53125q0.40625 -0.34375 0.640625 -0.8125q0.234375 -0.46875 0.234375 -1.015625l-1.703125 0q0 0.25 -0.109375 0.453125q-0.09375 0.203125 -0.265625 0.34375q-0.1875 0.140625 -0.4375 0.21875q-0.234375 0.078125 -0.5 0.078125zm8.201309 -7.453125l-1.8125 0l0 1.71875l-1.609375 0l0 1.34375l1.609375 0l0 3.203125q0 0.6875 0.1875 1.1875q0.1875 0.5 0.515625 0.8125q0.34375 0.328125 0.8125 0.484375q0.46875 0.15625 1.046875 0.15625q0.296875 0 0.609375 -0.03125q0.3125 -0.03125 0.59375 -0.078125q0.28125 -0.0625 0.53125 -0.140625q0.265625 -0.078125 0.453125 -0.1875l-0.171875 -1.25q-0.125 0.03125 -0.296875 0.078125q-0.171875 0.03125 -0.375 0.046875q-0.203125 0.03125 -0.421875 0.0625q-0.21875 0.015625 -0.421875 0.015625q-0.28125 0 -0.515625 -0.0625q-0.234375 -0.078125 -0.390625 -0.234375q-0.171875 -0.140625 -0.265625 -0.390625q-0.078125 -0.265625 -0.078125 -0.65625l0 -3.015625l2.625 0l0 -1.34375l-2.625 0l0 -1.71875zm4.435684 5.1875l0 0.125q0 0.78125 0.21875 1.4375q0.21875 0.65625 0.65625 1.125q0.421875 0.484375 1.03125 0.765625q0.625 0.265625 1.421875 0.265625q0.796875 0 1.40625 -0.265625q0.625 -0.28125 1.046875 -0.765625q0.421875 -0.46875 0.640625 -1.125q0.21875 -0.65625 0.21875 -1.4375l0 -0.125q0 -0.78125 -0.21875 -1.421875q-0.21875 -0.65625 -0.640625 -1.140625q-0.4375 -0.484375 -1.0625 -0.75q-0.609375 -0.28125 -1.40625 -0.28125q-0.78125 0 -1.40625 0.28125q-0.609375 0.265625 -1.03125 0.75q-0.4375 0.484375 -0.65625 1.140625q-0.21875 0.640625 -0.21875 1.421875zm1.8125 0.125l0 -0.125q0 -0.4375 0.078125 -0.8125q0.09375 -0.390625 0.265625 -0.6875q0.1875 -0.296875 0.46875 -0.453125q0.28125 -0.171875 0.6875 -0.171875q0.421875 0 0.703125 0.171875q0.28125 0.15625 0.46875 0.453125q0.171875 0.296875 0.25 0.6875q0.09375 0.375 0.09375 0.8125l0 0.125q0 0.453125 -0.09375 0.84375q-0.078125 0.375 -0.25 0.65625q-0.1875 0.296875 -0.46875 0.46875q-0.28125 0.171875 -0.6875 0.171875q-0.40625 0 -0.703125 -0.171875q-0.28125 -0.171875 -0.46875 -0.46875q-0.171875 -0.28125 -0.265625 -0.65625q-0.078125 -0.390625 -0.078125 -0.84375zm11.482559 -3.71875q-0.703125 0 -1.3125 0.34375q-0.59375 0.34375 -1.015625 0.9375l-0.015625 -0.15625l-0.078125 -1.0l-1.671875 0l0 7.046875l1.796875 0l0 -4.234375q0.125 -0.296875 0.3125 -0.515625q0.1875 -0.21875 0.453125 -0.359375q0.234375 -0.125 0.515625 -0.1875q0.28125 -0.0625 0.625 -0.0625q0.34375 0 0.71875 0.046875q0.375 0.03125 0.734375 0.125l0.265625 -1.8125q-0.21875 -0.0625 -0.5625 -0.109375q-0.34375 -0.0625 -0.765625 -0.0625z" fill-rule="nonzero"/><path fill="#4a9fea" d="m208.2153 8.0l170.17322 0l0 42.740158l-170.17322 0z" fill-rule="evenodd"/><path fill="#ffffff" d="m285.36713 30.623203l1.78125 3.546875l1.96875 0l0 -0.078125l-2.046875 -3.921875q0.390625 -0.171875 0.703125 -0.40625q0.328125 -0.25 0.546875 -0.578125q0.234375 -0.3125 0.34375 -0.71875q0.125 -0.40625 0.125 -0.921875q0 -0.703125 -0.25 -1.234375q-0.234375 -0.53125 -0.6875 -0.890625q-0.453125 -0.359375 -1.09375 -0.53125q-0.640625 -0.1875 -1.421875 -0.1875l-3.171875 0l0 9.46875l1.828125 0l0 -3.546875l1.375 0zm-1.375 -1.484375l0 -2.953125l1.34375 0q0.375 0 0.65625 0.09375q0.296875 0.078125 0.5 0.25q0.234375 0.1875 0.34375 0.484375q0.125 0.28125 0.125 0.65625q0 0.3125 -0.09375 0.578125q-0.09375 0.25 -0.265625 0.421875q-0.1875 0.234375 -0.515625 0.359375q-0.328125 0.109375 -0.75 0.109375l-1.34375 0zm10.826324 5.03125l1.640625 0l0 -7.046875l-1.8125 0l0 4.9375q-0.09375 0.171875 -0.21875 0.3125q-0.109375 0.140625 -0.25 0.234375q-0.1875 0.109375 -0.421875 0.171875q-0.21875 0.0625 -0.515625 0.0625q-0.3125 0 -0.53125 -0.078125q-0.21875 -0.078125 -0.359375 -0.265625q-0.140625 -0.171875 -0.203125 -0.46875q-0.0625 -0.296875 -0.0625 -0.71875l0 -4.1875l-1.8125 0l0 4.171875q0 0.796875 0.171875 1.375q0.1875 0.5625 0.515625 0.921875q0.328125 0.375 0.78125 0.546875q0.453125 0.171875 1.0 0.171875q0.609375 0 1.109375 -0.296875q0.5 -0.3125 0.859375 -0.828125l0.109375 0.984375zm3.404419 0l1.8125 0l0 -5.0q0.09375 -0.140625 0.203125 -0.25q0.109375 -0.125 0.25 -0.21875q0.15625 -0.109375 0.375 -0.171875q0.21875 -0.0625 0.484375 -0.0625q0.3125 0 0.5625 0.0625q0.25 0.0625 0.421875 0.21875q0.171875 0.15625 0.265625 0.4375q0.09375 0.265625 0.09375 0.671875l0 4.3125l1.8125 0l0 -4.328125q0 -0.78125 -0.1875 -1.3125q-0.171875 -0.53125 -0.484375 -0.875q-0.328125 -0.34375 -0.78125 -0.5q-0.4375 -0.15625 -0.96875 -0.15625q-0.421875 0 -0.796875 0.125q-0.359375 0.109375 -0.671875 0.328125q-0.1875 0.125 -0.34375 0.296875q-0.15625 0.15625 -0.296875 0.359375l-0.109375 -0.984375l-1.640625 0l0 7.046875z" fill-rule="nonzero"/><path fill="#4a9fea" d="m208.2153 88.964325l170.17322 0l0 42.740158l-170.17322 0z" fill-rule="evenodd"/><path fill="#ffffff" d="m273.12076 107.150024l0 -1.484375l-7.640625 0l0 1.484375l2.890625 0l0 7.984375l1.828125 0l0 -7.984375l2.921875 0zm6.1544495 0.8125q-0.703125 0 -1.3125 0.34375q-0.59375 0.34375 -1.015625 0.9375l-0.015625 -0.15625l-0.078125 -1.0l-1.671875 0l0 7.046875l1.796875 0l0 -4.234375q0.125 -0.296875 0.3125 -0.515625q0.1875 -0.21875 0.453125 -0.359375q0.234375 -0.125 0.515625 -0.1875q0.28125 -0.0625 0.625 -0.0625q0.34375 0 0.71875 0.046875q0.375 0.03125 0.734375 0.125l0.265625 -1.8125q-0.21875 -0.0625 -0.5625 -0.109375q-0.34375 -0.0625 -0.765625 -0.0625zm3.435669 0.125l0 1.484375l2.0 0l0 4.09375l-2.0 0l0 1.46875l5.734375 0l0 -1.46875l-1.90625 0l0 -5.578125l-3.828125 0zm1.875 -1.796875q0 0.203125 0.0625 0.390625q0.078125 0.171875 0.21875 0.296875q0.140625 0.125 0.328125 0.203125q0.1875 0.078125 0.421875 0.078125q0.484375 0 0.765625 -0.265625q0.28125 -0.28125 0.28125 -0.703125q0 -0.421875 -0.28125 -0.6875q-0.28125 -0.28125 -0.765625 -0.28125q-0.234375 0 -0.421875 0.078125q-0.1875 0.0625 -0.328125 0.1875q-0.140625 0.140625 -0.21875 0.328125q-0.0625 0.171875 -0.0625 0.375zm5.4513245 5.265625l0 0.140625q0 0.765625 0.1875 1.421875q0.203125 0.65625 0.578125 1.125q0.375 0.484375 0.890625 0.75q0.53125 0.265625 1.1875 0.265625q0.328125 0 0.609375 -0.078125q0.296875 -0.0625 0.546875 -0.1875q0.15625 -0.09375 0.296875 -0.203125q0.15625 -0.125 0.28125 -0.265625l0 0.40625q0 0.359375 -0.109375 0.640625q-0.09375 0.28125 -0.28125 0.484375q-0.203125 0.203125 -0.515625 0.3125q-0.3125 0.125 -0.703125 0.125q-0.25 0 -0.484375 -0.0625q-0.234375 -0.046875 -0.453125 -0.140625q-0.21875 -0.09375 -0.421875 -0.25q-0.203125 -0.15625 -0.375 -0.359375l-0.8125 1.109375q0.234375 0.296875 0.546875 0.5q0.328125 0.21875 0.671875 0.34375q0.359375 0.140625 0.71875 0.203125q0.375 0.0625 0.6875 0.0625q0.75 0 1.359375 -0.203125q0.625 -0.1875 1.0625 -0.578125q0.4375 -0.375 0.671875 -0.9375q0.25 -0.5625 0.25 -1.28125l0 -6.8125l-1.640625 0l-0.078125 0.671875q-0.125 -0.15625 -0.28125 -0.28125q-0.15625 -0.140625 -0.34375 -0.234375q-0.234375 -0.140625 -0.53125 -0.203125q-0.296875 -0.078125 -0.65625 -0.078125q-0.671875 0 -1.203125 0.265625q-0.515625 0.25 -0.890625 0.734375q-0.375 0.46875 -0.578125 1.140625q-0.1875 0.65625 -0.1875 1.453125zm1.8125 0.140625l0 -0.140625q0 -0.4375 0.09375 -0.828125q0.09375 -0.390625 0.28125 -0.671875q0.1875 -0.296875 0.453125 -0.453125q0.28125 -0.171875 0.671875 -0.171875q0.203125 0 0.375 0.046875q0.1875 0.03125 0.34375 0.109375q0.171875 0.078125 0.3125 0.21875q0.140625 0.140625 0.234375 0.3125l0 2.984375q-0.09375 0.15625 -0.21875 0.296875q-0.125 0.125 -0.28125 0.21875q-0.15625 0.078125 -0.359375 0.125q-0.1875 0.046875 -0.421875 0.046875q-0.375 0 -0.65625 -0.15625q-0.28125 -0.171875 -0.46875 -0.453125q-0.171875 -0.28125 -0.265625 -0.65625q-0.09375 -0.390625 -0.09375 -0.828125zm6.185669 -0.140625l0 0.140625q0 0.765625 0.1875 1.421875q0.203125 0.65625 0.578125 1.125q0.375 0.484375 0.890625 0.75q0.53125 0.265625 1.1875 0.265625q0.328125 0 0.609375 -0.078125q0.296875 -0.0625 0.546875 -0.1875q0.15625 -0.09375 0.296875 -0.203125q0.15625 -0.125 0.28125 -0.265625l0 0.40625q0 0.359375 -0.109375 0.640625q-0.09375 0.28125 -0.28125 0.484375q-0.203125 0.203125 -0.515625 0.3125q-0.3125 0.125 -0.703125 0.125q-0.25 0 -0.484375 -0.0625q-0.234375 -0.046875 -0.453125 -0.140625q-0.21875 -0.09375 -0.421875 -0.25q-0.203125 -0.15625 -0.375 -0.359375l-0.8125 1.109375q0.234375 0.296875 0.546875 0.5q0.328125 0.21875 0.671875 0.34375q0.359375 0.140625 0.71875 0.203125q0.375 0.0625 0.6875 0.0625q0.75 0 1.359375 -0.203125q0.625 -0.1875 1.0625 -0.578125q0.4375 -0.375 0.671875 -0.9375q0.25 -0.5625 0.25 -1.28125l0 -6.8125l-1.640625 0l-0.078125 0.671875q-0.125 -0.15625 -0.28125 -0.28125q-0.15625 -0.140625 -0.34375 -0.234375q-0.234375 -0.140625 -0.53125 -0.203125q-0.296875 -0.078125 -0.65625 -0.078125q-0.671875 0 -1.203125 0.265625q-0.515625 0.25 -0.890625 0.734375q-0.375 0.46875 -0.578125 1.140625q-0.1875 0.65625 -0.1875 1.453125zm1.8125 0.140625l0 -0.140625q0 -0.4375 0.09375 -0.828125q0.09375 -0.390625 0.28125 -0.671875q0.1875 -0.296875 0.453125 -0.453125q0.28125 -0.171875 0.671875 -0.171875q0.203125 0 0.375 0.046875q0.1875 0.03125 0.34375 0.109375q0.171875 0.078125 0.3125 0.21875q0.140625 0.140625 0.234375 0.3125l0 2.984375q-0.09375 0.15625 -0.21875 0.296875q-0.125 0.125 -0.28125 0.21875q-0.15625 0.078125 -0.359375 0.125q-0.1875 0.046875 -0.421875 0.046875q-0.375 0 -0.65625 -0.15625q-0.28125 -0.171875 -0.46875 -0.453125q-0.171875 -0.28125 -0.265625 -0.65625q-0.09375 -0.390625 -0.09375 -0.828125zm9.779449 3.5625q1.03125 0 1.78125 -0.390625q0.75 -0.390625 1.09375 -0.890625l-0.90625 -0.96875q-0.3125 0.40625 -0.8125 0.609375q-0.5 0.1875 -1.046875 0.1875q-0.375 0 -0.703125 -0.109375q-0.3125 -0.125 -0.546875 -0.328125q-0.25 -0.21875 -0.390625 -0.46875q-0.140625 -0.265625 -0.234375 -0.6875l0 -0.015625l4.78125 0l0 -0.765625q0 -0.78125 -0.21875 -1.421875q-0.21875 -0.640625 -0.625 -1.09375q-0.421875 -0.453125 -1.015625 -0.703125q-0.59375 -0.25 -1.359375 -0.25q-0.734375 0 -1.359375 0.265625q-0.625 0.265625 -1.078125 0.75q-0.453125 0.484375 -0.703125 1.15625q-0.25 0.65625 -0.25 1.46875l0 0.25q0 0.71875 0.25 1.34375q0.265625 0.609375 0.734375 1.078125q0.46875 0.453125 1.125 0.71875q0.671875 0.265625 1.484375 0.265625zm-0.203125 -5.828125q0.34375 0 0.59375 0.109375q0.265625 0.09375 0.453125 0.28125q0.1875 0.1875 0.28125 0.453125q0.109375 0.25 0.109375 0.53125l0 0.140625l-2.96875 0q0.0625 -0.34375 0.1875 -0.625q0.140625 -0.28125 0.34375 -0.484375q0.1875 -0.203125 0.4375 -0.296875q0.25 -0.109375 0.5625 -0.109375zm9.841919 -1.46875q-0.703125 0 -1.3125 0.34375q-0.59375 0.34375 -1.015625 0.9375l-0.015625 -0.15625l-0.078125 -1.0l-1.671875 0l0 7.046875l1.796875 0l0 -4.234375q0.125 -0.296875 0.3125 -0.515625q0.1875 -0.21875 0.453125 -0.359375q0.234375 -0.125 0.515625 -0.1875q0.28125 -0.0625 0.625 -0.0625q0.34375 0 0.71875 0.046875q0.375 0.03125 0.734375 0.125l0.265625 -1.8125q-0.21875 -0.0625 -0.5625 -0.109375q-0.34375 -0.0625 -0.765625 -0.0625z" fill-rule="nonzero"/><path fill="#ffffff" d="m432.75436 223.25261l0 0c0 -3.5196228 2.853241 -6.3728333 6.3728333 -6.3728333l135.97876 0c1.6901855 0 3.3111572 0.6714325 4.5062866 1.8665619c1.1951294 1.1951447 1.8665161 2.816101 1.8665161 4.5062714l0 25.490555c0 3.5196228 -2.8532104 6.3728333 -6.3728027 6.3728333l-135.97876 0c-3.5195923 0 -6.3728333 -2.8532104 -6.3728333 -6.3728333z" fill-rule="evenodd"/><path stroke="#1e88e5" stroke-width="1.0" stroke-linejoin="round" stroke-linecap="butt" d="m432.75436 223.25261l0 0c0 -3.5196228 2.853241 -6.3728333 6.3728333 -6.3728333l135.97876 0c1.6901855 0 3.3111572 0.6714325 4.5062866 1.8665619c1.1951294 1.1951447 1.8665161 2.816101 1.8665161 4.5062714l0 25.490555c0 3.5196228 -2.8532104 6.3728333 -6.3728027 6.3728333l-135.97876 0c-3.5195923 0 -6.3728333 -2.8532104 -6.3728333 -6.3728333z" fill-rule="evenodd"/><path fill="#4a9fea" d="m471.44107 238.84726l0 -2.984375l-2.71875 0l0 1.09375l1.25 0l0 1.375q-0.0625 0.0625 -0.171875 0.125q-0.109375 0.0625 -0.25 0.109375q-0.15625 0.046875 -0.328125 0.078125q-0.15625 0.015625 -0.328125 0.015625q-0.28125 0 -0.5 -0.078125q-0.21875 -0.09375 -0.390625 -0.265625q-0.09375 -0.09375 -0.171875 -0.21875q-0.078125 -0.125 -0.140625 -0.28125q-0.109375 -0.265625 -0.171875 -0.59375q-0.046875 -0.34375 -0.046875 -0.75l0 -1.046875q0 -0.328125 0.03125 -0.609375q0.046875 -0.28125 0.125 -0.5q0.09375 -0.296875 0.234375 -0.515625q0.140625 -0.21875 0.328125 -0.359375q0.125 -0.09375 0.28125 -0.140625q0.15625 -0.0625 0.328125 -0.0625q0.296875 0 0.515625 0.078125q0.234375 0.078125 0.375 0.25q0.125 0.140625 0.203125 0.359375q0.078125 0.203125 0.109375 0.484375l1.4375 0q-0.0625 -0.546875 -0.25 -0.984375q-0.1875 -0.4375 -0.515625 -0.75q-0.328125 -0.296875 -0.8125 -0.453125q-0.46875 -0.171875 -1.109375 -0.171875q-0.40625 0 -0.78125 0.125q-0.375 0.109375 -0.6875 0.328125q-0.28125 0.203125 -0.515625 0.484375q-0.21875 0.265625 -0.390625 0.59375q-0.171875 0.390625 -0.28125 0.859375q-0.09375 0.453125 -0.09375 1.0l0 1.03125q0 0.5625 0.09375 1.046875q0.109375 0.484375 0.3125 0.875q0.171875 0.34375 0.40625 0.625q0.25 0.265625 0.5625 0.453125q0.296875 0.171875 0.65625 0.265625q0.375 0.109375 0.796875 0.109375q0.46875 0 0.890625 -0.09375q0.421875 -0.09375 0.75 -0.234375q0.34375 -0.140625 0.578125 -0.3125q0.25 -0.1875 0.390625 -0.359375zm1.0354004 -1.96875l0 0.109375q0 0.609375 0.171875 1.140625q0.1875 0.515625 0.53125 0.90625q0.34375 0.375 0.828125 0.59375q0.5 0.21875 1.140625 0.21875q0.625 0 1.109375 -0.21875q0.5 -0.21875 0.84375 -0.59375q0.34375 -0.390625 0.515625 -0.90625q0.171875 -0.53125 0.171875 -1.140625l0 -0.109375q0 -0.625 -0.171875 -1.140625q-0.171875 -0.53125 -0.515625 -0.90625q-0.34375 -0.390625 -0.84375 -0.609375q-0.484375 -0.21875 -1.125 -0.21875q-0.625 0 -1.125 0.21875q-0.484375 0.21875 -0.828125 0.609375q-0.34375 0.375 -0.53125 0.90625q-0.171875 0.515625 -0.171875 1.140625zm1.453125 0.109375l0 -0.109375q0 -0.34375 0.0625 -0.65625q0.078125 -0.3125 0.21875 -0.546875q0.140625 -0.234375 0.359375 -0.359375q0.234375 -0.140625 0.5625 -0.140625q0.328125 0 0.546875 0.140625q0.234375 0.125 0.390625 0.359375q0.140625 0.234375 0.203125 0.546875q0.0625 0.3125 0.0625 0.65625l0 0.109375q0 0.34375 -0.0625 0.65625q-0.0625 0.3125 -0.203125 0.53125q-0.15625 0.234375 -0.390625 0.375q-0.21875 0.140625 -0.53125 0.140625q-0.328125 0 -0.5625 -0.140625q-0.234375 -0.140625 -0.375 -0.375q-0.140625 -0.21875 -0.21875 -0.53125q-0.0625 -0.3125 -0.0625 -0.65625zm4.941681 -0.109375l0 0.109375q0 0.609375 0.171875 1.140625q0.1875 0.515625 0.53125 0.90625q0.34375 0.375 0.828125 0.59375q0.5 0.21875 1.140625 0.21875q0.625 0 1.109375 -0.21875q0.5 -0.21875 0.84375 -0.59375q0.34375 -0.390625 0.515625 -0.90625q0.171875 -0.53125 0.171875 -1.140625l0 -0.109375q0 -0.625 -0.171875 -1.140625q-0.171875 -0.53125 -0.515625 -0.90625q-0.34375 -0.390625 -0.84375 -0.609375q-0.484375 -0.21875 -1.125 -0.21875q-0.625 0 -1.125 0.21875q-0.484375 0.21875 -0.828125 0.609375q-0.34375 0.375 -0.53125 0.90625q-0.171875 0.515625 -0.171875 1.140625zm1.453125 0.109375l0 -0.109375q0 -0.34375 0.0625 -0.65625q0.078125 -0.3125 0.21875 -0.546875q0.140625 -0.234375 0.359375 -0.359375q0.234375 -0.140625 0.5625 -0.140625q0.328125 0 0.546875 0.140625q0.234375 0.125 0.390625 0.359375q0.140625 0.234375 0.203125 0.546875q0.0625 0.3125 0.0625 0.65625l0 0.109375q0 0.34375 -0.0625 0.65625q-0.0625 0.3125 -0.203125 0.53125q-0.15625 0.234375 -0.390625 0.375q-0.21875 0.140625 -0.53125 0.140625q-0.328125 0 -0.5625 -0.140625q-0.234375 -0.140625 -0.375 -0.375q-0.140625 -0.21875 -0.21875 -0.53125q-0.0625 -0.3125 -0.0625 -0.65625zm5.0041504 -0.109375l0 0.109375q0 0.609375 0.15625 1.140625q0.15625 0.515625 0.453125 0.90625q0.296875 0.375 0.71875 0.59375q0.421875 0.21875 0.9375 0.21875q0.265625 0 0.5 -0.0625q0.234375 -0.0625 0.421875 -0.15625q0.125 -0.078125 0.234375 -0.171875q0.125 -0.09375 0.234375 -0.203125l0 0.3125q0 0.296875 -0.09375 0.515625q-0.078125 0.234375 -0.21875 0.390625q-0.171875 0.171875 -0.421875 0.25q-0.25 0.09375 -0.5625 0.09375q-0.203125 0 -0.390625 -0.046875q-0.171875 -0.03125 -0.34375 -0.109375q-0.171875 -0.078125 -0.34375 -0.203125q-0.15625 -0.109375 -0.296875 -0.28125l-0.65625 0.890625q0.1875 0.234375 0.4375 0.390625q0.265625 0.171875 0.546875 0.28125q0.28125 0.109375 0.5625 0.15625q0.296875 0.0625 0.5625 0.0625q0.59375 0 1.078125 -0.15625q0.5 -0.15625 0.84375 -0.46875q0.359375 -0.3125 0.546875 -0.765625q0.203125 -0.4375 0.203125 -1.015625l0 -5.4375l-1.328125 0l-0.046875 0.53125q-0.109375 -0.125 -0.234375 -0.234375q-0.125 -0.109375 -0.265625 -0.1875q-0.203125 -0.109375 -0.4375 -0.15625q-0.234375 -0.0625 -0.515625 -0.0625q-0.53125 0 -0.953125 0.21875q-0.421875 0.203125 -0.71875 0.578125q-0.296875 0.375 -0.453125 0.90625q-0.15625 0.53125 -0.15625 1.171875zm1.453125 0.109375l0 -0.109375q0 -0.34375 0.0625 -0.65625q0.078125 -0.3125 0.234375 -0.546875q0.140625 -0.234375 0.359375 -0.359375q0.21875 -0.140625 0.53125 -0.140625q0.171875 0 0.3125 0.03125q0.140625 0.03125 0.265625 0.09375q0.140625 0.0625 0.25 0.171875q0.109375 0.109375 0.1875 0.265625l0 2.375q-0.078125 0.125 -0.1875 0.234375q-0.09375 0.109375 -0.21875 0.171875q-0.125 0.078125 -0.28125 0.109375q-0.15625 0.03125 -0.34375 0.03125q-0.296875 0 -0.53125 -0.125q-0.21875 -0.125 -0.359375 -0.359375q-0.140625 -0.21875 -0.21875 -0.515625q-0.0625 -0.3125 -0.0625 -0.671875zm5.379181 -5.25l0 1.1875l1.6875 0l0 5.640625l-1.6875 0l0 1.171875l4.765625 0l0 -1.171875l-1.609375 0l0 -6.828125l-3.15625 0zm8.832275 8.109375q0.8125 0 1.40625 -0.3125q0.609375 -0.328125 0.875 -0.71875l-0.71875 -0.78125q-0.25 0.328125 -0.65625 0.484375q-0.390625 0.15625 -0.828125 0.15625q-0.296875 0 -0.5625 -0.09375q-0.25 -0.09375 -0.4375 -0.265625q-0.1875 -0.15625 -0.3125 -0.359375q-0.109375 -0.21875 -0.1875 -0.546875l0 -0.015625l3.828125 0l0 -0.609375q0 -0.625 -0.171875 -1.140625q-0.171875 -0.515625 -0.5 -0.875q-0.34375 -0.359375 -0.828125 -0.5625q-0.46875 -0.203125 -1.078125 -0.203125q-0.578125 0 -1.078125 0.21875q-0.5 0.203125 -0.859375 0.59375q-0.375 0.390625 -0.578125 0.921875q-0.203125 0.53125 -0.203125 1.171875l0 0.203125q0 0.578125 0.203125 1.078125q0.21875 0.484375 0.59375 0.859375q0.375 0.359375 0.90625 0.578125q0.53125 0.21875 1.1875 0.21875zm-0.171875 -4.671875q0.265625 0 0.46875 0.09375q0.21875 0.078125 0.375 0.21875q0.140625 0.15625 0.21875 0.359375q0.09375 0.203125 0.09375 0.4375l0 0.109375l-2.375 0q0.046875 -0.28125 0.15625 -0.5q0.109375 -0.21875 0.265625 -0.390625q0.140625 -0.15625 0.34375 -0.234375q0.203125 -0.09375 0.453125 -0.09375zm14.102081 2.578125q0 0.203125 -0.078125 0.375q-0.078125 0.171875 -0.234375 0.296875q-0.15625 0.109375 -0.390625 0.1875q-0.21875 0.0625 -0.515625 0.0625q-0.328125 0 -0.609375 -0.0625q-0.265625 -0.078125 -0.453125 -0.234375q-0.203125 -0.15625 -0.3125 -0.40625q-0.109375 -0.25 -0.109375 -0.59375l-1.4375 0q0 0.59375 0.21875 1.03125q0.234375 0.4375 0.625 0.765625q0.40625 0.328125 0.953125 0.5q0.5625 0.15625 1.125 0.15625q0.578125 0 1.0625 -0.125q0.5 -0.140625 0.84375 -0.421875q0.359375 -0.265625 0.5625 -0.640625q0.203125 -0.390625 0.203125 -0.890625q0 -0.578125 -0.265625 -1.015625q-0.265625 -0.453125 -0.71875 -0.78125q-0.296875 -0.203125 -0.65625 -0.359375q-0.34375 -0.15625 -0.734375 -0.265625q-0.375 -0.09375 -0.671875 -0.203125q-0.28125 -0.125 -0.46875 -0.265625q-0.203125 -0.140625 -0.3125 -0.3125q-0.109375 -0.171875 -0.109375 -0.375q0 -0.203125 0.078125 -0.375q0.078125 -0.1875 0.234375 -0.3125q0.15625 -0.125 0.375 -0.1875q0.234375 -0.078125 0.53125 -0.078125q0.3125 0 0.546875 0.09375q0.234375 0.078125 0.40625 0.234375q0.15625 0.15625 0.234375 0.375q0.078125 0.203125 0.09375 0.453125l1.421875 0q0 -0.5 -0.203125 -0.921875q-0.1875 -0.4375 -0.546875 -0.75q-0.359375 -0.3125 -0.859375 -0.484375q-0.484375 -0.171875 -1.078125 -0.171875q-0.5625 0 -1.0625 0.15625q-0.484375 0.140625 -0.84375 0.421875q-0.359375 0.28125 -0.5625 0.671875q-0.203125 0.390625 -0.203125 0.859375q0 0.421875 0.15625 0.78125q0.15625 0.34375 0.453125 0.640625q0.3125 0.296875 0.78125 0.546875q0.484375 0.234375 1.109375 0.40625q0.40625 0.109375 0.671875 0.234375q0.28125 0.125 0.453125 0.28125q0.15625 0.15625 0.21875 0.328125q0.078125 0.171875 0.078125 0.375zm3.9729004 -2.875l0 -3.140625l-1.453125 0l0 8.0l1.453125 0l0 -4.0625q0.078125 -0.109375 0.171875 -0.1875q0.109375 -0.09375 0.234375 -0.15625q0.125 -0.078125 0.296875 -0.109375q0.171875 -0.046875 0.359375 -0.046875q0.25 0 0.4375 0.078125q0.203125 0.0625 0.34375 0.1875q0.140625 0.140625 0.21875 0.359375q0.078125 0.21875 0.078125 0.515625l0 3.421875l1.453125 0l0 -3.40625q0 -0.625 -0.15625 -1.0625q-0.140625 -0.4375 -0.40625 -0.71875q-0.265625 -0.28125 -0.640625 -0.40625q-0.375 -0.140625 -0.8125 -0.140625q-0.296875 0 -0.578125 0.09375q-0.265625 0.078125 -0.484375 0.25q-0.140625 0.09375 -0.28125 0.234375q-0.125 0.140625 -0.234375 0.296875zm7.6760864 4.96875q0.8125 0 1.40625 -0.3125q0.609375 -0.328125 0.875 -0.71875l-0.71875 -0.78125q-0.25 0.328125 -0.65625 0.484375q-0.390625 0.15625 -0.828125 0.15625q-0.296875 0 -0.5625 -0.09375q-0.25 -0.09375 -0.4375 -0.265625q-0.1875 -0.15625 -0.3125 -0.359375q-0.109375 -0.21875 -0.1875 -0.546875l0 -0.015625l3.828125 0l0 -0.609375q0 -0.625 -0.171875 -1.140625q-0.171875 -0.515625 -0.5 -0.875q-0.34375 -0.359375 -0.828125 -0.5625q-0.46875 -0.203125 -1.078125 -0.203125q-0.578125 0 -1.078125 0.21875q-0.5 0.203125 -0.859375 0.59375q-0.375 0.390625 -0.578125 0.921875q-0.203125 0.53125 -0.203125 1.171875l0 0.203125q0 0.578125 0.203125 1.078125q0.21875 0.484375 0.59375 0.859375q0.375 0.359375 0.90625 0.578125q0.53125 0.21875 1.1875 0.21875zm-0.171875 -4.671875q0.265625 0 0.46875 0.09375q0.21875 0.078125 0.375 0.21875q0.140625 0.15625 0.21875 0.359375q0.09375 0.203125 0.09375 0.4375l0 0.109375l-2.375 0q0.046875 -0.28125 0.15625 -0.5q0.109375 -0.21875 0.265625 -0.390625q0.140625 -0.15625 0.34375 -0.234375q0.203125 -0.09375 0.453125 -0.09375zm6.5666504 4.671875q0.8125 0 1.40625 -0.3125q0.609375 -0.328125 0.875 -0.71875l-0.71875 -0.78125q-0.25 0.328125 -0.65625 0.484375q-0.390625 0.15625 -0.828125 0.15625q-0.296875 0 -0.5625 -0.09375q-0.25 -0.09375 -0.4375 -0.265625q-0.1875 -0.15625 -0.3125 -0.359375q-0.109375 -0.21875 -0.1875 -0.546875l0 -0.015625l3.828125 0l0 -0.609375q0 -0.625 -0.171875 -1.140625q-0.171875 -0.515625 -0.5 -0.875q-0.34375 -0.359375 -0.828125 -0.5625q-0.46875 -0.203125 -1.078125 -0.203125q-0.578125 0 -1.078125 0.21875q-0.5 0.203125 -0.859375 0.59375q-0.375 0.390625 -0.578125 0.921875q-0.203125 0.53125 -0.203125 1.171875l0 0.203125q0 0.578125 0.203125 1.078125q0.21875 0.484375 0.59375 0.859375q0.375 0.359375 0.90625 0.578125q0.53125 0.21875 1.1875 0.21875zm-0.171875 -4.671875q0.265625 0 0.46875 0.09375q0.21875 0.078125 0.375 0.21875q0.140625 0.15625 0.21875 0.359375q0.09375 0.203125 0.09375 0.4375l0 0.109375l-2.375 0q0.046875 -0.28125 0.15625 -0.5q0.109375 -0.21875 0.265625 -0.390625q0.140625 -0.15625 0.34375 -0.234375q0.203125 -0.09375 0.453125 -0.09375zm6.4885254 -2.453125l-1.453125 0l0 1.390625l-1.28125 0l0 1.0625l1.28125 0l0 2.5625q0 0.546875 0.140625 0.953125q0.15625 0.390625 0.421875 0.65625q0.265625 0.25 0.640625 0.375q0.375 0.125 0.84375 0.125q0.234375 0 0.484375 -0.03125q0.25 -0.015625 0.484375 -0.0625q0.21875 -0.03125 0.421875 -0.09375q0.203125 -0.078125 0.359375 -0.15625l-0.140625 -1.0q-0.09375 0.03125 -0.234375 0.0625q-0.140625 0.015625 -0.296875 0.03125q-0.15625 0.03125 -0.34375 0.046875q-0.171875 0.015625 -0.328125 0.015625q-0.234375 0 -0.421875 -0.046875q-0.1875 -0.0625 -0.3125 -0.1875q-0.125 -0.109375 -0.203125 -0.3125q-0.0625 -0.21875 -0.0625 -0.515625l0 -2.421875l2.09375 0l0 -1.0625l-2.09375 0l0 -1.390625zm7.3635254 5.46875q0 0.125 -0.0625 0.234375q-0.0625 0.109375 -0.1875 0.203125q-0.140625 0.078125 -0.359375 0.125q-0.203125 0.046875 -0.484375 0.046875q-0.234375 0 -0.453125 -0.046875q-0.21875 -0.046875 -0.390625 -0.140625q-0.171875 -0.109375 -0.28125 -0.265625q-0.109375 -0.171875 -0.125 -0.390625l-1.375 0q0 0.34375 0.15625 0.6875q0.171875 0.328125 0.5 0.59375q0.328125 0.28125 0.8125 0.453125q0.5 0.15625 1.125 0.15625q0.578125 0 1.046875 -0.125q0.46875 -0.125 0.796875 -0.359375q0.328125 -0.234375 0.5 -0.546875q0.1875 -0.3125 0.1875 -0.6875q0 -0.40625 -0.1875 -0.703125q-0.171875 -0.296875 -0.484375 -0.5q-0.3125 -0.203125 -0.75 -0.328125q-0.4375 -0.125 -0.953125 -0.21875q-0.359375 -0.046875 -0.59375 -0.109375q-0.21875 -0.078125 -0.34375 -0.171875q-0.140625 -0.078125 -0.1875 -0.1875q-0.046875 -0.109375 -0.046875 -0.234375q0 -0.125 0.046875 -0.234375q0.0625 -0.109375 0.1875 -0.1875q0.125 -0.09375 0.3125 -0.140625q0.203125 -0.0625 0.46875 -0.0625q0.3125 0 0.53125 0.078125q0.21875 0.078125 0.34375 0.203125q0.09375 0.109375 0.140625 0.234375q0.046875 0.109375 0.046875 0.25l1.453125 0q0 -0.390625 -0.171875 -0.71875q-0.171875 -0.328125 -0.5 -0.578125q-0.328125 -0.234375 -0.796875 -0.375q-0.46875 -0.140625 -1.046875 -0.140625q-0.5625 0 -1.015625 0.140625q-0.4375 0.140625 -0.75 0.375q-0.3125 0.25 -0.484375 0.5625q-0.171875 0.3125 -0.171875 0.671875q0 0.359375 0.15625 0.640625q0.171875 0.265625 0.46875 0.46875q0.296875 0.21875 0.703125 0.375q0.40625 0.140625 0.890625 0.234375q0.390625 0.078125 0.640625 0.15625q0.265625 0.0625 0.421875 0.140625q0.15625 0.09375 0.203125 0.203125q0.0625 0.09375 0.0625 0.21875z" fill-rule="nonzero"/><path fill="#ffffff" d="m432.75436 281.31177l0 0c0 -3.934204 3.1893005 -7.1235046 7.1235046 -7.1235046l134.47742 0c1.8892822 0 3.7011719 0.7504883 5.0370483 2.0864258c1.3359375 1.335907 2.0864258 3.1477966 2.0864258 5.037079l0 28.493134c0 3.934204 -3.18927 7.1235046 -7.123474 7.1235046l-134.47742 0c-3.934204 0 -7.1235046 -3.1893005 -7.1235046 -7.1235046z" fill-rule="evenodd"/><path stroke="#1e88e5" stroke-width="1.0" stroke-linejoin="round" stroke-linecap="butt" d="m432.75436 281.31177l0 0c0 -3.934204 3.1893005 -7.1235046 7.1235046 -7.1235046l134.47742 0c1.8892822 0 3.7011719 0.7504883 5.0370483 2.0864258c1.3359375 1.335907 2.0864258 3.1477966 2.0864258 5.037079l0 28.493134c0 3.934204 -3.18927 7.1235046 -7.123474 7.1235046l-134.47742 0c-3.934204 0 -7.1235046 -3.1893005 -7.1235046 -7.1235046z" fill-rule="evenodd"/><path fill="#4a9fea" d="m467.80045 298.11084l0 -6.390625l-1.46875 0l0 7.578125l5.015625 0l0 -1.1875l-3.546875 0zm4.6760254 -1.671875l0 0.109375q0 0.609375 0.171875 1.140625q0.1875 0.515625 0.53125 0.90625q0.34375 0.375 0.828125 0.59375q0.5 0.21875 1.140625 0.21875q0.625 0 1.109375 -0.21875q0.5 -0.21875 0.84375 -0.59375q0.34375 -0.390625 0.515625 -0.90625q0.171875 -0.53125 0.171875 -1.140625l0 -0.109375q0 -0.625 -0.171875 -1.140625q-0.171875 -0.53125 -0.515625 -0.90625q-0.34375 -0.390625 -0.84375 -0.609375q-0.484375 -0.21875 -1.125 -0.21875q-0.625 0 -1.125 0.21875q-0.484375 0.21875 -0.828125 0.609375q-0.34375 0.375 -0.53125 0.90625q-0.171875 0.515625 -0.171875 1.140625zm1.453125 0.109375l0 -0.109375q0 -0.34375 0.0625 -0.65625q0.078125 -0.3125 0.21875 -0.546875q0.140625 -0.234375 0.359375 -0.359375q0.234375 -0.140625 0.5625 -0.140625q0.328125 0 0.546875 0.140625q0.234375 0.125 0.390625 0.359375q0.140625 0.234375 0.203125 0.546875q0.0625 0.3125 0.0625 0.65625l0 0.109375q0 0.34375 -0.0625 0.65625q-0.0625 0.3125 -0.203125 0.53125q-0.15625 0.234375 -0.390625 0.375q-0.21875 0.140625 -0.53125 0.140625q-0.328125 0 -0.5625 -0.140625q-0.234375 -0.140625 -0.375 -0.375q-0.140625 -0.21875 -0.21875 -0.53125q-0.0625 -0.3125 -0.0625 -0.65625zm4.941681 -0.109375l0 0.109375q0 0.609375 0.171875 1.140625q0.1875 0.515625 0.53125 0.90625q0.34375 0.375 0.828125 0.59375q0.5 0.21875 1.140625 0.21875q0.625 0 1.109375 -0.21875q0.5 -0.21875 0.84375 -0.59375q0.34375 -0.390625 0.515625 -0.90625q0.171875 -0.53125 0.171875 -1.140625l0 -0.109375q0 -0.625 -0.171875 -1.140625q-0.171875 -0.53125 -0.515625 -0.90625q-0.34375 -0.390625 -0.84375 -0.609375q-0.484375 -0.21875 -1.125 -0.21875q-0.625 0 -1.125 0.21875q-0.484375 0.21875 -0.828125 0.609375q-0.34375 0.375 -0.53125 0.90625q-0.171875 0.515625 -0.171875 1.140625zm1.453125 0.109375l0 -0.109375q0 -0.34375 0.0625 -0.65625q0.078125 -0.3125 0.21875 -0.546875q0.140625 -0.234375 0.359375 -0.359375q0.234375 -0.140625 0.5625 -0.140625q0.328125 0 0.546875 0.140625q0.234375 0.125 0.390625 0.359375q0.140625 0.234375 0.203125 0.546875q0.0625 0.3125 0.0625 0.65625l0 0.109375q0 0.34375 -0.0625 0.65625q-0.0625 0.3125 -0.203125 0.53125q-0.15625 0.234375 -0.390625 0.375q-0.21875 0.140625 -0.53125 0.140625q-0.328125 0 -0.5625 -0.140625q-0.234375 -0.140625 -0.375 -0.375q-0.140625 -0.21875 -0.21875 -0.53125q-0.0625 -0.3125 -0.0625 -0.65625zm7.2541504 0.421875l1.609375 2.328125l1.765625 0l-2.421875 -3.28125l2.125 -2.34375l-1.734375 0l-1.546875 1.703125l-0.4375 0.5l0 -4.578125l-1.453125 0l0 8.0l1.453125 0l0 -1.71875l0.640625 -0.609375zm7.019806 2.4375q0.8125 0 1.40625 -0.3125q0.609375 -0.328125 0.875 -0.71875l-0.71875 -0.78125q-0.25 0.328125 -0.65625 0.484375q-0.390625 0.15625 -0.828125 0.15625q-0.296875 0 -0.5625 -0.09375q-0.25 -0.09375 -0.4375 -0.265625q-0.1875 -0.15625 -0.3125 -0.359375q-0.109375 -0.21875 -0.1875 -0.546875l0 -0.015625l3.828125 0l0 -0.609375q0 -0.625 -0.171875 -1.140625q-0.171875 -0.515625 -0.5 -0.875q-0.34375 -0.359375 -0.828125 -0.5625q-0.46875 -0.203125 -1.078125 -0.203125q-0.578125 0 -1.078125 0.21875q-0.5 0.203125 -0.859375 0.59375q-0.375 0.390625 -0.578125 0.921875q-0.203125 0.53125 -0.203125 1.171875l0 0.203125q0 0.578125 0.203125 1.078125q0.21875 0.484375 0.59375 0.859375q0.375 0.359375 0.90625 0.578125q0.53125 0.21875 1.1875 0.21875zm-0.171875 -4.671875q0.265625 0 0.46875 0.09375q0.21875 0.078125 0.375 0.21875q0.140625 0.15625 0.21875 0.359375q0.09375 0.203125 0.09375 0.4375l0 0.109375l-2.375 0q0.046875 -0.28125 0.15625 -0.5q0.109375 -0.21875 0.265625 -0.390625q0.140625 -0.15625 0.34375 -0.234375q0.203125 -0.09375 0.453125 -0.09375zm7.8791504 -1.171875q-0.578125 0 -1.0625 0.28125q-0.46875 0.265625 -0.8125 0.75l-0.015625 -0.125l-0.046875 -0.796875l-1.34375 0l0 5.625l1.4375 0l0 -3.375q0.09375 -0.25 0.25 -0.421875q0.15625 -0.171875 0.359375 -0.296875q0.1875 -0.09375 0.40625 -0.140625q0.234375 -0.046875 0.515625 -0.046875q0.265625 0 0.5625 0.03125q0.296875 0.03125 0.59375 0.09375l0.203125 -1.4375q-0.171875 -0.046875 -0.453125 -0.09375q-0.265625 -0.046875 -0.59375 -0.046875zm12.617706 3.75q0 0.203125 -0.078125 0.375q-0.078125 0.171875 -0.234375 0.296875q-0.15625 0.109375 -0.390625 0.1875q-0.21875 0.0625 -0.515625 0.0625q-0.328125 0 -0.609375 -0.0625q-0.265625 -0.078125 -0.453125 -0.234375q-0.203125 -0.15625 -0.3125 -0.40625q-0.109375 -0.25 -0.109375 -0.59375l-1.4375 0q0 0.59375 0.21875 1.03125q0.234375 0.4375 0.625 0.765625q0.40625 0.328125 0.953125 0.5q0.5625 0.15625 1.125 0.15625q0.578125 0 1.0625 -0.125q0.5 -0.140625 0.84375 -0.421875q0.359375 -0.265625 0.5625 -0.640625q0.203125 -0.390625 0.203125 -0.890625q0 -0.578125 -0.265625 -1.015625q-0.265625 -0.453125 -0.71875 -0.78125q-0.296875 -0.203125 -0.65625 -0.359375q-0.34375 -0.15625 -0.734375 -0.265625q-0.375 -0.09375 -0.671875 -0.203125q-0.28125 -0.125 -0.46875 -0.265625q-0.203125 -0.140625 -0.3125 -0.3125q-0.109375 -0.171875 -0.109375 -0.375q0 -0.203125 0.078125 -0.375q0.078125 -0.1875 0.234375 -0.3125q0.15625 -0.125 0.375 -0.1875q0.234375 -0.078125 0.53125 -0.078125q0.3125 0 0.546875 0.09375q0.234375 0.078125 0.40625 0.234375q0.15625 0.15625 0.234375 0.375q0.078125 0.203125 0.09375 0.453125l1.421875 0q0 -0.5 -0.203125 -0.921875q-0.1875 -0.4375 -0.546875 -0.75q-0.359375 -0.3125 -0.859375 -0.484375q-0.484375 -0.171875 -1.078125 -0.171875q-0.5625 0 -1.0625 0.15625q-0.484375 0.140625 -0.84375 0.421875q-0.359375 0.28125 -0.5625 0.671875q-0.203125 0.390625 -0.203125 0.859375q0 0.421875 0.15625 0.78125q0.15625 0.34375 0.453125 0.640625q0.3125 0.296875 0.78125 0.546875q0.484375 0.234375 1.109375 0.40625q0.40625 0.109375 0.671875 0.234375q0.28125 0.125 0.453125 0.28125q0.15625 0.15625 0.21875 0.328125q0.078125 0.171875 0.078125 0.375zm5.1760254 -5.03125l-1.453125 0l0 1.390625l-1.28125 0l0 1.0625l1.28125 0l0 2.5625q0 0.546875 0.140625 0.953125q0.15625 0.390625 0.421875 0.65625q0.265625 0.25 0.640625 0.375q0.375 0.125 0.84375 0.125q0.234375 0 0.484375 -0.03125q0.25 -0.015625 0.484375 -0.0625q0.21875 -0.03125 0.421875 -0.09375q0.203125 -0.078125 0.359375 -0.15625l-0.140625 -1.0q-0.09375 0.03125 -0.234375 0.0625q-0.140625 0.015625 -0.296875 0.03125q-0.15625 0.03125 -0.34375 0.046875q-0.171875 0.015625 -0.328125 0.015625q-0.234375 0 -0.421875 -0.046875q-0.1875 -0.0625 -0.3125 -0.1875q-0.125 -0.109375 -0.203125 -0.3125q-0.0625 -0.21875 -0.0625 -0.515625l0 -2.421875l2.09375 0l0 -1.0625l-2.09375 0l0 -1.390625zm7.4104614 7.015625l1.3125 0l0 -5.625l-1.453125 0l0 3.9375q-0.0625 0.140625 -0.15625 0.25q-0.09375 0.109375 -0.21875 0.1875q-0.140625 0.09375 -0.328125 0.140625q-0.1875 0.046875 -0.40625 0.046875q-0.265625 0 -0.4375 -0.0625q-0.171875 -0.0625 -0.28125 -0.21875q-0.109375 -0.140625 -0.15625 -0.375q-0.046875 -0.234375 -0.046875 -0.578125l0 -3.328125l-1.453125 0l0 3.328125q0 0.640625 0.140625 1.09375q0.140625 0.453125 0.40625 0.75q0.265625 0.296875 0.625 0.4375q0.359375 0.125 0.796875 0.125q0.484375 0 0.875 -0.234375q0.40625 -0.25 0.703125 -0.671875l0.078125 0.796875zm2.5666504 -2.859375l0 0.109375q0 0.609375 0.15625 1.140625q0.15625 0.515625 0.4375 0.90625q0.28125 0.375 0.6875 0.59375q0.40625 0.21875 0.921875 0.21875q0.46875 0 0.828125 -0.1875q0.359375 -0.1875 0.625 -0.515625l0.078125 0.59375l1.3125 0l0 -8.0l-1.453125 0l0 2.875q-0.265625 -0.296875 -0.609375 -0.453125q-0.328125 -0.15625 -0.765625 -0.15625q-0.53125 0 -0.9375 0.21875q-0.40625 0.203125 -0.6875 0.578125q-0.296875 0.375 -0.453125 0.90625q-0.140625 0.53125 -0.140625 1.171875zm1.453125 0.109375l0 -0.109375q0 -0.34375 0.0625 -0.65625q0.0625 -0.3125 0.203125 -0.546875q0.125 -0.234375 0.34375 -0.359375q0.21875 -0.140625 0.515625 -0.140625q0.375 0 0.609375 0.171875q0.25 0.15625 0.40625 0.4375l0 2.28125q-0.15625 0.28125 -0.40625 0.4375q-0.234375 0.15625 -0.609375 0.15625q-0.3125 0 -0.53125 -0.125q-0.203125 -0.125 -0.34375 -0.359375q-0.125 -0.21875 -0.1875 -0.515625q-0.0625 -0.3125 -0.0625 -0.671875zm5.4885254 -2.875l0 1.171875l1.59375 0l0 3.28125l-1.59375 0l0 1.171875l4.578125 0l0 -1.171875l-1.515625 0l0 -4.453125l-3.0625 0zm1.5 -1.453125q0 0.171875 0.046875 0.3125q0.0625 0.140625 0.171875 0.25q0.109375 0.09375 0.265625 0.15625q0.15625 0.0625 0.34375 0.0625q0.375 0 0.59375 -0.21875q0.234375 -0.21875 0.234375 -0.5625q0 -0.328125 -0.234375 -0.546875q-0.21875 -0.21875 -0.59375 -0.21875q-0.1875 0 -0.34375 0.0625q-0.15625 0.046875 -0.265625 0.15625q-0.109375 0.09375 -0.171875 0.25q-0.046875 0.140625 -0.046875 0.296875zm4.3010254 4.21875l0 0.109375q0 0.609375 0.171875 1.140625q0.1875 0.515625 0.53125 0.90625q0.34375 0.375 0.828125 0.59375q0.5 0.21875 1.140625 0.21875q0.625 0 1.109375 -0.21875q0.5 -0.21875 0.84375 -0.59375q0.34375 -0.390625 0.515625 -0.90625q0.171875 -0.53125 0.171875 -1.140625l0 -0.109375q0 -0.625 -0.171875 -1.140625q-0.171875 -0.53125 -0.515625 -0.90625q-0.34375 -0.390625 -0.84375 -0.609375q-0.484375 -0.21875 -1.125 -0.21875q-0.625 0 -1.125 0.21875q-0.484375 0.21875 -0.828125 0.609375q-0.34375 0.375 -0.53125 0.90625q-0.171875 0.515625 -0.171875 1.140625zm1.453125 0.109375l0 -0.109375q0 -0.34375 0.0625 -0.65625q0.078125 -0.3125 0.21875 -0.546875q0.140625 -0.234375 0.359375 -0.359375q0.234375 -0.140625 0.5625 -0.140625q0.328125 0 0.546875 0.140625q0.234375 0.125 0.390625 0.359375q0.140625 0.234375 0.203125 0.546875q0.0625 0.3125 0.0625 0.65625l0 0.109375q0 0.34375 -0.0625 0.65625q-0.0625 0.3125 -0.203125 0.53125q-0.15625 0.234375 -0.390625 0.375q-0.21875 0.140625 -0.53125 0.140625q-0.328125 0 -0.5625 -0.140625q-0.234375 -0.140625 -0.375 -0.375q-0.140625 -0.21875 -0.21875 -0.53125q-0.0625 -0.3125 -0.0625 -0.65625z" fill-rule="nonzero"/><path fill="#ffffff" d="m432.75436 342.38074l0 0c0 -3.5196228 2.853241 -6.3728333 6.3728333 -6.3728333l135.97876 0c1.6901855 0 3.3111572 0.67141724 4.5062866 1.8665466c1.1951294 1.1951294 1.8665161 2.816101 1.8665161 4.5062866l0 25.49054c0 3.5196228 -2.8532104 6.3728333 -6.3728027 6.3728333l-135.97876 0c-3.5195923 0 -6.3728333 -2.8532104 -6.3728333 -6.3728333z" fill-rule="evenodd"/><path stroke="#1e88e5" stroke-width="1.0" stroke-linejoin="round" stroke-linecap="butt" d="m432.75436 342.38074l0 0c0 -3.5196228 2.853241 -6.3728333 6.3728333 -6.3728333l135.97876 0c1.6901855 0 3.3111572 0.67141724 4.5062866 1.8665466c1.1951294 1.1951294 1.8665161 2.816101 1.8665161 4.5062866l0 25.49054c0 3.5196228 -2.8532104 6.3728333 -6.3728027 6.3728333l-135.97876 0c-3.5195923 0 -6.3728333 -2.8532104 -6.3728333 -6.3728333z" fill-rule="evenodd"/><path fill="#4a9fea" d="m497.09836 355.63162l0 -1.09375q0 -0.515625 -0.09375 -0.96875q-0.09375 -0.46875 -0.28125 -0.859375q-0.171875 -0.328125 -0.40625 -0.609375q-0.21875 -0.28125 -0.53125 -0.484375q-0.3125 -0.203125 -0.703125 -0.3125q-0.375 -0.125 -0.8125 -0.125q-0.421875 0 -0.796875 0.109375q-0.359375 0.109375 -0.65625 0.3125q-0.3125 0.21875 -0.546875 0.515625q-0.21875 0.28125 -0.390625 0.640625q-0.15625 0.375 -0.25 0.828125q-0.078125 0.453125 -0.078125 0.953125l0 1.09375q0 0.46875 0.0625 0.890625q0.078125 0.421875 0.234375 0.78125q0.15625 0.390625 0.390625 0.703125q0.25 0.3125 0.546875 0.53125q0.3125 0.203125 0.671875 0.328125q0.375 0.109375 0.828125 0.109375q0.40625 0 0.765625 -0.109375q0.375 -0.09375 0.671875 -0.28125q0.328125 -0.203125 0.59375 -0.515625q0.265625 -0.3125 0.4375 -0.6875q0.171875 -0.375 0.25 -0.8125q0.09375 -0.4375 0.09375 -0.9375zm-1.484375 -1.109375l0 1.109375q0 0.28125 -0.03125 0.546875q-0.03125 0.25 -0.078125 0.46875q-0.078125 0.28125 -0.203125 0.515625q-0.125 0.21875 -0.296875 0.359375q-0.140625 0.125 -0.328125 0.1875q-0.171875 0.0625 -0.390625 0.0625q-0.234375 0 -0.421875 -0.0625q-0.171875 -0.078125 -0.3125 -0.203125q-0.140625 -0.140625 -0.265625 -0.359375q-0.109375 -0.234375 -0.15625 -0.515625q-0.0625 -0.21875 -0.078125 -0.46875q-0.015625 -0.25 -0.015625 -0.53125l0 -1.109375q0 -0.296875 0.015625 -0.5625q0.03125 -0.265625 0.078125 -0.484375q0.0625 -0.296875 0.1875 -0.515625q0.125 -0.21875 0.296875 -0.359375q0.140625 -0.09375 0.296875 -0.140625q0.15625 -0.0625 0.359375 -0.0625q0.21875 0 0.390625 0.0625q0.171875 0.046875 0.3125 0.15625q0.1875 0.140625 0.3125 0.359375q0.125 0.21875 0.203125 0.5q0.0625 0.234375 0.09375 0.5q0.03125 0.25 0.03125 0.546875zm2.5666504 4.34375l2.03125 0q0.5 0 0.9375 -0.125q0.453125 -0.125 0.828125 -0.359375q0.3125 -0.203125 0.578125 -0.484375q0.265625 -0.296875 0.46875 -0.65625q0.203125 -0.390625 0.3125 -0.84375q0.125 -0.46875 0.125 -1.0l0 -0.625q0 -0.546875 -0.125 -1.03125q-0.125 -0.484375 -0.34375 -0.890625q-0.203125 -0.328125 -0.46875 -0.59375q-0.25 -0.28125 -0.578125 -0.484375q-0.375 -0.234375 -0.828125 -0.359375q-0.453125 -0.125 -0.984375 -0.125l-1.953125 0l0 7.578125zm1.46875 -6.390625l0.484375 0q0.265625 0 0.484375 0.0625q0.234375 0.0625 0.421875 0.171875q0.25 0.140625 0.421875 0.375q0.1875 0.21875 0.3125 0.515625q0.09375 0.25 0.140625 0.546875q0.046875 0.28125 0.046875 0.609375l0 0.640625q0 0.34375 -0.046875 0.640625q-0.046875 0.296875 -0.140625 0.546875q-0.125 0.28125 -0.28125 0.5q-0.15625 0.203125 -0.359375 0.34375q-0.1875 0.125 -0.421875 0.203125q-0.234375 0.0625 -0.5 0.0625l-0.5625 0l0 -5.21875zm8.519806 6.390625l1.46875 0l0 -0.09375q-0.109375 -0.203125 -0.171875 -0.5q-0.046875 -0.296875 -0.046875 -0.75l0 -2.421875q0 -0.484375 -0.1875 -0.859375q-0.1875 -0.375 -0.5 -0.609375q-0.328125 -0.25 -0.765625 -0.375q-0.4375 -0.125 -0.953125 -0.125q-0.5625 0 -1.0 0.140625q-0.4375 0.140625 -0.75 0.390625q-0.296875 0.25 -0.46875 0.578125q-0.15625 0.3125 -0.15625 0.671875l1.453125 0q0 -0.15625 0.046875 -0.28125q0.046875 -0.125 0.140625 -0.203125q0.09375 -0.109375 0.25 -0.15625q0.171875 -0.0625 0.40625 -0.0625q0.265625 0 0.453125 0.078125q0.203125 0.0625 0.328125 0.171875q0.125 0.125 0.1875 0.28125q0.0625 0.15625 0.0625 0.359375l0 0.328125l-0.8125 0q-0.609375 0 -1.09375 0.109375q-0.484375 0.109375 -0.8125 0.328125q-0.359375 0.234375 -0.546875 0.59375q-0.1875 0.359375 -0.1875 0.828125q0 0.359375 0.140625 0.671875q0.15625 0.3125 0.421875 0.53125q0.25 0.234375 0.609375 0.359375q0.375 0.125 0.796875 0.125q0.265625 0 0.484375 -0.0625q0.234375 -0.046875 0.4375 -0.125q0.1875 -0.09375 0.34375 -0.203125q0.15625 -0.109375 0.265625 -0.25q0.03125 0.15625 0.0625 0.296875q0.046875 0.125 0.09375 0.234375zm-1.375 -1.015625q-0.203125 0 -0.359375 -0.046875q-0.15625 -0.046875 -0.25 -0.140625q-0.109375 -0.078125 -0.171875 -0.203125q-0.046875 -0.140625 -0.046875 -0.28125q0 -0.203125 0.0625 -0.359375q0.078125 -0.171875 0.234375 -0.28125q0.15625 -0.125 0.390625 -0.1875q0.234375 -0.0625 0.578125 -0.0625l0.734375 0l0 0.96875q-0.0625 0.109375 -0.171875 0.21875q-0.109375 0.109375 -0.265625 0.1875q-0.140625 0.078125 -0.328125 0.140625q-0.1875 0.046875 -0.40625 0.046875zm6.9104004 -6.0l-1.453125 0l0 1.390625l-1.28125 0l0 1.0625l1.28125 0l0 2.5625q0 0.546875 0.140625 0.953125q0.15625 0.390625 0.421875 0.65625q0.265625 0.25 0.640625 0.375q0.375 0.125 0.84375 0.125q0.234375 0 0.484375 -0.03125q0.25 -0.015625 0.484375 -0.0625q0.21875 -0.03125 0.421875 -0.09375q0.203125 -0.078125 0.359375 -0.15625l-0.140625 -1.0q-0.09375 0.03125 -0.234375 0.0625q-0.140625 0.015625 -0.296875 0.03125q-0.15625 0.03125 -0.34375 0.046875q-0.171875 0.015625 -0.328125 0.015625q-0.234375 0 -0.421875 -0.046875q-0.1875 -0.0625 -0.3125 -0.1875q-0.125 -0.109375 -0.203125 -0.3125q-0.0625 -0.21875 -0.0625 -0.515625l0 -2.421875l2.09375 0l0 -1.0625l-2.09375 0l0 -1.390625zm7.2541504 7.015625l1.46875 0l0 -0.09375q-0.109375 -0.203125 -0.171875 -0.5q-0.046875 -0.296875 -0.046875 -0.75l0 -2.421875q0 -0.484375 -0.1875 -0.859375q-0.1875 -0.375 -0.5 -0.609375q-0.328125 -0.25 -0.765625 -0.375q-0.4375 -0.125 -0.953125 -0.125q-0.5625 0 -1.0 0.140625q-0.4375 0.140625 -0.75 0.390625q-0.296875 0.25 -0.46875 0.578125q-0.15625 0.3125 -0.15625 0.671875l1.453125 0q0 -0.15625 0.046875 -0.28125q0.046875 -0.125 0.140625 -0.203125q0.09375 -0.109375 0.25 -0.15625q0.171875 -0.0625 0.40625 -0.0625q0.265625 0 0.453125 0.078125q0.203125 0.0625 0.328125 0.171875q0.125 0.125 0.1875 0.28125q0.0625 0.15625 0.0625 0.359375l0 0.328125l-0.8125 0q-0.609375 0 -1.09375 0.109375q-0.484375 0.109375 -0.8125 0.328125q-0.359375 0.234375 -0.546875 0.59375q-0.1875 0.359375 -0.1875 0.828125q0 0.359375 0.140625 0.671875q0.15625 0.3125 0.421875 0.53125q0.25 0.234375 0.609375 0.359375q0.375 0.125 0.796875 0.125q0.265625 0 0.484375 -0.0625q0.234375 -0.046875 0.4375 -0.125q0.1875 -0.09375 0.34375 -0.203125q0.15625 -0.109375 0.265625 -0.25q0.03125 0.15625 0.0625 0.296875q0.046875 0.125 0.09375 0.234375zm-1.375 -1.015625q-0.203125 0 -0.359375 -0.046875q-0.15625 -0.046875 -0.25 -0.140625q-0.109375 -0.078125 -0.171875 -0.203125q-0.046875 -0.140625 -0.046875 -0.28125q0 -0.203125 0.0625 -0.359375q0.078125 -0.171875 0.234375 -0.28125q0.15625 -0.125 0.390625 -0.1875q0.234375 -0.0625 0.578125 -0.0625l0.734375 0l0 0.96875q-0.0625 0.109375 -0.171875 0.21875q-0.109375 0.109375 -0.265625 0.1875q-0.140625 0.078125 -0.328125 0.140625q-0.1875 0.046875 -0.40625 0.046875z" fill-rule="nonzero"/><path fill="#000000" fill-opacity="0.0" d="m378.389 278.33554l43.62204 -0.3779602" fill-rule="evenodd"/><path stroke="#000000" stroke-width="2.0" stroke-linejoin="round" stroke-linecap="butt" d="m378.389 278.33554l43.62204 -0.3779602" fill-rule="evenodd"/><path fill="#4a9fea" d="m628.75385 214.15004l170.17328 0l0 42.740158l-170.17328 0z" fill-rule="evenodd"/><path fill="#ffffff" d="m693.90845 236.77324l1.78125 3.546875l1.96875 0l0 -0.078125l-2.046875 -3.921875q0.390625 -0.171875 0.703125 -0.40625q0.328125 -0.25 0.546875 -0.578125q0.234375 -0.3125 0.34375 -0.71875q0.125 -0.40625 0.125 -0.921875q0 -0.703125 -0.25 -1.234375q-0.234375 -0.53125 -0.6875 -0.890625q-0.453125 -0.359375 -1.09375 -0.53125q-0.640625 -0.1875 -1.421875 -0.1875l-3.171875 0l0 9.46875l1.828125 0l0 -3.546875l1.375 0zm-1.375 -1.484375l0 -2.953125l1.34375 0q0.375 0 0.65625 0.09375q0.296875 0.078125 0.5 0.25q0.234375 0.1875 0.34375 0.484375q0.125 0.28125 0.125 0.65625q0 0.3125 -0.09375 0.578125q-0.09375 0.25 -0.265625 0.421875q-0.1875 0.234375 -0.515625 0.359375q-0.328125 0.109375 -0.75 0.109375l-1.34375 0zm9.638794 5.15625q1.03125 0 1.78125 -0.390625q0.75 -0.390625 1.09375 -0.890625l-0.90625 -0.96875q-0.3125 0.40625 -0.8125 0.609375q-0.5 0.1875 -1.046875 0.1875q-0.375 0 -0.703125 -0.109375q-0.3125 -0.125 -0.546875 -0.328125q-0.25 -0.21875 -0.390625 -0.46875q-0.140625 -0.265625 -0.234375 -0.6875l0 -0.015625l4.78125 0l0 -0.765625q0 -0.78125 -0.21875 -1.421875q-0.21875 -0.640625 -0.625 -1.09375q-0.421875 -0.453125 -1.015625 -0.703125q-0.59375 -0.25 -1.359375 -0.25q-0.734375 0 -1.359375 0.265625q-0.625 0.265625 -1.078125 0.75q-0.453125 0.484375 -0.703125 1.15625q-0.25 0.65625 -0.25 1.46875l0 0.25q0 0.71875 0.25 1.34375q0.265625 0.609375 0.734375 1.078125q0.46875 0.453125 1.125 0.71875q0.671875 0.265625 1.484375 0.265625zm-0.203125 -5.828125q0.34375 0 0.59375 0.109375q0.265625 0.09375 0.453125 0.28125q0.1875 0.1875 0.28125 0.453125q0.109375 0.25 0.109375 0.53125l0 0.140625l-2.96875 0q0.0625 -0.34375 0.1875 -0.625q0.140625 -0.28125 0.34375 -0.484375q0.1875 -0.203125 0.4375 -0.296875q0.25 -0.109375 0.5625 -0.109375zm4.810669 8.40625l1.8125 0l0 -3.3125q0.125 0.140625 0.265625 0.25q0.140625 0.109375 0.28125 0.203125q0.25 0.140625 0.546875 0.203125q0.296875 0.078125 0.65625 0.078125q0.65625 0 1.171875 -0.265625q0.515625 -0.28125 0.875 -0.75q0.34375 -0.484375 0.515625 -1.140625q0.1875 -0.65625 0.1875 -1.421875l0 -0.140625q0 -0.796875 -0.1875 -1.453125q-0.171875 -0.671875 -0.53125 -1.140625q-0.34375 -0.46875 -0.859375 -0.71875q-0.515625 -0.265625 -1.1875 -0.265625q-0.328125 0 -0.609375 0.078125q-0.28125 0.0625 -0.515625 0.1875q-0.203125 0.09375 -0.375 0.234375q-0.15625 0.140625 -0.296875 0.3125l-0.078125 -0.6875l-1.671875 0l0 9.75zm4.5 -6.296875l0 0.140625q0 0.4375 -0.078125 0.828125q-0.078125 0.375 -0.25 0.671875q-0.171875 0.296875 -0.4375 0.46875q-0.265625 0.15625 -0.65625 0.15625q-0.234375 0 -0.4375 -0.046875q-0.1875 -0.046875 -0.34375 -0.140625q-0.15625 -0.09375 -0.28125 -0.21875q-0.109375 -0.140625 -0.203125 -0.3125l0 -2.9375q0.09375 -0.1875 0.21875 -0.328125q0.125 -0.140625 0.296875 -0.21875q0.15625 -0.078125 0.328125 -0.125q0.1875 -0.046875 0.40625 -0.046875q0.390625 0 0.65625 0.171875q0.265625 0.15625 0.453125 0.4375q0.15625 0.28125 0.234375 0.671875q0.09375 0.390625 0.09375 0.828125zm3.232605 0.015625l0 0.125q0 0.78125 0.21875 1.4375q0.21875 0.65625 0.65625 1.125q0.421875 0.484375 1.03125 0.765625q0.625 0.265625 1.421875 0.265625q0.796875 0 1.40625 -0.265625q0.625 -0.28125 1.046875 -0.765625q0.421875 -0.46875 0.640625 -1.125q0.21875 -0.65625 0.21875 -1.4375l0 -0.125q0 -0.78125 -0.21875 -1.421875q-0.21875 -0.65625 -0.640625 -1.140625q-0.4375 -0.484375 -1.0625 -0.75q-0.609375 -0.28125 -1.40625 -0.28125q-0.78125 0 -1.40625 0.28125q-0.609375 0.265625 -1.03125 0.75q-0.4375 0.484375 -0.65625 1.140625q-0.21875 0.640625 -0.21875 1.421875zm1.8125 0.125l0 -0.125q0 -0.4375 0.078125 -0.8125q0.09375 -0.390625 0.265625 -0.6875q0.1875 -0.296875 0.46875 -0.453125q0.28125 -0.171875 0.6875 -0.171875q0.421875 0 0.703125 0.171875q0.28125 0.15625 0.46875 0.453125q0.171875 0.296875 0.25 0.6875q0.09375 0.375 0.09375 0.8125l0 0.125q0 0.453125 -0.09375 0.84375q-0.078125 0.375 -0.25 0.65625q-0.1875 0.296875 -0.46875 0.46875q-0.28125 0.171875 -0.6875 0.171875q-0.40625 0 -0.703125 -0.171875q-0.28125 -0.171875 -0.46875 -0.46875q-0.171875 -0.28125 -0.265625 -0.65625q-0.078125 -0.390625 -0.078125 -0.84375zm11.482544 -3.71875q-0.703125 0 -1.3125 0.34375q-0.59375 0.34375 -1.015625 0.9375l-0.015625 -0.15625l-0.078125 -1.0l-1.671875 0l0 7.046875l1.796875 0l0 -4.234375q0.125 -0.296875 0.3125 -0.515625q0.1875 -0.21875 0.453125 -0.359375q0.234375 -0.125 0.515625 -0.1875q0.28125 -0.0625 0.625 -0.0625q0.34375 0 0.71875 0.046875q0.375 0.03125 0.734375 0.125l0.265625 -1.8125q-0.21875 -0.0625 -0.5625 -0.109375q-0.34375 -0.0625 -0.765625 -0.0625zm6.263794 -1.59375l-1.8125 0l0 1.71875l-1.609375 0l0 1.34375l1.609375 0l0 3.203125q0 0.6875 0.1875 1.1875q0.1875 0.5 0.515625 0.8125q0.34375 0.328125 0.8125 0.484375q0.46875 0.15625 1.046875 0.15625q0.296875 0 0.609375 -0.03125q0.3125 -0.03125 0.59375 -0.078125q0.28125 -0.0625 0.53125 -0.140625q0.265625 -0.078125 0.453125 -0.1875l-0.171875 -1.25q-0.125 0.03125 -0.296875 0.078125q-0.171875 0.03125 -0.375 0.046875q-0.203125 0.03125 -0.421875 0.0625q-0.21875 0.015625 -0.421875 0.015625q-0.28125 0 -0.515625 -0.0625q-0.234375 -0.078125 -0.390625 -0.234375q-0.171875 -0.140625 -0.265625 -0.390625q-0.078125 -0.265625 -0.078125 -0.65625l0 -3.015625l2.625 0l0 -1.34375l-2.625 0l0 -1.71875z" fill-rule="nonzero"/><path fill="#000000" fill-opacity="0.0" d="m713.8405 214.15004c0 -51.905518 -167.7323 -103.81103 -335.4646 -103.81103" fill-rule="evenodd"/><path stroke="#000000" stroke-width="2.0" stroke-linejoin="round" stroke-linecap="butt" d="m713.8405 214.15004c0 -51.905518 -167.7323 -103.81103 -335.4646 -103.81103" fill-rule="evenodd"/><path fill="#000000" fill-opacity="0.0" d="m581.47876 235.9979c11.818909 0 17.728394 -0.118118286 23.637817 -0.23622131c5.909424 -0.118118286 11.818909 -0.23622131 23.637817 -0.23622131" fill-rule="evenodd"/><path stroke="#000000" stroke-width="2.0" stroke-linejoin="round" stroke-linecap="butt" d="m581.47876 235.9979c11.818909 0 17.728394 -0.118118286 23.637817 -0.23622131c5.909424 -0.118118286 11.818909 -0.23622131 23.637817 -0.23622131" fill-rule="evenodd"/><path fill="#000000" fill-opacity="0.0" d="m208.2153 110.334404c-9.782074 0 -14.674377 0.01574707 -19.564148 0.03149414c-4.8897552 0.01574707 -9.776978 0.03149414 -19.55397 0.03149414" fill-rule="evenodd"/><path stroke="#000000" stroke-width="2.0" stroke-linejoin="round" stroke-linecap="butt" d="m208.2153 110.334404c-9.782074 0 -14.674377 0.01574707 -19.564148 0.03149414c-4.8897552 0.01574707 -9.776978 0.03149414 -19.55397 0.03149414" fill-rule="evenodd"/><path fill="#4a9fea" d="m-1.0750163 170.72925l170.17322 0l0 215.21259l-170.17322 0z" fill-rule="evenodd"/><path fill="#ffffff" d="m65.78267 190.06049q0 0.25 -0.109375 0.46875q-0.09375 0.203125 -0.28125 0.359375q-0.203125 0.140625 -0.484375 0.234375q-0.28125 0.078125 -0.640625 0.078125q-0.4218712 0 -0.7656212 -0.09375q-0.328125 -0.09375 -0.578125 -0.28125q-0.25 -0.203125 -0.390625 -0.5q-0.125 -0.3125 -0.140625 -0.734375l-1.796875 0q0 0.734375 0.28125 1.28125q0.28125 0.546875 0.78125 0.953125q0.5 0.40625 1.1875 0.625q0.703125 0.203125 1.4218712 0.203125q0.71875 0 1.328125 -0.171875q0.609375 -0.171875 1.046875 -0.515625q0.453125 -0.328125 0.703125 -0.8125q0.25 -0.484375 0.25 -1.109375q0 -0.71875 -0.34375 -1.265625q-0.328125 -0.5625 -0.875 -0.984375q-0.375 -0.25 -0.828125 -0.4375q-0.4375 -0.203125 -0.921875 -0.34375q-0.453125 -0.125 -0.8281212 -0.265625q-0.359375 -0.140625 -0.609375 -0.3125q-0.25 -0.171875 -0.390625 -0.390625q-0.125 -0.21875 -0.125 -0.484375q0 -0.25 0.09375 -0.46875q0.109375 -0.21875 0.296875 -0.375q0.203125 -0.15625 0.484375 -0.234375q0.28125 -0.09375 0.6406212 -0.09375q0.40625 0 0.703125 0.109375q0.296875 0.09375 0.5 0.28125q0.1875 0.203125 0.28125 0.46875q0.109375 0.265625 0.125 0.578125l1.78125 0q0 -0.625 -0.25 -1.15625q-0.25 -0.546875 -0.6875 -0.9375q-0.4375 -0.375 -1.0625 -0.59375q-0.609375 -0.21875 -1.359375 -0.21875q-0.7031212 0 -1.3281212 0.1875q-0.609375 0.1875 -1.046875 0.53125q-0.453125 0.34375 -0.71875 0.84375q-0.25 0.484375 -0.25 1.078125q0 0.515625 0.1875 0.96875q0.203125 0.4375 0.578125 0.796875q0.375 0.375 0.96875 0.6875q0.609375 0.296875 1.3906212 0.5q0.5 0.140625 0.84375 0.3125q0.34375 0.15625 0.5625 0.34375q0.203125 0.1875 0.28125 0.40625q0.09375 0.21875 0.09375 0.484375zm2.9044342 -1.109375l0 0.125q0 0.78125 0.21875 1.4375q0.21875 0.65625 0.65625 1.125q0.421875 0.484375 1.03125 0.765625q0.625 0.265625 1.421875 0.265625q0.796875 0 1.40625 -0.265625q0.625 -0.28125 1.046875 -0.765625q0.421875 -0.46875 0.640625 -1.125q0.21875 -0.65625 0.21875 -1.4375l0 -0.125q0 -0.78125 -0.21875 -1.421875q-0.21875 -0.65625 -0.640625 -1.140625q-0.4375 -0.484375 -1.0625 -0.75q-0.609375 -0.28125 -1.40625 -0.28125q-0.78125 0 -1.40625 0.28125q-0.609375 0.265625 -1.03125 0.75q-0.4375 0.484375 -0.65625 1.140625q-0.21875 0.640625 -0.21875 1.421875zm1.8125 0.125l0 -0.125q0 -0.4375 0.078125 -0.8125q0.09375 -0.390625 0.265625 -0.6875q0.1875 -0.296875 0.46875 -0.453125q0.28125 -0.171875 0.6875 -0.171875q0.421875 0 0.703125 0.171875q0.28125 0.15625 0.46875 0.453125q0.171875 0.296875 0.25 0.6875q0.09375 0.375 0.09375 0.8125l0 0.125q0 0.453125 -0.09375 0.84375q-0.078125 0.375 -0.25 0.65625q-0.1875 0.296875 -0.46875 0.46875q-0.28125 0.171875 -0.6875 0.171875q-0.40625 0 -0.703125 -0.171875q-0.28125 -0.171875 -0.46875 -0.46875q-0.171875 -0.28125 -0.265625 -0.65625q-0.078125 -0.390625 -0.078125 -0.84375zm11.029434 3.453125l1.640625 0l0 -7.046875l-1.8125 0l0 4.9375q-0.09375 0.171875 -0.21875 0.3125q-0.109375 0.140625 -0.25 0.234375q-0.1875 0.109375 -0.421875 0.171875q-0.21875 0.0625 -0.515625 0.0625q-0.3125 0 -0.53125 -0.078125q-0.21875 -0.078125 -0.359375 -0.265625q-0.140625 -0.171875 -0.203125 -0.46875q-0.0625 -0.296875 -0.0625 -0.71875l0 -4.1875l-1.8125 0l0 4.171875q0 0.796875 0.171875 1.375q0.1875 0.5625 0.515625 0.921875q0.328125 0.375 0.78125 0.546875q0.453125 0.171875 1.0 0.171875q0.609375 0 1.109375 -0.296875q0.5 -0.3125 0.859375 -0.828125l0.109375 0.984375zm8.451309 -7.171875q-0.703125 0 -1.3125 0.34375q-0.59375 0.34375 -1.015625 0.9375l-0.015625 -0.15625l-0.078125 -1.0l-1.671875 0l0 7.046875l1.796875 0l0 -4.234375q0.125 -0.296875 0.3125 -0.515625q0.1875 -0.21875 0.453125 -0.359375q0.234375 -0.125 0.515625 -0.1875q0.28125 -0.0625 0.625 -0.0625q0.34375 0 0.71875 0.046875q0.375 0.03125 0.734375 0.125l0.265625 -1.8125q-0.21875 -0.0625 -0.5625 -0.109375q-0.34375 -0.0625 -0.765625 -0.0625zm6.060684 5.859375q-0.4375 0 -0.71875 -0.171875q-0.28125 -0.1875 -0.4375 -0.46875q-0.171875 -0.296875 -0.234375 -0.671875q-0.0625 -0.375 -0.0625 -0.796875l0 -0.1875q0 -0.40625 0.0625 -0.78125q0.0625 -0.375 0.234375 -0.671875q0.171875 -0.296875 0.4375 -0.46875q0.28125 -0.171875 0.71875 -0.171875q0.296875 0 0.53125 0.109375q0.25 0.09375 0.421875 0.25q0.1875 0.171875 0.265625 0.40625q0.09375 0.234375 0.09375 0.5l1.703125 0q0 -0.625 -0.21875 -1.125q-0.21875 -0.515625 -0.609375 -0.875q-0.40625 -0.34375 -0.96875 -0.53125q-0.546875 -0.203125 -1.203125 -0.203125q-0.8125 0 -1.421875 0.28125q-0.609375 0.28125 -1.03125 0.765625q-0.421875 0.46875 -0.625 1.125q-0.203125 0.640625 -0.203125 1.390625l0 0.1875q0 0.75 0.203125 1.40625q0.21875 0.640625 0.625 1.125q0.421875 0.46875 1.03125 0.75q0.625 0.28125 1.4375 0.28125q0.609375 0 1.15625 -0.1875q0.546875 -0.203125 0.953125 -0.53125q0.40625 -0.34375 0.640625 -0.8125q0.234375 -0.46875 0.234375 -1.015625l-1.703125 0q0 0.25 -0.109375 0.453125q-0.09375 0.203125 -0.265625 0.34375q-0.1875 0.140625 -0.4375 0.21875q-0.234375 0.078125 -0.5 0.078125zm8.295059 1.4375q1.03125 0 1.78125 -0.390625q0.75 -0.390625 1.09375 -0.890625l-0.90625 -0.96875q-0.3125 0.40625 -0.8125 0.609375q-0.5 0.1875 -1.046875 0.1875q-0.375 0 -0.703125 -0.109375q-0.3125 -0.125 -0.546875 -0.328125q-0.25 -0.21875 -0.390625 -0.46875q-0.140625 -0.265625 -0.234375 -0.6875l0 -0.015625l4.78125 0l0 -0.765625q0 -0.78125 -0.21875 -1.421875q-0.21875 -0.640625 -0.625 -1.09375q-0.421875 -0.453125 -1.015625 -0.703125q-0.59375 -0.25 -1.359375 -0.25q-0.734375 0 -1.359375 0.265625q-0.625 0.265625 -1.078125 0.75q-0.453125 0.484375 -0.703125 1.15625q-0.25 0.65625 -0.25 1.46875l0 0.25q0 0.71875 0.25 1.34375q0.265625 0.609375 0.734375 1.078125q0.46875 0.453125 1.125 0.71875q0.671875 0.265625 1.484375 0.265625zm-0.203125 -5.828125q0.34375 0 0.59375 0.109375q0.265625 0.09375 0.453125 0.28125q0.1875 0.1875 0.28125 0.453125q0.109375 0.25 0.109375 0.53125l0 0.140625l-2.96875 0q0.0625 -0.34375 0.1875 -0.625q0.140625 -0.28125 0.34375 -0.484375q0.1875 -0.203125 0.4375 -0.296875q0.25 -0.109375 0.5625 -0.109375z" fill-rule="nonzero"/><path fill="#e4f0fb" d="m13.166116 311.0036l143.46455 0l0 63.968506l-143.46455 0z" fill-rule="evenodd"/><path stroke="#1e88e5" stroke-width="1.0" stroke-linejoin="round" stroke-linecap="butt" d="m13.166116 311.0036l143.46455 0l0 63.968506l-143.46455 0z" fill-rule="evenodd"/><path fill="#4a9fea" d="m62.67038 345.3191q0 0.25 -0.109375 0.46875q-0.09375 0.203125 -0.28125 0.359375q-0.203125 0.140625 -0.484375 0.234375q-0.28125 0.078125 -0.640625 0.078125q-0.421875 0 -0.765625 -0.09375q-0.328125 -0.09375 -0.578125 -0.28125q-0.25 -0.203125 -0.390625 -0.5q-0.125 -0.3125 -0.140625 -0.734375l-1.796875 0q0 0.734375 0.28125 1.28125q0.28125 0.546875 0.78125 0.953125q0.5 0.40625 1.1875 0.625q0.703125 0.203125 1.421875 0.203125q0.71875 0 1.328125 -0.171875q0.609375 -0.171875 1.046875 -0.515625q0.453125 -0.328125 0.703125 -0.8125q0.25 -0.484375 0.25 -1.109375q0 -0.71875 -0.34375 -1.265625q-0.328125 -0.5625 -0.875 -0.984375q-0.375 -0.25 -0.828125 -0.4375q-0.4375 -0.203125 -0.921875 -0.34375q-0.453125 -0.125 -0.828125 -0.265625q-0.359375 -0.140625 -0.609375 -0.3125q-0.25 -0.171875 -0.390625 -0.390625q-0.125 -0.21875 -0.125 -0.484375q0 -0.25 0.09375 -0.46875q0.109375 -0.21875 0.296875 -0.375q0.203125 -0.15625 0.484375 -0.234375q0.28125 -0.09375 0.640625 -0.09375q0.40625 0 0.703125 0.109375q0.296875 0.09375 0.5 0.28125q0.1875 0.203125 0.28125 0.46875q0.109375 0.265625 0.125 0.578125l1.78125 0q0 -0.625 -0.25 -1.15625q-0.25 -0.546875 -0.6875 -0.9375q-0.4375 -0.375 -1.0625 -0.59375q-0.609375 -0.21875 -1.359375 -0.21875q-0.703125 0 -1.328125 0.1875q-0.609375 0.1875 -1.046875 0.53125q-0.453125 0.34375 -0.71875 0.84375q-0.25 0.484375 -0.25 1.078125q0 0.515625 0.1875 0.96875q0.203125 0.4375 0.578125 0.796875q0.375 0.375 0.96875 0.6875q0.609375 0.296875 1.390625 0.5q0.5 0.140625 0.84375 0.3125q0.34375 0.15625 0.5625 0.34375q0.203125 0.1875 0.28125 0.40625q0.09375 0.21875 0.09375 0.484375zm6.466934 -6.296875l-1.8125 0l0 1.71875l-1.609375 0l0 1.34375l1.609375 0l0 3.203125q0 0.6875 0.1875 1.1875q0.1875 0.5 0.515625 0.8125q0.34375 0.328125 0.8125 0.484375q0.46875 0.15625 1.046875 0.15625q0.296875 0 0.609375 -0.03125q0.3125 -0.03125 0.59375 -0.078125q0.28125 -0.0625 0.53125 -0.140625q0.265625 -0.078125 0.453125 -0.1875l-0.171875 -1.25q-0.125 0.03125 -0.296875 0.078125q-0.171875 0.03125 -0.375 0.046875q-0.203125 0.03125 -0.421875 0.0625q-0.21875 0.015625 -0.421875 0.015625q-0.28125 0 -0.515625 -0.0625q-0.234375 -0.078125 -0.390625 -0.234375q-0.171875 -0.140625 -0.265625 -0.390625q-0.078125 -0.265625 -0.078125 -0.65625l0 -3.015625l2.625 0l0 -1.34375l-2.625 0l0 -1.71875zm4.435684 5.1875l0 0.125q0 0.78125 0.21875 1.4375q0.21875 0.65625 0.65625 1.125q0.421875 0.484375 1.03125 0.765625q0.625 0.265625 1.421875 0.265625q0.796875 0 1.40625 -0.265625q0.625 -0.28125 1.046875 -0.765625q0.421875 -0.46875 0.640625 -1.125q0.21875 -0.65625 0.21875 -1.4375l0 -0.125q0 -0.78125 -0.21875 -1.421875q-0.21875 -0.65625 -0.640625 -1.140625q-0.4375 -0.484375 -1.0625 -0.75q-0.609375 -0.28125 -1.40625 -0.28125q-0.78125 0 -1.40625 0.28125q-0.609375 0.265625 -1.03125 0.75q-0.4375 0.484375 -0.65625 1.140625q-0.21875 0.640625 -0.21875 1.421875zm1.8125 0.125l0 -0.125q0 -0.4375 0.078125 -0.8125q0.09375 -0.390625 0.265625 -0.6875q0.1875 -0.296875 0.46875 -0.453125q0.28125 -0.171875 0.6875 -0.171875q0.421875 0 0.703125 0.171875q0.28125 0.15625 0.46875 0.453125q0.171875 0.296875 0.25 0.6875q0.09375 0.375 0.09375 0.8125l0 0.125q0 0.453125 -0.09375 0.84375q-0.078125 0.375 -0.25 0.65625q-0.1875 0.296875 -0.46875 0.46875q-0.28125 0.171875 -0.6875 0.171875q-0.40625 0 -0.703125 -0.171875q-0.28125 -0.171875 -0.46875 -0.46875q-0.171875 -0.28125 -0.265625 -0.65625q-0.078125 -0.390625 -0.078125 -0.84375zm11.482559 -3.71875q-0.703125 0 -1.3125 0.34375q-0.59375 0.34375 -1.015625 0.9375l-0.015625 -0.15625l-0.078125 -1.0l-1.671875 0l0 7.046875l1.796875 0l0 -4.234375q0.125 -0.296875 0.3125 -0.515625q0.1875 -0.21875 0.453125 -0.359375q0.234375 -0.125 0.515625 -0.1875q0.28125 -0.0625 0.625 -0.0625q0.34375 0 0.71875 0.046875q0.375 0.03125 0.734375 0.125l0.265625 -1.8125q-0.21875 -0.0625 -0.5625 -0.109375q-0.34375 -0.0625 -0.765625 -0.0625zm7.341934 7.171875l1.84375 0l0 -0.109375q-0.140625 -0.265625 -0.21875 -0.640625q-0.0625 -0.375 -0.0625 -0.9375l0 -3.015625q0 -0.609375 -0.234375 -1.078125q-0.21875 -0.46875 -0.625 -0.765625q-0.40625 -0.3125 -0.953125 -0.46875q-0.546875 -0.15625 -1.1875 -0.15625q-0.71875 0 -1.265625 0.1875q-0.546875 0.171875 -0.921875 0.46875q-0.390625 0.3125 -0.59375 0.71875q-0.1875 0.40625 -0.1875 0.84375l1.8125 0q0 -0.1875 0.046875 -0.34375q0.0625 -0.15625 0.171875 -0.265625q0.140625 -0.125 0.34375 -0.1875q0.203125 -0.0625 0.5 -0.0625q0.3125 0 0.5625 0.078125q0.25 0.078125 0.40625 0.234375q0.15625 0.140625 0.234375 0.34375q0.078125 0.1875 0.078125 0.4375l0 0.421875l-1.015625 0q-0.765625 0 -1.375 0.140625q-0.609375 0.140625 -1.015625 0.40625q-0.453125 0.28125 -0.6875 0.734375q-0.21875 0.453125 -0.21875 1.046875q0 0.453125 0.171875 0.84375q0.1875 0.390625 0.515625 0.65625q0.328125 0.28125 0.78125 0.4375q0.453125 0.15625 0.984375 0.15625q0.34375 0 0.625 -0.0625q0.28125 -0.0625 0.53125 -0.171875q0.234375 -0.09375 0.421875 -0.234375q0.203125 -0.15625 0.34375 -0.3125q0.03125 0.1875 0.078125 0.359375q0.046875 0.171875 0.109375 0.296875zm-1.71875 -1.265625q-0.25 0 -0.453125 -0.0625q-0.1875 -0.0625 -0.3125 -0.171875q-0.140625 -0.109375 -0.203125 -0.265625q-0.0625 -0.15625 -0.0625 -0.34375q0 -0.25 0.078125 -0.453125q0.09375 -0.203125 0.28125 -0.359375q0.203125 -0.140625 0.5 -0.21875q0.296875 -0.078125 0.71875 -0.078125l0.921875 0l0 1.203125q-0.078125 0.140625 -0.21875 0.28125q-0.125 0.125 -0.328125 0.234375q-0.1875 0.09375 -0.421875 0.171875q-0.234375 0.0625 -0.5 0.0625zm5.138809 -2.3125l0 0.140625q0 0.765625 0.1875 1.421875q0.203125 0.65625 0.578125 1.125q0.375 0.484375 0.890625 0.75q0.53125 0.265625 1.1875 0.265625q0.328125 0 0.609375 -0.078125q0.296875 -0.0625 0.546875 -0.1875q0.15625 -0.09375 0.296875 -0.203125q0.15625 -0.125 0.28125 -0.265625l0 0.40625q0 0.359375 -0.109375 0.640625q-0.09375 0.28125 -0.28125 0.484375q-0.203125 0.203125 -0.515625 0.3125q-0.3125 0.125 -0.703125 0.125q-0.25 0 -0.484375 -0.0625q-0.234375 -0.046875 -0.453125 -0.140625q-0.21875 -0.09375 -0.421875 -0.25q-0.203125 -0.15625 -0.375 -0.359375l-0.8125 1.109375q0.234375 0.296875 0.546875 0.5q0.328125 0.21875 0.671875 0.34375q0.359375 0.140625 0.71875 0.203125q0.375 0.0625 0.6875 0.0625q0.75 0 1.359375 -0.203125q0.625 -0.1875 1.0625 -0.578125q0.4375 -0.375 0.671875 -0.9375q0.25 -0.5625 0.25 -1.28125l0 -6.8125l-1.640625 0l-0.078125 0.671875q-0.125 -0.15625 -0.28125 -0.28125q-0.15625 -0.140625 -0.34375 -0.234375q-0.234375 -0.140625 -0.53125 -0.203125q-0.296875 -0.078125 -0.65625 -0.078125q-0.671875 0 -1.203125 0.265625q-0.515625 0.25 -0.890625 0.734375q-0.375 0.46875 -0.578125 1.140625q-0.1875 0.65625 -0.1875 1.453125zm1.8125 0.140625l0 -0.140625q0 -0.4375 0.09375 -0.828125q0.09375 -0.390625 0.28125 -0.671875q0.1875 -0.296875 0.453125 -0.453125q0.28125 -0.171875 0.671875 -0.171875q0.203125 0 0.375 0.046875q0.1875 0.03125 0.34375 0.109375q0.171875 0.078125 0.3125 0.21875q0.140625 0.140625 0.234375 0.3125l0 2.984375q-0.09375 0.15625 -0.21875 0.296875q-0.125 0.125 -0.28125 0.21875q-0.15625 0.078125 -0.359375 0.125q-0.1875 0.046875 -0.421875 0.046875q-0.375 0 -0.65625 -0.15625q-0.28125 -0.171875 -0.46875 -0.453125q-0.171875 -0.28125 -0.265625 -0.65625q-0.09375 -0.390625 -0.09375 -0.828125zm9.779434 3.5625q1.03125 0 1.78125 -0.390625q0.75 -0.390625 1.09375 -0.890625l-0.90625 -0.96875q-0.3125 0.40625 -0.8125 0.609375q-0.5 0.1875 -1.046875 0.1875q-0.375 0 -0.703125 -0.109375q-0.3125 -0.125 -0.546875 -0.328125q-0.25 -0.21875 -0.390625 -0.46875q-0.140625 -0.265625 -0.234375 -0.6875l0 -0.015625l4.78125 0l0 -0.765625q0 -0.78125 -0.21875 -1.421875q-0.21875 -0.640625 -0.625 -1.09375q-0.421875 -0.453125 -1.015625 -0.703125q-0.59375 -0.25 -1.359375 -0.25q-0.734375 0 -1.359375 0.265625q-0.625 0.265625 -1.078125 0.75q-0.453125 0.484375 -0.703125 1.15625q-0.25 0.65625 -0.25 1.46875l0 0.25q0 0.71875 0.25 1.34375q0.265625 0.609375 0.734375 1.078125q0.46875 0.453125 1.125 0.71875q0.671875 0.265625 1.484375 0.265625zm-0.203125 -5.828125q0.34375 0 0.59375 0.109375q0.265625 0.09375 0.453125 0.28125q0.1875 0.1875 0.28125 0.453125q0.109375 0.25 0.109375 0.53125l0 0.140625l-2.96875 0q0.0625 -0.34375 0.1875 -0.625q0.140625 -0.28125 0.34375 -0.484375q0.1875 -0.203125 0.4375 -0.296875q0.25 -0.109375 0.5625 -0.109375z" fill-rule="nonzero"/><path fill="#000000" fill-opacity="0.0" d="m156.63068 342.98785l51.59056 -64.66144" fill-rule="evenodd"/><path stroke="#000000" stroke-width="2.0" stroke-linejoin="round" stroke-linecap="butt" d="m156.63068 342.98785l51.59056 -64.66144" fill-rule="evenodd"/><path fill="#000000" fill-opacity="0.0" d="m169.0982 278.33554l39.11812 0" fill-rule="evenodd"/><path stroke="#000000" stroke-width="2.0" stroke-linejoin="round" stroke-linecap="butt" d="m169.0982 278.33554l39.11812 0" fill-rule="evenodd"/><path fill="#000000" fill-opacity="0.0" d="m84.01049 131.70448l0 39.02362" fill-rule="evenodd"/><path stroke="#000000" stroke-width="2.0" stroke-linejoin="round" stroke-linecap="butt" d="m84.01049 131.70448l0 39.02362" fill-rule="evenodd"/><path fill="#000000" fill-opacity="0.0" d="m713.8405 214.15004c0 -92.3937 -167.7323 -184.7874 -335.4646 -184.7874" fill-rule="evenodd"/><path stroke="#000000" stroke-width="2.0" stroke-linejoin="round" stroke-linecap="butt" d="m713.8405 214.15004c0 -92.3937 -167.7323 -184.7874 -335.4646 -184.7874" fill-rule="evenodd"/><path fill="#000000" fill-opacity="0.0" d="m84.01049 88.964325c0 -29.795277 62.110237 -59.590553 124.22048 -59.590553" fill-rule="evenodd"/><path stroke="#000000" stroke-width="2.0" stroke-linejoin="round" stroke-linecap="butt" d="m84.01049 88.964325c0 -29.795277 62.110237 -59.590553 124.22048 -59.590553" fill-rule="evenodd"/></g></svg>