<?xml version="1.0" encoding="UTF-8"?>
<svg xmlns="http://www.w3.org/2000/svg" xmlns:xlink="http://www.w3.org/1999/xlink" width="43px" height="32px" viewBox="0 0 42 32" version="1.1">
<g id="surface1">
<path style=" stroke:none;fill-rule:nonzero;fill:rgb(25.882354%,52.156866%,95.686275%);fill-opacity:1;" d="M 2.863281 32 L 9.546875 32 L 9.546875 15.515625 L 0 8.242188 L 0 29.089844 C 0 30.699219 1.285156 32 2.863281 32 "/>
<path style=" stroke:none;fill-rule:nonzero;fill:rgb(20.392157%,65.882355%,32.549021%);fill-opacity:1;" d="M 32.453125 32 L 39.136719 32 C 40.722656 32 42 30.695312 42 29.089844 L 42 8.242188 L 32.453125 15.515625 "/>
<path style=" stroke:none;fill-rule:nonzero;fill:rgb(98.431373%,73.725492%,1.568628%);fill-opacity:1;" d="M 32.453125 2.910156 L 32.453125 15.515625 L 42 8.242188 L 42 4.363281 C 42 0.765625 37.957031 -1.285156 35.128906 0.871094 "/>
<path style=" stroke:none;fill-rule:nonzero;fill:rgb(91.764706%,26.274511%,20.784314%);fill-opacity:1;" d="M 9.546875 15.515625 L 9.546875 2.910156 L 21 11.636719 L 32.453125 2.910156 L 32.453125 15.515625 L 21 24.242188 "/>
<path style=" stroke:none;fill-rule:nonzero;fill:rgb(77.254903%,13.333334%,12.156863%);fill-opacity:1;" d="M 0 4.363281 L 0 8.242188 L 9.546875 15.515625 L 9.546875 2.910156 L 6.871094 0.871094 C 4.039062 -1.285156 0 0.765625 0 4.363281 "/>
</g>
</svg>
