<?xml version="1.0" encoding="UTF-8"?>
<svg xmlns="http://www.w3.org/2000/svg" xmlns:xlink="http://www.w3.org/1999/xlink" width="23px" height="24px" viewBox="0 0 23 23" version="1.1">
<g id="surface1">
<path style="fill:none;stroke-width:2;stroke-linecap:butt;stroke-linejoin:miter;stroke:rgb(49.411765%,56.862748%,43.529412%);stroke-opacity:1;stroke-miterlimit:4;" d="M 76.376698 0.48913 L 76.376698 76.956522 " transform="matrix(0.073955,0,0,0.071875,0,0)"/>
<path style="fill:none;stroke-width:2;stroke-linecap:butt;stroke-linejoin:miter;stroke:rgb(7.450981%,45.882353%,92.156863%);stroke-opacity:1;stroke-miterlimit:4;" d="M 76.376698 76.956522 L 0 76.956522 " transform="matrix(0.073955,0,0,0.071875,0,0)"/>
<path style="fill:none;stroke-width:2;stroke-linecap:butt;stroke-linejoin:miter;stroke:rgb(95.294118%,50.196081%,11.372549%);stroke-opacity:1;stroke-miterlimit:4;" d="M 235.098675 1.086957 C 234.993037 1.141304 234.887398 1.195652 234.834579 1.195652 C 234.676121 1.304348 234.623302 1.358696 234.623302 1.521739 L 234.623302 77.01087 " transform="matrix(0.073955,0,0,0.071875,0,0)"/>
<path style="fill:none;stroke-width:2;stroke-linecap:butt;stroke-linejoin:miter;stroke:rgb(49.411765%,70.588237%,14.901961%);stroke-opacity:1;stroke-miterlimit:4;" d="M 234.623302 77.01087 C 234.623302 77.01087 234.570482 77.01087 234.570482 77.01087 " transform="matrix(0.073955,0,0,0.071875,0,0)"/>
<path style="fill:none;stroke-width:2;stroke-linecap:butt;stroke-linejoin:miter;stroke:rgb(56.862748%,62.7451%,50.196081%);stroke-opacity:1;stroke-miterlimit:4;" d="M 76.429518 77.01087 C 76.429518 77.01087 76.376698 77.01087 76.376698 76.956522 " transform="matrix(0.073955,0,0,0.071875,0,0)"/>
<path style="fill:none;stroke-width:2;stroke-linecap:butt;stroke-linejoin:miter;stroke:rgb(45.882353%,47.058824%,24.313726%);stroke-opacity:1;stroke-miterlimit:4;" d="M 310.524626 76.793478 L 234.623302 77.01087 " transform="matrix(0.073955,0,0,0.071875,0,0)"/>
<path style="fill:none;stroke-width:2;stroke-linecap:butt;stroke-linejoin:miter;stroke:rgb(7.450981%,51.764709%,58.431375%);stroke-opacity:1;stroke-miterlimit:4;" d="M 76.429518 182.663043 L 0 182.663043 " transform="matrix(0.073955,0,0,0.071875,0,0)"/>
<path style="fill:none;stroke-width:2;stroke-linecap:butt;stroke-linejoin:miter;stroke:rgb(0%,59.607846%,22.745098%);stroke-opacity:1;stroke-miterlimit:4;" d="M 76.429518 259.130435 L 76.429518 220.869565 " transform="matrix(0.073955,0,0,0.071875,0,0)"/>
<path style=" stroke:none;fill-rule:nonzero;fill:rgb(0%,40.000001%,85.490197%);fill-opacity:1;" d="M 5.648438 0.0351562 L 5.648438 5.53125 L 0 5.53125 L 0 1.492188 C 0.0429688 1.207031 0.128906 0.96875 0.261719 0.773438 C 0.585938 0.292969 1.0625 0.0507812 1.683594 0.046875 C 2.996094 0.0429688 4.320312 0.0390625 5.648438 0.0351562 Z M 5.648438 0.0351562 "/>
<path style=" stroke:none;fill-rule:nonzero;fill:rgb(98.431373%,73.725492%,1.568628%);fill-opacity:1;" d="M 5.648438 0.0351562 L 17.289062 0.0390625 C 17.316406 0.0390625 17.339844 0.046875 17.359375 0.0585938 L 17.386719 0.078125 C 17.378906 0.0820312 17.371094 0.0859375 17.367188 0.0859375 C 17.355469 0.09375 17.351562 0.0976562 17.351562 0.109375 L 17.351562 5.535156 C 17.351562 5.535156 17.347656 5.535156 17.347656 5.535156 L 5.652344 5.535156 C 5.652344 5.535156 5.648438 5.535156 5.648438 5.53125 Z M 5.648438 0.0351562 "/>
<path style=" stroke:none;fill-rule:nonzero;fill:rgb(91.764706%,26.274511%,20.784314%);fill-opacity:1;" d="M 17.386719 0.078125 L 22.964844 5.519531 L 17.351562 5.535156 L 17.351562 0.109375 C 17.351562 0.0976562 17.355469 0.09375 17.367188 0.0859375 C 17.371094 0.0859375 17.378906 0.0820312 17.386719 0.078125 Z M 17.386719 0.078125 "/>
<path style=" stroke:none;fill-rule:nonzero;fill:rgb(14.901961%,51.764709%,98.823529%);fill-opacity:1;" d="M 0 5.53125 L 5.648438 5.53125 C 5.648438 5.535156 5.652344 5.535156 5.652344 5.535156 L 5.652344 13.128906 L 0 13.128906 Z M 0 5.53125 "/>
<path style=" stroke:none;fill-rule:nonzero;fill:rgb(0%,67.450982%,27.843139%);fill-opacity:1;" d="M 22.964844 5.519531 L 23 5.542969 L 23 17.179688 C 22.867188 17.875 22.496094 18.324219 21.886719 18.527344 C 21.667969 18.601562 21.347656 18.636719 20.921875 18.636719 C 18.167969 18.632812 15.382812 18.628906 12.570312 18.625 C 12.164062 18.625 11.75 18.625 11.328125 18.632812 C 11.304688 18.632812 11.285156 18.640625 11.269531 18.65625 C 9.894531 19.988281 8.515625 21.328125 7.128906 22.683594 C 6.917969 22.890625 6.675781 23.007812 6.371094 22.960938 C 6.085938 22.921875 5.878906 22.78125 5.742188 22.535156 C 5.6875 22.433594 5.65625 22.242188 5.65625 21.96875 C 5.652344 20.859375 5.652344 19.742188 5.652344 18.625 L 5.652344 15.875 L 8.445312 13.15625 C 8.472656 13.132812 8.503906 13.121094 8.539062 13.121094 L 17.289062 13.125 C 17.324219 13.125 17.351562 13.097656 17.351562 13.0625 L 17.347656 5.535156 C 17.347656 5.535156 17.351562 5.535156 17.351562 5.535156 Z M 22.964844 5.519531 "/>
<path style=" stroke:none;fill-rule:nonzero;fill:rgb(0%,51.372552%,17.647059%);fill-opacity:1;" d="M 5.652344 13.128906 L 5.652344 18.625 C 4.472656 18.632812 3.300781 18.632812 2.136719 18.632812 C 1.652344 18.628906 1.304688 18.59375 1.089844 18.519531 C 0.492188 18.316406 0.128906 17.867188 0 17.167969 L 0 13.128906 Z M 5.652344 13.128906 "/>
</g>
</svg>
