<?xml version="1.0" encoding="UTF-8"?>
<svg xmlns="http://www.w3.org/2000/svg" xmlns:xlink="http://www.w3.org/1999/xlink" width="32px" height="32px" viewBox="0 0 32 32" version="1.1">
<g id="surface1">
<path style=" stroke:none;fill-rule:nonzero;fill:rgb(87.843138%,11.764706%,35.294119%);fill-opacity:1;" d="M 6.855469 20.15625 C 6.855469 21.996094 5.367188 23.484375 3.527344 23.484375 C 1.6875 23.484375 0.203125 21.996094 0.203125 20.15625 C 0.203125 18.316406 1.6875 16.832031 3.527344 16.832031 L 6.855469 16.832031 Z M 8.515625 20.15625 C 8.515625 18.316406 10.003906 16.832031 11.84375 16.832031 C 13.683594 16.832031 15.167969 18.316406 15.167969 20.15625 L 15.167969 28.472656 C 15.167969 30.3125 13.683594 31.796875 11.84375 31.796875 C 10.003906 31.796875 8.515625 30.3125 8.515625 28.472656 Z M 8.515625 20.15625 "/>
<path style=" stroke:none;fill-rule:nonzero;fill:rgb(21.176471%,77.254903%,94.117647%);fill-opacity:1;" d="M 11.84375 6.804688 C 10.003906 6.804688 8.515625 5.316406 8.515625 3.476562 C 8.515625 1.636719 10.003906 0.152344 11.84375 0.152344 C 13.683594 0.152344 15.167969 1.636719 15.167969 3.476562 L 15.167969 6.804688 Z M 11.84375 8.492188 C 13.683594 8.492188 15.167969 9.976562 15.167969 11.816406 C 15.167969 13.65625 13.683594 15.144531 11.84375 15.144531 L 3.503906 15.144531 C 1.664062 15.144531 0.175781 13.65625 0.175781 11.816406 C 0.175781 9.976562 1.664062 8.492188 3.503906 8.492188 Z M 11.84375 8.492188 "/>
<path style=" stroke:none;fill-rule:nonzero;fill:rgb(18.039216%,71.372551%,49.019608%);fill-opacity:1;" d="M 25.171875 11.816406 C 25.171875 9.976562 26.660156 8.492188 28.496094 8.492188 C 30.335938 8.492188 31.824219 9.976562 31.824219 11.816406 C 31.824219 13.65625 30.335938 15.144531 28.496094 15.144531 L 25.171875 15.144531 Z M 23.507812 11.816406 C 23.507812 13.65625 22.023438 15.144531 20.183594 15.144531 C 18.34375 15.144531 16.855469 13.65625 16.855469 11.816406 L 16.855469 3.476562 C 16.855469 1.636719 18.34375 0.152344 20.183594 0.152344 C 22.023438 0.152344 23.507812 1.636719 23.507812 3.476562 Z M 23.507812 11.816406 "/>
<path style=" stroke:none;fill-rule:nonzero;fill:rgb(92.54902%,69.803923%,18.039216%);fill-opacity:1;" d="M 20.183594 25.144531 C 22.023438 25.144531 23.507812 26.632812 23.507812 28.472656 C 23.507812 30.3125 22.023438 31.796875 20.183594 31.796875 C 18.34375 31.796875 16.855469 30.3125 16.855469 28.472656 L 16.855469 25.144531 Z M 20.183594 23.484375 C 18.34375 23.484375 16.855469 21.996094 16.855469 20.15625 C 16.855469 18.316406 18.34375 16.832031 20.183594 16.832031 L 28.523438 16.832031 C 30.363281 16.832031 31.847656 18.316406 31.847656 20.15625 C 31.847656 21.996094 30.363281 23.484375 28.523438 23.484375 Z M 20.183594 23.484375 "/>
</g>
</svg>
