<?xml version="1.0" encoding="UTF-8"?>
<svg xmlns="http://www.w3.org/2000/svg" xmlns:xlink="http://www.w3.org/1999/xlink" width="34px" height="32px" viewBox="0 0 34 32" version="1.1">
<defs>
<filter id="alpha" filterUnits="objectBoundingBox" x="0%" y="0%" width="100%" height="100%">
  <feColorMatrix type="matrix" in="SourceGraphic" values="0 0 0 0 1 0 0 0 0 1 0 0 0 0 1 0 0 0 1 0"/>
</filter>
<mask id="mask0">
  <g filter="url(#alpha)">
<rect x="0" y="0" width="34" height="32" style="fill:rgb(0%,0%,0%);fill-opacity:0.101961;stroke:none;"/>
  </g>
</mask>
<clipPath id="clip1">
  <rect x="0" y="0" width="34" height="32"/>
</clipPath>
<g id="surface5" clip-path="url(#clip1)">
<path style=" stroke:none;fill-rule:nonzero;fill:rgb(0%,0%,0%);fill-opacity:1;" d="M 18.976562 12 L 18.976562 24.9375 C 18.972656 25.527344 18.617188 26.0625 18.074219 26.289062 C 17.902344 26.363281 17.71875 26.398438 17.53125 26.398438 L 10.1875 26.398438 C 10.082031 26.136719 9.988281 25.871094 9.910156 25.601562 C 9.632812 24.683594 9.492188 23.726562 9.488281 22.769531 L 9.488281 13.535156 C 9.472656 12.707031 10.117188 12.019531 10.9375 12 Z M 18.976562 12 "/>
</g>
<mask id="mask1">
  <g filter="url(#alpha)">
<rect x="0" y="0" width="34" height="32" style="fill:rgb(0%,0%,0%);fill-opacity:0.2;stroke:none;"/>
  </g>
</mask>
<clipPath id="clip2">
  <rect x="0" y="0" width="34" height="32"/>
</clipPath>
<g id="surface8" clip-path="url(#clip2)">
<path style=" stroke:none;fill-rule:nonzero;fill:rgb(0%,0%,0%);fill-opacity:1;" d="M 18.1875 12 L 18.1875 25.734375 C 18.1875 25.925781 18.148438 26.113281 18.074219 26.289062 C 17.851562 26.835938 17.324219 27.195312 16.738281 27.199219 L 10.558594 27.199219 C 10.421875 26.9375 10.296875 26.671875 10.1875 26.398438 C 10.074219 26.128906 9.988281 25.871094 9.910156 25.601562 C 9.632812 24.683594 9.492188 23.726562 9.488281 22.769531 L 9.488281 13.535156 C 9.472656 12.707031 10.117188 12.019531 10.9375 12 Z M 18.1875 12 "/>
</g>
<mask id="mask2">
  <g filter="url(#alpha)">
<rect x="0" y="0" width="34" height="32" style="fill:rgb(0%,0%,0%);fill-opacity:0.2;stroke:none;"/>
  </g>
</mask>
<clipPath id="clip3">
  <rect x="0" y="0" width="34" height="32"/>
</clipPath>
<g id="surface11" clip-path="url(#clip3)">
<path style=" stroke:none;fill-rule:nonzero;fill:rgb(0%,0%,0%);fill-opacity:1;" d="M 18.1875 12 L 18.1875 24.136719 C 18.179688 24.941406 17.535156 25.59375 16.738281 25.601562 L 9.910156 25.601562 C 9.632812 24.683594 9.492188 23.726562 9.488281 22.769531 L 9.488281 13.535156 C 9.472656 12.707031 10.117188 12.019531 10.9375 12 Z M 18.1875 12 "/>
</g>
<mask id="mask3">
  <g filter="url(#alpha)">
<rect x="0" y="0" width="34" height="32" style="fill:rgb(0%,0%,0%);fill-opacity:0.2;stroke:none;"/>
  </g>
</mask>
<clipPath id="clip4">
  <rect x="0" y="0" width="34" height="32"/>
</clipPath>
<g id="surface14" clip-path="url(#clip4)">
<path style=" stroke:none;fill-rule:nonzero;fill:rgb(0%,0%,0%);fill-opacity:1;" d="M 17.394531 12 L 17.394531 24.136719 C 17.390625 24.941406 16.746094 25.59375 15.949219 25.601562 L 9.910156 25.601562 C 9.632812 24.683594 9.492188 23.726562 9.488281 22.769531 L 9.488281 13.535156 C 9.472656 12.707031 10.117188 12.019531 10.9375 12 Z M 17.394531 12 "/>
</g>
<mask id="mask4">
  <g filter="url(#alpha)">
<rect x="0" y="0" width="34" height="32" style="fill:rgb(0%,0%,0%);fill-opacity:0.101961;stroke:none;"/>
  </g>
</mask>
<clipPath id="clip5">
  <rect x="0" y="0" width="34" height="32"/>
</clipPath>
<g id="surface17" clip-path="url(#clip5)">
<path style=" stroke:none;fill-rule:nonzero;fill:rgb(0%,0%,0%);fill-opacity:1;" d="M 18.976562 7.863281 L 18.976562 10.382812 C 18.84375 10.390625 18.714844 10.398438 18.582031 10.398438 C 18.445312 10.398438 18.320312 10.390625 18.1875 10.382812 C 17.917969 10.367188 17.652344 10.324219 17.394531 10.257812 C 15.792969 9.871094 14.472656 8.734375 13.839844 7.199219 C 13.730469 6.941406 13.644531 6.675781 13.585938 6.398438 L 17.53125 6.398438 C 18.328125 6.402344 18.972656 7.058594 18.976562 7.863281 Z M 18.976562 7.863281 "/>
</g>
<mask id="mask5">
  <g filter="url(#alpha)">
<rect x="0" y="0" width="34" height="32" style="fill:rgb(0%,0%,0%);fill-opacity:0.2;stroke:none;"/>
  </g>
</mask>
<clipPath id="clip6">
  <rect x="0" y="0" width="34" height="32"/>
</clipPath>
<g id="surface20" clip-path="url(#clip6)">
<path style=" stroke:none;fill-rule:nonzero;fill:rgb(0%,0%,0%);fill-opacity:1;" d="M 18.1875 8.664062 L 18.1875 10.382812 C 17.917969 10.367188 17.65625 10.324219 17.394531 10.257812 C 15.792969 9.871094 14.472656 8.734375 13.839844 7.199219 L 16.738281 7.199219 C 17.535156 7.203125 18.183594 7.855469 18.1875 8.664062 Z M 18.1875 8.664062 "/>
</g>
<mask id="mask6">
  <g filter="url(#alpha)">
<rect x="0" y="0" width="34" height="32" style="fill:rgb(0%,0%,0%);fill-opacity:0.2;stroke:none;"/>
  </g>
</mask>
<clipPath id="clip7">
  <rect x="0" y="0" width="34" height="32"/>
</clipPath>
<g id="surface23" clip-path="url(#clip7)">
<path style=" stroke:none;fill-rule:nonzero;fill:rgb(0%,0%,0%);fill-opacity:1;" d="M 18.1875 8.664062 L 18.1875 10.382812 C 17.917969 10.367188 17.65625 10.324219 17.394531 10.257812 C 15.792969 9.871094 14.472656 8.734375 13.839844 7.199219 L 16.738281 7.199219 C 17.535156 7.203125 18.183594 7.855469 18.1875 8.664062 Z M 18.1875 8.664062 "/>
</g>
<mask id="mask7">
  <g filter="url(#alpha)">
<rect x="0" y="0" width="34" height="32" style="fill:rgb(0%,0%,0%);fill-opacity:0.2;stroke:none;"/>
  </g>
</mask>
<clipPath id="clip8">
  <rect x="0" y="0" width="34" height="32"/>
</clipPath>
<g id="surface26" clip-path="url(#clip8)">
<path style=" stroke:none;fill-rule:nonzero;fill:rgb(0%,0%,0%);fill-opacity:1;" d="M 17.394531 8.664062 L 17.394531 10.257812 C 15.792969 9.871094 14.472656 8.734375 13.839844 7.199219 L 15.949219 7.199219 C 16.746094 7.203125 17.390625 7.855469 17.394531 8.664062 Z M 17.394531 8.664062 "/>
</g>
<linearGradient id="linear0" gradientUnits="userSpaceOnUse" x1="198.098999" y1="1683.072632" x2="942.234375" y2="394.260712" gradientTransform="matrix(0.015251,0,0,-0.0154341,0.00400385,32.030872)">
<stop offset="0" style="stop-color:rgb(35.294118%,38.431373%,76.470588%);stop-opacity:1;"/>
<stop offset="0.5" style="stop-color:rgb(30.196078%,33.333333%,74.117647%);stop-opacity:1;"/>
<stop offset="1" style="stop-color:rgb(22.352941%,25.098039%,67.058824%);stop-opacity:1;"/>
</linearGradient>
</defs>
<g id="surface1">
<path style=" stroke:none;fill-rule:nonzero;fill:rgb(31.37255%,34.901962%,78.823531%);fill-opacity:1;" d="M 23.714844 12 L 32.492188 12 C 33.324219 12 33.996094 12.679688 33.996094 13.519531 L 33.996094 21.613281 C 33.996094 24.699219 31.523438 27.199219 28.476562 27.199219 L 28.449219 27.199219 C 25.402344 27.199219 22.929688 24.699219 22.929688 21.613281 L 22.929688 12.792969 C 22.929688 12.355469 23.28125 12 23.714844 12 Z M 23.714844 12 "/>
<path style=" stroke:none;fill-rule:nonzero;fill:rgb(31.37255%,34.901962%,78.823531%);fill-opacity:1;" d="M 33.207031 6.800781 C 33.207031 4.8125 31.613281 3.199219 29.648438 3.199219 C 27.683594 3.199219 26.089844 4.8125 26.089844 6.800781 C 26.089844 8.789062 27.683594 10.398438 29.648438 10.398438 C 31.613281 10.398438 33.207031 8.789062 33.207031 6.800781 Z M 33.207031 6.800781 "/>
<path style=" stroke:none;fill-rule:nonzero;fill:rgb(48.235294%,51.372552%,92.156863%);fill-opacity:1;" d="M 23.71875 5.199219 C 23.71875 2.328125 21.417969 0 18.582031 0 C 15.742188 0 13.441406 2.328125 13.441406 5.199219 C 13.441406 8.070312 15.742188 10.398438 18.582031 10.398438 C 21.417969 10.398438 23.71875 8.070312 23.71875 5.199219 Z M 23.71875 5.199219 "/>
<path style=" stroke:none;fill-rule:nonzero;fill:rgb(48.235294%,51.372552%,92.156863%);fill-opacity:1;" d="M 25.433594 12 L 10.9375 12 C 10.121094 12.019531 9.472656 12.707031 9.488281 13.539062 L 9.488281 22.769531 C 9.375 27.746094 13.265625 31.878906 18.1875 32 C 23.105469 31.878906 26.996094 27.746094 26.882812 22.769531 L 26.882812 13.539062 C 26.902344 12.707031 26.253906 12.019531 25.433594 12 Z M 25.433594 12 "/>
<use xlink:href="#surface5" mask="url(#mask0)"/>
<use xlink:href="#surface8" mask="url(#mask1)"/>
<use xlink:href="#surface11" mask="url(#mask2)"/>
<use xlink:href="#surface14" mask="url(#mask3)"/>
<use xlink:href="#surface17" mask="url(#mask4)"/>
<use xlink:href="#surface20" mask="url(#mask5)"/>
<use xlink:href="#surface23" mask="url(#mask6)"/>
<use xlink:href="#surface26" mask="url(#mask7)"/>
<path style=" stroke:none;fill-rule:nonzero;fill:url(#linear0);" d="M 1.453125 7.199219 L 15.945312 7.199219 C 16.746094 7.199219 17.394531 7.855469 17.394531 8.667969 L 17.394531 23.332031 C 17.394531 24.144531 16.746094 24.800781 15.945312 24.800781 L 1.453125 24.800781 C 0.652344 24.800781 0.00390625 24.144531 0.00390625 23.332031 L 0.00390625 8.667969 C 0.00390625 7.855469 0.652344 7.199219 1.453125 7.199219 Z M 1.453125 7.199219 "/>
<path style=" stroke:none;fill-rule:nonzero;fill:rgb(100%,100%,100%);fill-opacity:1;" d="M 12.511719 12.78125 L 9.617188 12.78125 L 9.617188 20.765625 L 7.769531 20.765625 L 7.769531 12.78125 L 4.886719 12.78125 L 4.886719 11.234375 L 12.511719 11.234375 Z M 12.511719 12.78125 "/>
</g>
</svg>
