<svg xmlns="http://www.w3.org/2000/svg" width="48" height="48" viewBox="0 0 109.5 124.5">
  <path fill="#95BF47" d="M95.9 23.9c-.1-.6-.6-1-1.1-1-.5 0-9.3-.2-9.3-.2s-7.4-7.2-8.1-7.9c-.7-.7-2.2-.5-2.7-.3 0 0-1.4.4-3.7 1.1-.4-1.3-1-2.8-1.8-4.4-2.6-5-6.5-7.7-11.1-7.7 0 0 0 0 0 0-.3 0-.6 0-1 .1-.1-.2-.3-.3-.4-.5-2-2.2-4.6-3.2-7.7-3.1-6 .2-12 4.5-16.8 12.2-3.4 5.4-6 12.2-6.7 17.5-6.9 2.1-11.7 3.6-11.8 3.7-3.5 1.1-3.6 1.2-4 4.5-.3 2.5-9.5 73.1-9.5 73.1l75.6 13.1V23.9c-.2 0-.3 0-.3 0zm-28.3-6.3c-1.7.5-3.7 1.1-5.8 1.8 0-3-.4-7.3-1.8-10.9 4.5.9 6.7 5.9 7.6 9.1zm-9.8 3c-3.9 1.2-8.2 2.5-12.5 3.9 1.2-4.7 3.5-9.4 6.3-12.5 1.1-1.1 2.6-2.4 4.3-3.1 1.7 3.5 2 8.5 1.9 11.7zm-7.9-15.6c1.4 0 2.6.3 3.6.9-1.6.8-3.2 2.1-4.7 3.6-3.7 4-6.5 10.2-7.6 16.2-3.6 1.1-7.1 2.2-10.2 3.2 2-9.9 9.8-23.3 18.9-23.9z"/>
  <path fill="#5E8E3E" d="M94.8 22.9c-.5 0-9.3-.2-9.3-.2s-7.4-7.2-8.1-7.9c-.3-.3-.6-.4-1-.5v108.2l38.4-9.4S95.9 23.9 95.9 23.9c-.1-.6-.6-1-1.1-1z"/>
  <path fill="#FFF" d="M58 39.9l-3.8 14.4s-4.2-2-9.2-1.7c-7.3.5-7.4 5.1-7.3 6.2.4 6.5 17.5 7.9 18.5 23.1.7 12-6.4 20.2-16.6 20.8-12.3.8-19-6.5-19-6.5l2.6-11s6.6 5 11.9 4.7c3.5-.2 4.8-3.1 4.6-5.1-.5-8.4-14.4-7.9-15.3-21.9-.8-11.8 7-23.8 24.1-24.9 6.7-.4 10.1 1.3 10.5 1.9z"/>
</svg>

