<svg version="1.1" viewBox="0.0 0.0 1280.0 960.0" fill="none" stroke="none" stroke-linecap="square" stroke-miterlimit="10" xmlns:xlink="http://www.w3.org/1999/xlink" xmlns="http://www.w3.org/2000/svg"><clipPath id="p.0"><path d="m0 0l1280.0 0l0 960.0l-1280.0 0l0 -960.0z" clip-rule="nonzero"/></clipPath><g clip-path="url(#p.0)"><path fill="#000000" fill-opacity="0.0" d="m0 0l1280.0 0l0 960.0l-1280.0 0z" fill-rule="evenodd"/><path fill="#ffffff" d="m220.20604 60.879265l171.11812 0l0 210.89764l-171.11812 0z" fill-rule="evenodd"/><path stroke="#4a9fea" stroke-width="2.0" stroke-linejoin="round" stroke-linecap="butt" d="m220.20604 60.879265l171.11812 0l0 210.89764l-171.11812 0z" fill-rule="evenodd"/><path fill="#1e88e5" d="m232.01854 81.19489l0 -7.984375l-1.84375 0l0 9.46875l6.28125 0l0 -1.484375l-4.4375 0zm6.591934 -5.5625l0 1.484375l2.0 0l0 4.09375l-2.0 0l0 1.46875l5.734375 0l0 -1.46875l-1.90625 0l0 -5.578125l-3.828125 0zm1.875 -1.796875q0 0.203125 0.0625 0.390625q0.078125 0.171875 0.21875 0.296875q0.140625 0.125 0.328125 0.203125q0.1875 0.078125 0.421875 0.078125q0.484375 0 0.765625 -0.265625q0.28125 -0.28125 0.28125 -0.703125q0 -0.421875 -0.28125 -0.6875q-0.28125 -0.28125 -0.765625 -0.28125q-0.234375 0 -0.421875 0.078125q-0.1875 0.0625 -0.328125 0.1875q-0.140625 0.140625 -0.21875 0.328125q-0.0625 0.171875 -0.0625 0.375zm11.982559 5.390625l0 -0.125q0 -0.640625 -0.125 -1.203125q-0.109375 -0.5625 -0.34375 -1.015625q-0.140625 -0.28125 -0.34375 -0.515625q-0.1875 -0.234375 -0.4375 -0.40625q-0.296875 -0.21875 -0.6875 -0.328125q-0.375 -0.125 -0.828125 -0.125q-0.328125 0 -0.609375 0.078125q-0.28125 0.0625 -0.53125 0.203125q-0.15625 0.078125 -0.3125 0.21875q-0.15625 0.125 -0.28125 0.265625l0 -3.59375l-1.8125 0l0 10.0l1.625 0l0.09375 -0.75q0.109375 0.140625 0.234375 0.265625q0.125 0.125 0.265625 0.21875q0.265625 0.1875 0.59375 0.28125q0.34375 0.109375 0.75 0.109375q0.453125 0 0.828125 -0.109375q0.375 -0.109375 0.671875 -0.328125q0.328125 -0.234375 0.5625 -0.578125q0.25 -0.34375 0.40625 -0.765625q0.140625 -0.375 0.203125 -0.828125q0.078125 -0.453125 0.078125 -0.96875zm-1.8125 -0.125l0 0.125q0 0.28125 -0.03125 0.53125q-0.015625 0.25 -0.0625 0.46875q-0.0625 0.296875 -0.203125 0.53125q-0.125 0.21875 -0.328125 0.359375q-0.140625 0.109375 -0.34375 0.171875q-0.1875 0.0625 -0.421875 0.0625q-0.28125 0 -0.5 -0.0625q-0.21875 -0.078125 -0.375 -0.203125q-0.140625 -0.09375 -0.25 -0.21875q-0.09375 -0.140625 -0.171875 -0.296875l0 -2.8125q0.0625 -0.125 0.125 -0.234375q0.078125 -0.109375 0.15625 -0.1875q0.1875 -0.171875 0.421875 -0.265625q0.25 -0.09375 0.578125 -0.09375q0.234375 0 0.421875 0.0625q0.203125 0.046875 0.34375 0.15625q0.234375 0.1875 0.34375 0.40625q0.109375 0.203125 0.1875 0.46875q0.0625 0.21875 0.078125 0.484375q0.03125 0.265625 0.03125 0.546875zm8.513809 -3.59375q-0.703125 0 -1.3125 0.34375q-0.59375 0.34375 -1.015625 0.9375l-0.015625 -0.15625l-0.078125 -1.0l-1.671875 0l0 7.046875l1.796875 0l0 -4.234375q0.125 -0.296875 0.3125 -0.515625q0.1875 -0.21875 0.453125 -0.359375q0.234375 -0.125 0.515625 -0.1875q0.28125 -0.0625 0.625 -0.0625q0.34375 0 0.71875 0.046875q0.375 0.03125 0.734375 0.125l0.265625 -1.8125q-0.21875 -0.0625 -0.5625 -0.109375q-0.34375 -0.0625 -0.765625 -0.0625zm7.341919 7.171875l1.84375 0l0 -0.109375q-0.140625 -0.265625 -0.21875 -0.640625q-0.0625 -0.375 -0.0625 -0.9375l0 -3.015625q0 -0.609375 -0.234375 -1.078125q-0.21875 -0.46875 -0.625 -0.765625q-0.40625 -0.3125 -0.953125 -0.46875q-0.546875 -0.15625 -1.1875 -0.15625q-0.71875 0 -1.265625 0.1875q-0.546875 0.171875 -0.921875 0.46875q-0.390625 0.3125 -0.59375 0.71875q-0.1875 0.40625 -0.1875 0.84375l1.8125 0q0 -0.1875 0.046875 -0.34375q0.0625 -0.15625 0.171875 -0.265625q0.140625 -0.125 0.34375 -0.1875q0.203125 -0.0625 0.5 -0.0625q0.3125 0 0.5625 0.078125q0.25 0.078125 0.40625 0.234375q0.15625 0.140625 0.234375 0.34375q0.078125 0.1875 0.078125 0.4375l0 0.421875l-1.015625 0q-0.765625 0 -1.375 0.140625q-0.609375 0.140625 -1.015625 0.40625q-0.453125 0.28125 -0.6875 0.734375q-0.21875 0.453125 -0.21875 1.046875q0 0.453125 0.171875 0.84375q0.1875 0.390625 0.515625 0.65625q0.328125 0.28125 0.78125 0.4375q0.453125 0.15625 0.984375 0.15625q0.34375 0 0.625 -0.0625q0.28125 -0.0625 0.53125 -0.171875q0.234375 -0.09375 0.421875 -0.234375q0.203125 -0.15625 0.34375 -0.3125q0.03125 0.1875 0.078125 0.359375q0.046875 0.171875 0.109375 0.296875zm-1.71875 -1.265625q-0.25 0 -0.453125 -0.0625q-0.1875 -0.0625 -0.3125 -0.171875q-0.140625 -0.109375 -0.203125 -0.265625q-0.0625 -0.15625 -0.0625 -0.34375q0 -0.25 0.078125 -0.453125q0.09375 -0.203125 0.28125 -0.359375q0.203125 -0.140625 0.5 -0.21875q0.296875 -0.078125 0.71875 -0.078125l0.921875 0l0 1.203125q-0.078125 0.140625 -0.21875 0.28125q-0.125 0.125 -0.328125 0.234375q-0.1875 0.09375 -0.421875 0.171875q-0.234375 0.0625 -0.5 0.0625zm10.373199 -5.90625q-0.703125 0 -1.3125 0.34375q-0.59375 0.34375 -1.015625 0.9375l-0.015625 -0.15625l-0.078125 -1.0l-1.671875 0l0 7.046875l1.796875 0l0 -4.234375q0.125 -0.296875 0.3125 -0.515625q0.1875 -0.21875 0.453125 -0.359375q0.234375 -0.125 0.515625 -0.1875q0.28125 -0.0625 0.625 -0.0625q0.34375 0 0.71875 0.046875q0.375 0.03125 0.734375 0.125l0.265625 -1.8125q-0.21875 -0.0625 -0.5625 -0.109375q-0.34375 -0.0625 -0.765625 -0.0625zm4.060669 10.015625q0.546875 0 0.9375 -0.1875q0.40625 -0.171875 0.6875 -0.4375q0.28125 -0.265625 0.46875 -0.578125q0.1875 -0.3125 0.296875 -0.59375l3.578125 -8.09375l-2.0 0l-1.609375 4.140625l-0.265625 0.703125l-0.1875 -0.71875l-1.625 -4.125l-1.96875 0l2.96875 6.75l-0.40625 0.765625q-0.078125 0.15625 -0.140625 0.234375q-0.046875 0.078125 -0.171875 0.234375q-0.109375 0.15625 -0.28125 0.28125q-0.171875 0.140625 -0.375 0.140625q-0.109375 0 -0.28125 -0.015625q-0.171875 -0.015625 -0.28125 -0.015625l-0.21875 1.390625q0.234375 0.0625 0.421875 0.09375q0.1875 0.03125 0.453125 0.03125z" fill-rule="nonzero"/><path fill="#e4f0fb" d="m237.01561 165.48047l0 0c0 -2.965866 2.4043274 -5.370178 5.3701935 -5.370178l135.99979 0c1.4242554 0 2.7901917 0.56578064 3.7973022 1.5728912c1.0071106 1.0070953 1.572876 2.3730316 1.572876 3.797287l0 21.480103c0 2.965866 -2.4042969 5.3701935 -5.370178 5.3701935l-135.99979 0c-2.965866 0 -5.3701935 -2.4043274 -5.3701935 -5.3701935z" fill-rule="evenodd"/><path stroke="#4a9fea" stroke-width="1.0" stroke-linejoin="round" stroke-linecap="butt" d="m237.01561 165.48047l0 0c0 -2.965866 2.4043274 -5.370178 5.3701935 -5.370178l135.99979 0c1.4242554 0 2.7901917 0.56578064 3.7973022 1.5728912c1.0071106 1.0070953 1.572876 2.3730316 1.572876 3.797287l0 21.480103c0 2.965866 -2.4042969 5.3701935 -5.370178 5.3701935l-135.99979 0c-2.965866 0 -5.3701935 -2.4043274 -5.3701935 -5.3701935z" fill-rule="evenodd"/><path fill="#e4f0fb" d="m237.01561 110.4985l0 0c0 -2.965866 2.4043274 -5.370186 5.3701935 -5.370186l135.99979 0c1.4242554 0 2.7901917 0.56578827 3.7973022 1.5728912c1.0071106 1.0071106 1.572876 2.3730392 1.572876 3.7972946l0 21.48011c0 2.965866 -2.4042969 5.370178 -5.370178 5.370178l-135.99979 0c-2.965866 0 -5.3701935 -2.4043121 -5.3701935 -5.370178z" fill-rule="evenodd"/><path stroke="#4a9fea" stroke-width="1.0" stroke-linejoin="round" stroke-linecap="butt" d="m237.01561 110.4985l0 0c0 -2.965866 2.4043274 -5.370186 5.3701935 -5.370186l135.99979 0c1.4242554 0 2.7901917 0.56578827 3.7973022 1.5728912c1.0071106 1.0071106 1.572876 2.3730392 1.572876 3.7972946l0 21.48011c0 2.965866 -2.4042969 5.370178 -5.370178 5.370178l-135.99979 0c-2.965866 0 -5.3701935 -2.4043121 -5.3701935 -5.370178z" fill-rule="evenodd"/><path fill="#000000" fill-opacity="0.0" d="m90.267715 53.233597l0 96.97638" fill-rule="evenodd"/><path stroke="#b7b7b7" stroke-width="2.0" stroke-linejoin="round" stroke-linecap="butt" d="m90.267715 53.233597l0 96.97638" fill-rule="evenodd"/><path fill="#49bc4e" d="m16.897638 21.238974l0 0c0 -3.534113 2.8649654 -6.3990784 6.3990784 -6.3990784l133.942 0c1.6971283 0 3.324768 0.6741867 4.524826 1.8742466c1.200058 1.2000599 1.8742523 2.8276901 1.8742523 4.524832l0 25.595545c0 3.534111 -2.864975 6.3990784 -6.3990784 6.3990784l-133.942 0c-3.534113 0 -6.3990784 -2.8649673 -6.3990784 -6.3990784z" fill-rule="evenodd"/><path fill="#ffffff" d="m45.638897 37.72737l0 -3.734375l-3.390625 0l0 1.375l1.5625 0l0 1.71875q-0.078125 0.078125 -0.21875 0.15625q-0.125 0.078125 -0.3125 0.125q-0.1875 0.0625 -0.390625 0.09375q-0.203125 0.03125 -0.421875 0.03125q-0.359375 0 -0.640625 -0.109375q-0.265625 -0.109375 -0.46875 -0.3125q-0.125 -0.125 -0.234375 -0.28125q-0.09375 -0.171875 -0.171875 -0.359375q-0.125 -0.328125 -0.203125 -0.75q-0.0625 -0.421875 -0.0625 -0.9375l0 -1.296875q0 -0.40625 0.046875 -0.75q0.046875 -0.359375 0.140625 -0.640625q0.125 -0.3750019 0.296875 -0.6406269q0.1875 -0.28125 0.40625 -0.453125q0.171875 -0.125 0.359375 -0.1875q0.203125 -0.0625 0.40625 -0.0625q0.375 0 0.65625 0.109375q0.28125 0.09375 0.46875 0.296875q0.15625 0.171875 0.25 0.4375q0.09375 0.265625 0.140625 0.6093769l1.78125 0q-0.078125 -0.6718769 -0.3125 -1.2187519q-0.21875 -0.546875 -0.625 -0.9375q-0.421875 -0.375 -1.015625 -0.578125q-0.59375 -0.203125 -1.390625 -0.203125q-0.515625 0 -0.984375 0.15625q-0.46875 0.140625 -0.875 0.40625q-0.328125 0.25 -0.625 0.59375q-0.28125 0.34375 -0.484375 0.765625q-0.234375 0.46875 -0.359375 1.0625019q-0.125 0.578125 -0.125 1.25l0 1.28125q0 0.71875 0.125 1.328125q0.125 0.59375 0.375 1.078125q0.21875 0.4375 0.53125 0.78125q0.3125 0.328125 0.6875 0.5625q0.375 0.234375 0.828125 0.34375q0.46875 0.125 0.984375 0.125q0.609375 0 1.125 -0.109375q0.515625 -0.109375 0.9375 -0.28125q0.421875 -0.1875 0.71875 -0.40625q0.3125 -0.21875 0.484375 -0.4375zm1.3106842 -2.46875l0 0.125q0 0.78125 0.21875 1.4375q0.21875 0.65625 0.65625 1.125q0.421875 0.484375 1.03125 0.765625q0.625 0.265625 1.421875 0.265625q0.796875 0 1.40625 -0.265625q0.625 -0.28125 1.046875 -0.765625q0.421875 -0.46875 0.640625 -1.125q0.21875 -0.65625 0.21875 -1.4375l0 -0.125q0 -0.78125 -0.21875 -1.421875q-0.21875 -0.65625 -0.640625 -1.140625q-0.4375 -0.484375 -1.0625 -0.7500019q-0.609375 -0.28125 -1.40625 -0.28125q-0.78125 0 -1.40625 0.28125q-0.609375 0.2656269 -1.03125 0.7500019q-0.4375 0.484375 -0.65625 1.140625q-0.21875 0.640625 -0.21875 1.421875zm1.8125 0.125l0 -0.125q0 -0.4375 0.078125 -0.8125q0.09375 -0.390625 0.265625 -0.6875q0.1875 -0.296875 0.46875 -0.453125q0.28125 -0.171875 0.6875 -0.171875q0.421875 0 0.703125 0.171875q0.28125 0.15625 0.46875 0.453125q0.171875 0.296875 0.25 0.6875q0.09375 0.375 0.09375 0.8125l0 0.125q0 0.453125 -0.09375 0.84375q-0.078125 0.375 -0.25 0.65625q-0.1875 0.296875 -0.46875 0.46875q-0.28125 0.171875 -0.6875 0.171875q-0.40625 0 -0.703125 -0.171875q-0.28125 -0.171875 -0.46875 -0.46875q-0.171875 -0.28125 -0.265625 -0.65625q-0.078125 -0.390625 -0.078125 -0.84375zm6.185684 -0.125l0 0.125q0 0.78125 0.21875 1.4375q0.21875 0.65625 0.65625 1.125q0.421875 0.484375 1.03125 0.765625q0.625 0.265625 1.421875 0.265625q0.796875 0 1.40625 -0.265625q0.625 -0.28125 1.046875 -0.765625q0.421875 -0.46875 0.640625 -1.125q0.21875 -0.65625 0.21875 -1.4375l0 -0.125q0 -0.78125 -0.21875 -1.421875q-0.21875 -0.65625 -0.640625 -1.140625q-0.4375 -0.484375 -1.0625 -0.7500019q-0.609375 -0.28125 -1.40625 -0.28125q-0.78125 0 -1.40625 0.28125q-0.609375 0.2656269 -1.03125 0.7500019q-0.4375 0.484375 -0.65625 1.140625q-0.21875 0.640625 -0.21875 1.421875zm1.8125 0.125l0 -0.125q0 -0.4375 0.078125 -0.8125q0.09375 -0.390625 0.265625 -0.6875q0.1875 -0.296875 0.46875 -0.453125q0.28125 -0.171875 0.6875 -0.171875q0.421875 0 0.703125 0.171875q0.28125 0.15625 0.46875 0.453125q0.171875 0.296875 0.25 0.6875q0.09375 0.375 0.09375 0.8125l0 0.125q0 0.453125 -0.09375 0.84375q-0.078125 0.375 -0.25 0.65625q-0.1875 0.296875 -0.46875 0.46875q-0.28125 0.171875 -0.6875 0.171875q-0.40625 0 -0.703125 -0.171875q-0.28125 -0.171875 -0.46875 -0.46875q-0.171875 -0.28125 -0.265625 -0.65625q-0.078125 -0.390625 -0.078125 -0.84375zm6.248184 -0.125l0 0.140625q0 0.765625 0.1875 1.421875q0.203125 0.65625 0.578125 1.125q0.3749962 0.484375 0.8906212 0.75q0.53125 0.265625 1.1875 0.265625q0.328125 0 0.609375 -0.078125q0.296875 -0.0625 0.546875 -0.1875q0.15625 -0.09375 0.296875 -0.203125q0.15625 -0.125 0.28125 -0.265625l0 0.40625q0 0.359375 -0.109375 0.640625q-0.09375 0.28125 -0.28125 0.484375q-0.203125 0.203125 -0.515625 0.3125q-0.3125 0.125 -0.703125 0.125q-0.25 0 -0.484375 -0.0625q-0.234375 -0.046875 -0.453125 -0.140625q-0.21875 -0.09375 -0.421875 -0.25q-0.203125 -0.15625 -0.375 -0.359375l-0.8124962 1.109375q0.234375 0.296875 0.546875 0.5q0.3281212 0.21875 0.6718712 0.34375q0.359375 0.140625 0.71875 0.203125q0.375 0.0625 0.6875 0.0625q0.75 0 1.359375 -0.203125q0.625 -0.1875 1.0625 -0.578125q0.4375 -0.375 0.671875 -0.9375q0.25 -0.5625 0.25 -1.28125l0 -6.812502l-1.640625 0l-0.078125 0.6718769q-0.125 -0.15625 -0.28125 -0.28125q-0.15625 -0.140625 -0.34375 -0.2343769q-0.234375 -0.140625 -0.53125 -0.203125q-0.296875 -0.078125 -0.65625 -0.078125q-0.671875 0 -1.203125 0.265625q-0.515625 0.2500019 -0.8906212 0.7343769q-0.375 0.46875 -0.578125 1.140625q-0.1875 0.65625 -0.1875 1.453125zm1.8124962 0.140625l0 -0.140625q0 -0.4375 0.09375 -0.828125q0.09375 -0.390625 0.28125 -0.671875q0.1875 -0.296875 0.453125 -0.453125q0.28125 -0.171875 0.671875 -0.171875q0.203125 0 0.375 0.046875q0.1875 0.03125 0.34375 0.109375q0.171875 0.078125 0.3125 0.21875q0.140625 0.140625 0.234375 0.3125l0 2.984375q-0.09375 0.15625 -0.21875 0.296875q-0.125 0.125 -0.28125 0.21875q-0.15625 0.078125 -0.359375 0.125q-0.1875 0.046875 -0.421875 0.046875q-0.375 0 -0.65625 -0.15625q-0.28125 -0.171875 -0.46875 -0.453125q-0.171875 -0.28125 -0.265625 -0.65625q-0.09375 -0.390625 -0.09375 -0.828125zm6.748184 -6.562502l0 1.484375l2.109375 0l0 7.046877l-2.109375 0l0 1.46875l5.953125 0l0 -1.46875l-2.015625 0l0 -8.531252l-3.9375 0zm11.029434 10.125002q1.0312576 0 1.7812576 -0.390625q0.75 -0.390625 1.09375 -0.890625l-0.90625 -0.96875q-0.3125 0.40625 -0.8125 0.609375q-0.5 0.1875 -1.0468826 0.1875q-0.375 0 -0.703125 -0.109375q-0.3125 -0.125 -0.546875 -0.328125q-0.25 -0.21875 -0.390625 -0.46875q-0.140625 -0.265625 -0.234375 -0.6875l0 -0.015625l4.7812576 0l0 -0.765625q0 -0.78125 -0.21875 -1.421875q-0.21875 -0.640625 -0.625 -1.09375q-0.421875 -0.453125 -1.015625 -0.7031269q-0.59375 -0.25 -1.3593826 -0.25q-0.734375 0 -1.359375 0.265625q-0.625 0.2656269 -1.078125 0.7500019q-0.453125 0.484375 -0.703125 1.15625q-0.25 0.65625 -0.25 1.46875l0 0.25q0 0.71875 0.25 1.34375q0.265625 0.609375 0.734375 1.078125q0.46875 0.453125 1.125 0.71875q0.671875 0.265625 1.484375 0.265625zm-0.203125 -5.828125q0.34375 0 0.5937576 0.109375q0.265625 0.09375 0.453125 0.28125q0.1875 0.1875 0.28125 0.453125q0.109375 0.25 0.109375 0.53125l0 0.140625l-2.9687576 0q0.0625 -0.34375 0.1875 -0.625q0.140625 -0.28125 0.34375 -0.484375q0.1875 -0.203125 0.4375 -0.296875q0.25 -0.109375 0.5625 -0.109375zm17.637001 3.234375q0 0.25 -0.109375 0.46875q-0.09375 0.203125 -0.28125 0.359375q-0.203125 0.140625 -0.484375 0.234375q-0.28125 0.078125 -0.640625 0.078125q-0.421875 0 -0.765625 -0.09375q-0.328125 -0.09375 -0.578125 -0.28125q-0.25 -0.203125 -0.390625 -0.5q-0.125 -0.3125 -0.140625 -0.734375l-1.796875 0q0 0.734375 0.28125 1.28125q0.28125 0.546875 0.78125 0.953125q0.5 0.40625 1.1875 0.625q0.703125 0.203125 1.421875 0.203125q0.71875 0 1.328125 -0.171875q0.609375 -0.171875 1.046875 -0.515625q0.453125 -0.328125 0.703125 -0.8125q0.25 -0.484375 0.25 -1.109375q0 -0.71875 -0.34375 -1.265625q-0.328125 -0.5625 -0.875 -0.984375q-0.375 -0.25 -0.828125 -0.4375q-0.4375 -0.203125 -0.921875 -0.34375q-0.453125 -0.125 -0.828125 -0.265625q-0.359375 -0.140625 -0.609375 -0.3125q-0.25 -0.171875 -0.390625 -0.390625q-0.125 -0.21875 -0.125 -0.4843769q0 -0.25 0.09375 -0.46875q0.109375 -0.21875 0.296875 -0.375q0.203125 -0.15625 0.484375 -0.234375q0.28125 -0.09375 0.640625 -0.09375q0.40625 0 0.703125 0.109375q0.296875 0.09375 0.5 0.28125q0.1875 0.203125 0.28125 0.46875q0.109375 0.265625 0.125 0.5781269l1.78125 0q0 -0.6250019 -0.25 -1.1562519q-0.25 -0.546875 -0.6875 -0.9375q-0.4375 -0.375 -1.0625 -0.59375q-0.609375 -0.21875 -1.359375 -0.21875q-0.703125 0 -1.328125 0.1875q-0.609375 0.1875 -1.046875 0.53125q-0.453125 0.34375 -0.71875 0.84375q-0.25 0.484375 -0.25 1.078125q0 0.5156269 0.1875 0.9687519q0.203125 0.4375 0.578125 0.796875q0.375 0.375 0.96875 0.6875q0.609375 0.296875 1.390625 0.5q0.5 0.140625 0.84375 0.3125q0.34375 0.15625 0.5625 0.34375q0.203125 0.1875 0.28125 0.40625q0.09375 0.21875 0.09375 0.484375zm4.966934 -3.609375l0 -3.921877l-1.8125 0l0 10.000002l1.8125 0l0 -5.078125q0.09375 -0.140625 0.21875 -0.25q0.125 -0.109375 0.28125 -0.1875q0.171875 -0.09375 0.375 -0.140625q0.21875 -0.046875 0.453125 -0.046875q0.3125 0 0.5625 0.09375q0.25 0.078125 0.421875 0.234375q0.171875 0.171875 0.265625 0.453125q0.109375 0.265625 0.109375 0.640625l0 4.28125l1.796875 0l0 -4.265625q0 -0.765625 -0.1875 -1.3125q-0.171875 -0.5625 -0.515625 -0.90625q-0.328125 -0.3593769 -0.796875 -0.5156269q-0.453125 -0.171875 -1.0 -0.171875q-0.390625 0 -0.734375 0.109375q-0.328125 0.109375 -0.609375 0.3125019q-0.171875 0.125 -0.34375 0.296875q-0.171875 0.171875 -0.296875 0.375zm9.591934 6.203125q1.03125 0 1.78125 -0.390625q0.75 -0.390625 1.09375 -0.890625l-0.90625 -0.96875q-0.3125 0.40625 -0.8125 0.609375q-0.5 0.1875 -1.046875 0.1875q-0.375 0 -0.703125 -0.109375q-0.3125 -0.125 -0.546875 -0.328125q-0.25 -0.21875 -0.390625 -0.46875q-0.140625 -0.265625 -0.234375 -0.6875l0 -0.015625l4.78125 0l0 -0.765625q0 -0.78125 -0.21875 -1.421875q-0.21875 -0.640625 -0.625 -1.09375q-0.421875 -0.453125 -1.015625 -0.7031269q-0.59375 -0.25 -1.359375 -0.25q-0.734375 0 -1.359375 0.265625q-0.625 0.2656269 -1.078125 0.7500019q-0.453125 0.484375 -0.703125 1.15625q-0.25 0.65625 -0.25 1.46875l0 0.25q0 0.71875 0.25 1.34375q0.265625 0.609375 0.734375 1.078125q0.46875 0.453125 1.125 0.71875q0.671875 0.265625 1.484375 0.265625zm-0.203125 -5.828125q0.34375 0 0.59375 0.109375q0.265625 0.09375 0.453125 0.28125q0.1875 0.1875 0.28125 0.453125q0.109375 0.25 0.109375 0.53125l0 0.140625l-2.96875 0q0.0625 -0.34375 0.1875 -0.625q0.140625 -0.28125 0.34375 -0.484375q0.1875 -0.203125 0.4375 -0.296875q0.25 -0.109375 0.5625 -0.109375zm8.201309 5.828125q1.03125 0 1.78125 -0.390625q0.75 -0.390625 1.09375 -0.890625l-0.90625 -0.96875q-0.3125 0.40625 -0.8125 0.609375q-0.5 0.1875 -1.046875 0.1875q-0.375 0 -0.703125 -0.109375q-0.3125 -0.125 -0.546875 -0.328125q-0.25 -0.21875 -0.390625 -0.46875q-0.140625 -0.265625 -0.234375 -0.6875l0 -0.015625l4.78125 0l0 -0.765625q0 -0.78125 -0.21875 -1.421875q-0.21875 -0.640625 -0.625 -1.09375q-0.421875 -0.453125 -1.015625 -0.7031269q-0.59375 -0.25 -1.359375 -0.25q-0.734375 0 -1.359375 0.265625q-0.625 0.2656269 -1.078125 0.7500019q-0.453125 0.484375 -0.703125 1.15625q-0.25 0.65625 -0.25 1.46875l0 0.25q0 0.71875 0.25 1.34375q0.265625 0.609375 0.734375 1.078125q0.46875 0.453125 1.125 0.71875q0.671875 0.265625 1.484375 0.265625zm-0.203125 -5.828125q0.34375 0 0.59375 0.109375q0.265625 0.09375 0.453125 0.28125q0.1875 0.1875 0.28125 0.453125q0.109375 0.25 0.109375 0.53125l0 0.140625l-2.96875 0q0.0625 -0.34375 0.1875 -0.625q0.140625 -0.28125 0.34375 -0.484375q0.1875 -0.203125 0.4375 -0.296875q0.25 -0.109375 0.5625 -0.109375zm8.107559 -3.062502l-1.8125 0l0 1.71875l-1.609375 0l0 1.3437519l1.609375 0l0 3.203125q0 0.6875 0.1875 1.1875q0.1875 0.5 0.515625 0.8125q0.34375 0.328125 0.8125 0.484375q0.46875 0.15625 1.046875 0.15625q0.296875 0 0.609375 -0.03125q0.3125 -0.03125 0.59375 -0.078125q0.28125 -0.0625 0.53125 -0.140625q0.265625 -0.078125 0.453125 -0.1875l-0.171875 -1.25q-0.125 0.03125 -0.296875 0.078125q-0.171875 0.03125 -0.375 0.046875q-0.203125 0.03125 -0.421875 0.0625q-0.21875 0.015625 -0.421875 0.015625q-0.28125 0 -0.515625 -0.0625q-0.234375 -0.078125 -0.390625 -0.234375q-0.171875 -0.140625 -0.265625 -0.390625q-0.078125 -0.265625 -0.078125 -0.65625l0 -3.015625l2.625 0l0 -1.3437519l-2.625 0l0 -1.71875zm9.216934 6.828127q0 0.171875 -0.078125 0.3125q-0.078125 0.125 -0.234375 0.234375q-0.171875 0.109375 -0.4375 0.171875q-0.265625 0.046875 -0.609375 0.046875q-0.296875 0 -0.578125 -0.046875q-0.28125 -0.0625 -0.484375 -0.1875q-0.21875 -0.125 -0.359375 -0.328125q-0.140625 -0.21875 -0.15625 -0.5l-1.71875 0q0 0.4375 0.203125 0.859375q0.21875 0.421875 0.625 0.75q0.40625 0.34375 1.015625 0.5625q0.609375 0.203125 1.40625 0.203125q0.71875 0 1.296875 -0.15625q0.59375 -0.171875 1.015625 -0.453125q0.40625 -0.28125 0.625 -0.671875q0.234375 -0.40625 0.234375 -0.875q0 -0.5 -0.234375 -0.859375q-0.21875 -0.375 -0.609375 -0.640625q-0.40625 -0.25 -0.953125 -0.40625q-0.546875 -0.171875 -1.171875 -0.28125q-0.453125 -0.0625 -0.734375 -0.140625q-0.28125 -0.09375 -0.453125 -0.203125q-0.171875 -0.109375 -0.234375 -0.234375q-0.0625 -0.140625 -0.0625 -0.296875q0 -0.15625 0.078125 -0.296875q0.078125 -0.140625 0.21875 -0.234375q0.15625 -0.125 0.390625 -0.1875q0.25 -0.0625 0.59375 -0.0625q0.390625 0 0.65625 0.09375q0.28125 0.09375 0.4375 0.265625q0.125 0.125 0.171875 0.28125q0.0625 0.140625 0.0625 0.3125l1.8125 0q0 -0.484375 -0.21875 -0.890625q-0.203125 -0.421875 -0.609375 -0.734375q-0.40625 -0.296875 -1.0 -0.4687519q-0.578125 -0.171875 -1.3125 -0.171875q-0.703125 0 -1.265625 0.1875q-0.5625 0.1718769 -0.953125 0.4687519q-0.390625 0.296875 -0.609375 0.703125q-0.203125 0.390625 -0.203125 0.828125q0 0.4375 0.203125 0.78125q0.21875 0.34375 0.578125 0.609375q0.359375 0.265625 0.875 0.453125q0.515625 0.1875 1.125 0.3125q0.484375 0.09375 0.796875 0.1875q0.328125 0.078125 0.53125 0.1875q0.1875 0.109375 0.25 0.234375q0.078125 0.125 0.078125 0.28125z" fill-rule="nonzero"/><path fill="#4a9fea" d="m16.89758 155.58864l0 0c0 -2.965866 2.404314 -5.3701935 5.370186 -5.3701935l135.99979 0c1.4242706 0 2.7901917 0.5657959 3.7973022 1.5728912c1.0070953 1.0071106 1.5728912 2.3730469 1.5728912 3.7973022l0 21.480103c0 2.965866 -2.4043121 5.370178 -5.3701935 5.370178l-135.99979 0c-2.9658718 0 -5.370186 -2.4043121 -5.370186 -5.370178z" fill-rule="evenodd"/><path stroke="#4a9fea" stroke-width="2.0" stroke-linejoin="round" stroke-linecap="butt" d="m16.89758 155.58864l0 0c0 -2.965866 2.404314 -5.3701935 5.370186 -5.3701935l135.99979 0c1.4242706 0 2.7901917 0.5657959 3.7973022 1.5728912c1.0070953 1.0071106 1.5728912 2.3730469 1.5728912 3.7973022l0 21.480103c0 2.965866 -2.4043121 5.370178 -5.3701935 5.370178l-135.99979 0c-2.9658718 0 -5.370186 -2.4043121 -5.370186 -5.370178z" fill-rule="evenodd"/><path fill="#ffffff" d="m69.71151 168.15994l-1.828125 0q-0.03125 0.4375 -0.15625 0.75q-0.109375 0.296875 -0.3125 0.484375q-0.203125 0.203125 -0.5 0.296875q-0.28125 0.078125 -0.625 0.078125q-0.28125 0 -0.5 -0.0625q-0.203125 -0.0625 -0.390625 -0.1875q-0.15625 -0.109375 -0.28125 -0.28125q-0.125 -0.1875 -0.21875 -0.40625q-0.125 -0.34375 -0.1875 -0.78125q-0.0625 -0.453125 -0.0625 -1.015625l0 -1.28125q0 -0.421875 0.03125 -0.78125q0.046875 -0.359375 0.125 -0.65625q0.109375 -0.390625 0.296875 -0.671875q0.1875 -0.296875 0.453125 -0.453125q0.15625 -0.09375 0.34375 -0.140625q0.1875 -0.046875 0.390625 -0.046875q0.40625 0 0.6875 0.109375q0.296875 0.109375 0.5 0.3125q0.1875 0.21875 0.28125 0.546875q0.109375 0.3125 0.125 0.734375l1.828125 0q-0.0625 -0.75 -0.3125 -1.328125q-0.25 -0.59375 -0.671875 -1.015625q-0.4375 -0.40625 -1.046875 -0.625q-0.609375 -0.21875 -1.390625 -0.21875q-0.515625 0 -0.984375 0.140625q-0.453125 0.125 -0.84375 0.375q-0.421875 0.28125 -0.765625 0.71875q-0.328125 0.421875 -0.546875 0.953125q-0.171875 0.453125 -0.265625 0.96875q-0.09375 0.515625 -0.09375 1.078125l0 1.28125q0 0.609375 0.09375 1.15625q0.109375 0.546875 0.296875 1.0q0.1875 0.453125 0.46875 0.84375q0.296875 0.375 0.65625 0.640625q0.390625 0.28125 0.890625 0.4375q0.5 0.15625 1.09375 0.15625q0.734375 0 1.34375 -0.21875q0.609375 -0.21875 1.0625 -0.625q0.4375 -0.40625 0.703125 -0.96875q0.265625 -0.578125 0.3125 -1.296875zm1.2325592 -0.609375l0 0.125q0 0.78125 0.21875 1.4375q0.21875 0.65625 0.65625 1.125q0.421875 0.484375 1.03125 0.765625q0.625 0.265625 1.421875 0.265625q0.796875 0 1.40625 -0.265625q0.625 -0.28125 1.046875 -0.765625q0.421875 -0.46875 0.640625 -1.125q0.21875 -0.65625 0.21875 -1.4375l0 -0.125q0 -0.78125 -0.21875 -1.421875q-0.21875 -0.65625 -0.640625 -1.140625q-0.4375 -0.484375 -1.0625 -0.75q-0.609375 -0.28125 -1.40625 -0.28125q-0.78125 0 -1.40625 0.28125q-0.609375 0.265625 -1.03125 0.75q-0.4375 0.484375 -0.65625 1.140625q-0.21875 0.640625 -0.21875 1.421875zm1.8125 0.125l0 -0.125q0 -0.4375 0.078125 -0.8125q0.09375 -0.390625 0.265625 -0.6875q0.1875 -0.296875 0.46875 -0.453125q0.28125 -0.171875 0.6875 -0.171875q0.421875 0 0.703125 0.171875q0.28125 0.15625 0.46875 0.453125q0.171875 0.296875 0.25 0.6875q0.09375 0.375 0.09375 0.8125l0 0.125q0 0.453125 -0.09375 0.84375q-0.078125 0.375 -0.25 0.65625q-0.1875 0.296875 -0.46875 0.46875q-0.28125 0.171875 -0.6875 0.171875q-0.40625 0 -0.703125 -0.171875q-0.28125 -0.171875 -0.46875 -0.46875q-0.171875 -0.28125 -0.265625 -0.65625q-0.078125 -0.390625 -0.078125 -0.84375zm6.248184 -0.125l0 0.140625q0 0.765625 0.1875 1.421875q0.1875 0.65625 0.546875 1.125q0.34375 0.484375 0.859375 0.75q0.515625 0.265625 1.15625 0.265625q0.59375 0 1.03125 -0.21875q0.453125 -0.234375 0.78125 -0.640625l0.09375 0.734375l1.640625 0l0 -10.0l-1.8125 0l0 3.59375q-0.328125 -0.375 -0.75 -0.5625q-0.421875 -0.203125 -0.96875 -0.203125q-0.65625 0 -1.171875 0.265625q-0.515625 0.25 -0.875 0.734375q-0.359375 0.46875 -0.546875 1.140625q-0.171875 0.65625 -0.171875 1.453125zm1.796875 0.140625l0 -0.140625q0 -0.4375 0.078125 -0.828125q0.078125 -0.390625 0.25 -0.671875q0.171875 -0.296875 0.4375 -0.453125q0.28125 -0.171875 0.65625 -0.171875q0.46875 0 0.765625 0.203125q0.3125 0.203125 0.5 0.546875l0 2.859375q-0.1875 0.34375 -0.5 0.546875q-0.3125 0.203125 -0.78125 0.203125q-0.375 0 -0.640625 -0.15625q-0.265625 -0.171875 -0.4375 -0.453125q-0.171875 -0.28125 -0.25 -0.65625q-0.078125 -0.390625 -0.078125 -0.828125zm9.795059 3.5625q1.03125 0 1.78125 -0.390625q0.75 -0.390625 1.09375 -0.890625l-0.90625 -0.96875q-0.3125 0.40625 -0.8125 0.609375q-0.5 0.1875 -1.046875 0.1875q-0.375 0 -0.703125 -0.109375q-0.3125 -0.125 -0.546875 -0.328125q-0.25 -0.21875 -0.390625 -0.46875q-0.140625 -0.265625 -0.234375 -0.6875l0 -0.015625l4.78125 0l0 -0.765625q0 -0.78125 -0.21875 -1.421875q-0.21875 -0.640625 -0.625 -1.09375q-0.421875 -0.453125 -1.015625 -0.703125q-0.59375 -0.25 -1.359375 -0.25q-0.734375 0 -1.359375 0.265625q-0.625 0.265625 -1.078125 0.75q-0.453125 0.484375 -0.703125 1.15625q-0.25 0.65625 -0.25 1.46875l0 0.25q0 0.71875 0.25 1.34375q0.265625 0.609375 0.734375 1.078125q0.46875 0.453125 1.125 0.71875q0.671875 0.265625 1.484375 0.265625zm-0.203125 -5.828125q0.34375 0 0.59375 0.109375q0.265625 0.09375 0.453125 0.28125q0.1875 0.1875 0.28125 0.453125q0.109375 0.25 0.109375 0.53125l0 0.140625l-2.96875 0q0.0625 -0.34375 0.1875 -0.625q0.140625 -0.28125 0.34375 -0.484375q0.1875 -0.203125 0.4375 -0.296875q0.25 -0.109375 0.5625 -0.109375zm6.623184 4.65625q0 0.5 0.328125 0.84375q0.34375 0.328125 0.921875 0.328125q0.578125 0 0.921875 -0.328125q0.34375 -0.34375 0.34375 -0.84375q0 -0.515625 -0.34375 -0.859375q-0.328125 -0.34375 -0.921875 -0.34375q-0.59375 0 -0.921875 0.359375q-0.328125 0.34375 -0.328125 0.84375zm5.982559 -2.53125l0 0.140625q0 0.765625 0.1875 1.421875q0.203125 0.65625 0.578125 1.125q0.375 0.484375 0.890625 0.75q0.53125 0.265625 1.1875 0.265625q0.328125 0 0.609375 -0.078125q0.296875 -0.0625 0.546875 -0.1875q0.15625 -0.09375 0.296875 -0.203125q0.15625 -0.125 0.28125 -0.265625l0 0.40625q0 0.359375 -0.109375 0.640625q-0.09375 0.28125 -0.28125 0.484375q-0.203125 0.203125 -0.515625 0.3125q-0.3125 0.125 -0.703125 0.125q-0.25 0 -0.484375 -0.0625q-0.234375 -0.046875 -0.453125 -0.140625q-0.21875 -0.09375 -0.421875 -0.25q-0.203125 -0.15625 -0.375 -0.359375l-0.8125 1.109375q0.234375 0.296875 0.546875 0.5q0.328125 0.21875 0.671875 0.34375q0.359375 0.140625 0.71875 0.203125q0.375 0.0625 0.6875 0.0625q0.75 0 1.359375 -0.203125q0.625 -0.1875 1.0625 -0.578125q0.4375 -0.375 0.671875 -0.9375q0.25 -0.5625 0.25 -1.28125l0 -6.8125l-1.640625 0l-0.078125 0.671875q-0.125 -0.15625 -0.28125 -0.28125q-0.15625 -0.140625 -0.34375 -0.234375q-0.234375 -0.140625 -0.53125 -0.203125q-0.296875 -0.078125 -0.65625 -0.078125q-0.671875 0 -1.203125 0.265625q-0.515625 0.25 -0.890625 0.734375q-0.375 0.46875 -0.578125 1.140625q-0.1875 0.65625 -0.1875 1.453125zm1.8125 0.140625l0 -0.140625q0 -0.4375 0.09375 -0.828125q0.09375 -0.390625 0.28125 -0.671875q0.1875 -0.296875 0.453125 -0.453125q0.28125 -0.171875 0.671875 -0.171875q0.203125 0 0.375 0.046875q0.1875 0.03125 0.34375 0.109375q0.171875 0.078125 0.3125 0.21875q0.140625 0.140625 0.234375 0.3125l0 2.984375q-0.09375 0.15625 -0.21875 0.296875q-0.125 0.125 -0.28125 0.21875q-0.15625 0.078125 -0.359375 0.125q-0.1875 0.046875 -0.421875 0.046875q-0.375 0 -0.65625 -0.15625q-0.28125 -0.171875 -0.46875 -0.453125q-0.171875 -0.28125 -0.265625 -0.65625q-0.09375 -0.390625 -0.09375 -0.828125zm10.904434 1.5q0 0.171875 -0.078125 0.3125q-0.078125 0.125 -0.234375 0.234375q-0.171875 0.109375 -0.4375 0.171875q-0.265625 0.046875 -0.609375 0.046875q-0.296875 0 -0.578125 -0.046875q-0.28125 -0.0625 -0.484375 -0.1875q-0.21875 -0.125 -0.359375 -0.328125q-0.140625 -0.21875 -0.15625 -0.5l-1.71875 0q0 0.4375 0.203125 0.859375q0.21875 0.421875 0.625 0.75q0.40625 0.34375 1.015625 0.5625q0.609375 0.203125 1.40625 0.203125q0.71875 0 1.296875 -0.15625q0.59375 -0.171875 1.015625 -0.453125q0.40625 -0.28125 0.625 -0.671875q0.234375 -0.40625 0.234375 -0.875q0 -0.5 -0.234375 -0.859375q-0.21875 -0.375 -0.609375 -0.640625q-0.40625 -0.25 -0.953125 -0.40625q-0.546875 -0.171875 -1.171875 -0.28125q-0.453125 -0.0625 -0.734375 -0.140625q-0.28125 -0.09375 -0.453125 -0.203125q-0.171875 -0.109375 -0.234375 -0.234375q-0.0625 -0.140625 -0.0625 -0.296875q0 -0.15625 0.078125 -0.296875q0.078125 -0.140625 0.21875 -0.234375q0.15625 -0.125 0.390625 -0.1875q0.25 -0.0625 0.59375 -0.0625q0.390625 0 0.65625 0.09375q0.28125 0.09375 0.4375 0.265625q0.125 0.125 0.171875 0.28125q0.0625 0.140625 0.0625 0.3125l1.8125 0q0 -0.484375 -0.21875 -0.890625q-0.203125 -0.421875 -0.609375 -0.734375q-0.40625 -0.296875 -1.0 -0.46875q-0.578125 -0.171875 -1.3125 -0.171875q-0.703125 0 -1.265625 0.1875q-0.5625 0.171875 -0.953125 0.46875q-0.390625 0.296875 -0.609375 0.703125q-0.203125 0.390625 -0.203125 0.828125q0 0.4375 0.203125 0.78125q0.21875 0.34375 0.578125 0.609375q0.359375 0.265625 0.875 0.453125q0.515625 0.1875 1.125 0.3125q0.484375 0.09375 0.796875 0.1875q0.328125 0.078125 0.53125 0.1875q0.1875 0.109375 0.25 0.234375q0.078125 0.125 0.078125 0.28125z" fill-rule="nonzero"/><path fill="#000000" fill-opacity="0.0" d="m220.20604 166.32808l-56.566925 0" fill-rule="evenodd"/><path stroke="#4a9fea" stroke-width="2.0" stroke-linejoin="round" stroke-linecap="butt" d="m220.20604 166.32808l-44.566925 0" fill-rule="evenodd"/><path fill="#4a9fea" stroke="#4a9fea" stroke-width="2.0" stroke-linecap="butt" d="m175.63911 163.02461l-9.076202 3.3034668l9.076202 3.3034668z" fill-rule="evenodd"/><path fill="#4a9fea" d="m232.21391 115.58864l0 0c0 -2.9658737 2.4043274 -5.370186 5.3701935 -5.370186l135.99979 0c1.4242554 0 2.7901917 0.56578827 3.7973022 1.5728912c1.0071106 1.007103 1.572876 2.3730316 1.572876 3.7972946l0 21.480103c0 2.965866 -2.4042969 5.370178 -5.370178 5.370178l-135.99979 0c-2.965866 0 -5.3701935 -2.4043121 -5.3701935 -5.370178z" fill-rule="evenodd"/><path stroke="#4a9fea" stroke-width="2.0" stroke-linejoin="round" stroke-linecap="butt" d="m232.21391 115.58864l0 0c0 -2.9658737 2.4043274 -5.370186 5.3701935 -5.370186l135.99979 0c1.4242554 0 2.7901917 0.56578827 3.7973022 1.5728912c1.0071106 1.007103 1.572876 2.3730316 1.572876 3.7972946l0 21.480103c0 2.965866 -2.4042969 5.370178 -5.370178 5.370178l-135.99979 0c-2.965866 0 -5.3701935 -2.4043121 -5.3701935 -5.370178z" fill-rule="evenodd"/><path fill="#ffffff" d="m289.02695 128.15994l-1.828125 0q-0.03125 0.4375 -0.15625 0.75q-0.109375 0.296875 -0.3125 0.484375q-0.203125 0.203125 -0.5 0.296875q-0.28125 0.078125 -0.625 0.078125q-0.28125 0 -0.5 -0.0625q-0.203125 -0.0625 -0.390625 -0.1875q-0.15625 -0.109375 -0.28125 -0.28125q-0.125 -0.1875 -0.21875 -0.40625q-0.125 -0.34375 -0.1875 -0.78125q-0.0625 -0.45313263 -0.0625 -1.0156326l0 -1.28125q0 -0.421875 0.03125 -0.78125q0.046875 -0.359375 0.125 -0.65625q0.109375 -0.390625 0.296875 -0.671875q0.1875 -0.296875 0.453125 -0.453125q0.15625 -0.09375 0.34375 -0.140625q0.1875 -0.046875 0.390625 -0.046875q0.40625 0 0.6875 0.109375q0.296875 0.109375 0.5 0.3125q0.1875 0.21875 0.28125 0.546875q0.109375 0.3125 0.125 0.734375l1.828125 0q-0.0625 -0.75 -0.3125 -1.328125q-0.25 -0.59375 -0.671875 -1.015625q-0.4375 -0.40625 -1.046875 -0.625q-0.609375 -0.21875 -1.390625 -0.21875q-0.515625 0 -0.984375 0.140625q-0.453125 0.125 -0.84375 0.375q-0.421875 0.28125 -0.765625 0.71875q-0.328125 0.421875 -0.546875 0.953125q-0.171875 0.453125 -0.265625 0.96875q-0.09375 0.515625 -0.09375 1.078125l0 1.28125q0 0.609375 0.09375 1.1562576q0.109375 0.546875 0.296875 1.0q0.1875 0.453125 0.46875 0.84375q0.296875 0.375 0.65625 0.640625q0.390625 0.28125 0.890625 0.4375q0.5 0.15625 1.09375 0.15625q0.734375 0 1.34375 -0.21875q0.609375 -0.21875 1.0625 -0.625q0.4375 -0.40625 0.703125 -0.96875q0.265625 -0.578125 0.3125 -1.296875zm1.232544 -0.6093826l0 0.125q0 0.7812576 0.21875 1.4375076q0.21875 0.65625 0.65625 1.125q0.421875 0.484375 1.03125 0.765625q0.625 0.265625 1.421875 0.265625q0.796875 0 1.40625 -0.265625q0.625 -0.28125 1.046875 -0.765625q0.421875 -0.46875 0.640625 -1.125q0.21875 -0.65625 0.21875 -1.4375076l0 -0.125q0 -0.78125 -0.21875 -1.421875q-0.21875 -0.65625 -0.640625 -1.140625q-0.4375 -0.484375 -1.0625 -0.75q-0.609375 -0.28125 -1.40625 -0.28125q-0.78125 0 -1.40625 0.28125q-0.609375 0.265625 -1.03125 0.75q-0.4375 0.484375 -0.65625 1.140625q-0.21875 0.640625 -0.21875 1.421875zm1.8125 0.125l0 -0.125q0 -0.4375 0.078125 -0.8125q0.09375 -0.390625 0.265625 -0.6875q0.1875 -0.296875 0.46875 -0.453125q0.28125 -0.171875 0.6875 -0.171875q0.421875 0 0.703125 0.171875q0.28125 0.15625 0.46875 0.453125q0.171875 0.296875 0.25 0.6875q0.09375 0.375 0.09375 0.8125l0 0.125q0 0.45313263 -0.09375 0.8437576q-0.078125 0.375 -0.25 0.65625q-0.1875 0.296875 -0.46875 0.46875q-0.28125 0.171875 -0.6875 0.171875q-0.40625 0 -0.703125 -0.171875q-0.28125 -0.171875 -0.46875 -0.46875q-0.171875 -0.28125 -0.265625 -0.65625q-0.078125 -0.390625 -0.078125 -0.8437576zm11.482574 -3.71875q-0.703125 0 -1.3125 0.34375q-0.59375 0.34375 -1.015625 0.9375l-0.015625 -0.15625l-0.078125 -1.0l-1.671875 0l0 7.0468826l1.796875 0l0 -4.2343826q0.125 -0.296875 0.3125 -0.515625q0.1875 -0.21875 0.453125 -0.359375q0.234375 -0.125 0.515625 -0.1875q0.28125 -0.0625 0.625 -0.0625q0.34375 0 0.71875 0.046875q0.375 0.03125 0.734375 0.125l0.265625 -1.8125q-0.21875 -0.0625 -0.5625 -0.109375q-0.34375 -0.0625 -0.765625 -0.0625zm6.357544 7.2968826q1.03125 0 1.78125 -0.390625q0.75 -0.390625 1.09375 -0.890625l-0.90625 -0.96875q-0.3125 0.40625 -0.8125 0.609375q-0.5 0.1875 -1.046875 0.1875q-0.375 0 -0.703125 -0.109375q-0.3125 -0.125 -0.546875 -0.328125q-0.25 -0.21875 -0.390625 -0.46875q-0.140625 -0.265625 -0.234375 -0.6875l0 -0.015625l4.78125 0l0 -0.7656326q0 -0.78125 -0.21875 -1.421875q-0.21875 -0.640625 -0.625 -1.09375q-0.421875 -0.453125 -1.015625 -0.703125q-0.59375 -0.25 -1.359375 -0.25q-0.734375 0 -1.359375 0.265625q-0.625 0.265625 -1.078125 0.75q-0.453125 0.484375 -0.703125 1.15625q-0.25 0.65625 -0.25 1.46875l0 0.25q0 0.7187576 0.25 1.3437576q0.265625 0.609375 0.734375 1.078125q0.46875 0.453125 1.125 0.71875q0.671875 0.265625 1.484375 0.265625zm-0.203125 -5.8281326q0.34375 0 0.59375 0.109375q0.265625 0.09375 0.453125 0.28125q0.1875 0.1875 0.28125 0.453125q0.109375 0.25 0.109375 0.53125l0 0.140625l-2.96875 0q0.0625 -0.34375 0.1875 -0.625q0.140625 -0.28125 0.34375 -0.484375q0.1875 -0.203125 0.4375 -0.296875q0.25 -0.109375 0.5625 -0.109375zm6.9981995 6.5156326l3.546875 -10.281258l-1.6875 0l-3.546875 10.281258l1.6875 0zm8.420044 -6.6093826l-1.796875 2.140625l1.15625 0.7968826l1.375 -2.3593826l1.375 2.4218826l1.15625 -0.8281326l-1.75 -2.109375l2.59375 -0.59375l-0.421875 -1.359375l-2.421875 1.0625l0.25 -2.84375l-1.421875 0l0.234375 2.796875l-2.4375 -1.078125l-0.4375 1.328125l2.546875 0.625z" fill-rule="nonzero"/><path fill="#4a9fea" d="m232.21391 170.41576l0 0c0 -2.965866 2.4043274 -5.3701935 5.3701935 -5.3701935l135.99979 0c1.4242554 0 2.7901917 0.5657959 3.7973022 1.5728912c1.0071106 1.0071106 1.572876 2.3730316 1.572876 3.7973022l0 21.480103c0 2.965866 -2.4042969 5.370178 -5.370178 5.370178l-135.99979 0c-2.965866 0 -5.3701935 -2.4043121 -5.3701935 -5.370178z" fill-rule="evenodd"/><path stroke="#4a9fea" stroke-width="2.0" stroke-linejoin="round" stroke-linecap="butt" d="m232.21391 170.41576l0 0c0 -2.965866 2.4043274 -5.3701935 5.3701935 -5.3701935l135.99979 0c1.4242554 0 2.7901917 0.5657959 3.7973022 1.5728912c1.0071106 1.0071106 1.572876 2.3730316 1.572876 3.7973022l0 21.480103c0 2.965866 -2.4042969 5.370178 -5.370178 5.370178l-135.99979 0c-2.965866 0 -5.3701935 -2.4043121 -5.3701935 -5.370178z" fill-rule="evenodd"/><path fill="#ffffff" d="m275.3578 183.48706q0 0.25 -0.109375 0.46875q-0.09375 0.203125 -0.28125 0.359375q-0.203125 0.140625 -0.484375 0.234375q-0.28125 0.078125 -0.640625 0.078125q-0.421875 0 -0.765625 -0.09375q-0.328125 -0.09375 -0.578125 -0.28125q-0.25 -0.203125 -0.390625 -0.5q-0.125 -0.3125 -0.140625 -0.734375l-1.796875 0q0 0.734375 0.28125 1.28125q0.28125 0.546875 0.78125 0.953125q0.5 0.40625 1.1875 0.625q0.703125 0.203125 1.421875 0.203125q0.71875 0 1.328125 -0.171875q0.609375 -0.171875 1.046875 -0.515625q0.453125 -0.328125 0.703125 -0.8125q0.25 -0.484375 0.25 -1.109375q0 -0.71875 -0.34375 -1.265625q-0.328125 -0.5625 -0.875 -0.984375q-0.375 -0.25 -0.828125 -0.4375q-0.4375 -0.203125 -0.921875 -0.34375q-0.453125 -0.125 -0.828125 -0.265625q-0.359375 -0.140625 -0.609375 -0.3125q-0.25 -0.171875 -0.390625 -0.390625q-0.125 -0.21875 -0.125 -0.484375q0 -0.25 0.09375 -0.46875q0.109375 -0.21875 0.296875 -0.375q0.203125 -0.15625 0.484375 -0.234375q0.28125 -0.09375 0.640625 -0.09375q0.40625 0 0.703125 0.109375q0.296875 0.09375 0.5 0.28125q0.1875 0.203125 0.28125 0.46875q0.109375 0.265625 0.125 0.578125l1.78125 0q0 -0.625 -0.25 -1.15625q-0.25 -0.546875 -0.6875 -0.9375q-0.4375 -0.375 -1.0625 -0.59375q-0.609375 -0.21875 -1.359375 -0.21875q-0.703125 0 -1.328125 0.1875q-0.609375 0.1875 -1.046875 0.53125q-0.453125 0.34375 -0.71875 0.84375q-0.25 0.484375 -0.25 1.078125q0 0.515625 0.1875 0.96875q0.203125 0.4375 0.578125 0.796875q0.375 0.375 0.96875 0.6875q0.609375 0.296875 1.390625 0.5q0.5 0.140625 0.84375 0.3125q0.34375 0.15625 0.5625 0.34375q0.203125 0.1875 0.28125 0.40625q0.09375 0.21875 0.09375 0.484375zm2.9044495 -1.109375l0 0.125q0 0.78125 0.21875 1.4375q0.21875 0.65625 0.65625 1.125q0.421875 0.484375 1.03125 0.765625q0.625 0.265625 1.421875 0.265625q0.796875 0 1.40625 -0.265625q0.625 -0.28125 1.046875 -0.765625q0.421875 -0.46875 0.640625 -1.125q0.21875 -0.65625 0.21875 -1.4375l0 -0.125q0 -0.78125 -0.21875 -1.421875q-0.21875 -0.65625 -0.640625 -1.140625q-0.4375 -0.484375 -1.0625 -0.75q-0.609375 -0.28125 -1.40625 -0.28125q-0.78125 0 -1.40625 0.28125q-0.609375 0.265625 -1.03125 0.75q-0.4375 0.484375 -0.65625 1.140625q-0.21875 0.640625 -0.21875 1.421875zm1.8125 0.125l0 -0.125q0 -0.4375 0.078125 -0.8125q0.09375 -0.390625 0.265625 -0.6875q0.1875 -0.296875 0.46875 -0.453125q0.28125 -0.171875 0.6875 -0.171875q0.421875 0 0.703125 0.171875q0.28125 0.15625 0.46875 0.453125q0.171875 0.296875 0.25 0.6875q0.09375 0.375 0.09375 0.8125l0 0.125q0 0.453125 -0.09375 0.84375q-0.078125 0.375 -0.25 0.65625q-0.1875 0.296875 -0.46875 0.46875q-0.28125 0.171875 -0.6875 0.171875q-0.40625 0 -0.703125 -0.171875q-0.28125 -0.171875 -0.46875 -0.46875q-0.171875 -0.28125 -0.265625 -0.65625q-0.078125 -0.390625 -0.078125 -0.84375zm11.029419 3.453125l1.640625 0l0 -7.046875l-1.8125 0l0 4.9375q-0.09375 0.171875 -0.21875 0.3125q-0.109375 0.140625 -0.25 0.234375q-0.1875 0.109375 -0.421875 0.171875q-0.21875 0.0625 -0.515625 0.0625q-0.3125 0 -0.53125 -0.078125q-0.21875 -0.078125 -0.359375 -0.265625q-0.140625 -0.171875 -0.203125 -0.46875q-0.0625 -0.296875 -0.0625 -0.71875l0 -4.1875l-1.8125 0l0 4.171875q0 0.796875 0.171875 1.375q0.1875 0.5625 0.515625 0.921875q0.328125 0.375 0.78125 0.546875q0.453125 0.171875 1.0 0.171875q0.609375 0 1.109375 -0.296875q0.5 -0.3125 0.859375 -0.828125l0.109375 0.984375zm8.451324 -7.171875q-0.703125 0 -1.3125 0.34375q-0.59375 0.34375 -1.015625 0.9375l-0.015625 -0.15625l-0.078125 -1.0l-1.671875 0l0 7.046875l1.796875 0l0 -4.234375q0.125 -0.296875 0.3125 -0.515625q0.1875 -0.21875 0.453125 -0.359375q0.234375 -0.125 0.515625 -0.1875q0.28125 -0.0625 0.625 -0.0625q0.34375 0 0.71875 0.046875q0.375 0.03125 0.734375 0.125l0.265625 -1.8125q-0.21875 -0.0625 -0.5625 -0.109375q-0.34375 -0.0625 -0.765625 -0.0625zm6.060669 5.859375q-0.4375 0 -0.71875 -0.171875q-0.28125 -0.1875 -0.4375 -0.46875q-0.171875 -0.296875 -0.234375 -0.671875q-0.0625 -0.375 -0.0625 -0.796875l0 -0.1875q0 -0.40625 0.0625 -0.78125q0.0625 -0.375 0.234375 -0.671875q0.171875 -0.296875 0.4375 -0.46875q0.28125 -0.171875 0.71875 -0.171875q0.296875 0 0.53125 0.109375q0.25 0.09375 0.421875 0.25q0.1875 0.171875 0.265625 0.40625q0.09375 0.234375 0.09375 0.5l1.703125 0q0 -0.625 -0.21875 -1.125q-0.21875 -0.515625 -0.609375 -0.875q-0.40625 -0.34375 -0.96875 -0.53125q-0.546875 -0.203125 -1.203125 -0.203125q-0.8125 0 -1.421875 0.28125q-0.609375 0.28125 -1.03125 0.765625q-0.421875 0.46875 -0.625 1.125q-0.203125 0.640625 -0.203125 1.390625l0 0.1875q0 0.75 0.203125 1.40625q0.21875 0.640625 0.625 1.125q0.421875 0.46875 1.03125 0.75q0.625 0.28125 1.4375 0.28125q0.609375 0 1.15625 -0.1875q0.546875 -0.203125 0.953125 -0.53125q0.40625 -0.34375 0.640625 -0.8125q0.234375 -0.46875 0.234375 -1.015625l-1.703125 0q0 0.25 -0.109375 0.453125q-0.09375 0.203125 -0.265625 0.34375q-0.1875 0.140625 -0.4375 0.21875q-0.234375 0.078125 -0.5 0.078125zm8.295074 1.4375q1.03125 0 1.78125 -0.390625q0.75 -0.390625 1.09375 -0.890625l-0.90625 -0.96875q-0.3125 0.40625 -0.8125 0.609375q-0.5 0.1875 -1.046875 0.1875q-0.375 0 -0.703125 -0.109375q-0.3125 -0.125 -0.546875 -0.328125q-0.25 -0.21875 -0.390625 -0.46875q-0.140625 -0.265625 -0.234375 -0.6875l0 -0.015625l4.78125 0l0 -0.765625q0 -0.78125 -0.21875 -1.421875q-0.21875 -0.640625 -0.625 -1.09375q-0.421875 -0.453125 -1.015625 -0.703125q-0.59375 -0.25 -1.359375 -0.25q-0.734375 0 -1.359375 0.265625q-0.625 0.265625 -1.078125 0.75q-0.453125 0.484375 -0.703125 1.15625q-0.25 0.65625 -0.25 1.46875l0 0.25q0 0.71875 0.25 1.34375q0.265625 0.609375 0.734375 1.078125q0.46875 0.453125 1.125 0.71875q0.671875 0.265625 1.484375 0.265625zm-0.203125 -5.828125q0.34375 0 0.59375 0.109375q0.265625 0.09375 0.453125 0.28125q0.1875 0.1875 0.28125 0.453125q0.109375 0.25 0.109375 0.53125l0 0.140625l-2.96875 0q0.0625 -0.34375 0.1875 -0.625q0.140625 -0.28125 0.34375 -0.484375q0.1875 -0.203125 0.4375 -0.296875q0.25 -0.109375 0.5625 -0.109375zm9.326294 3.765625q0 0.171875 -0.078125 0.3125q-0.078125 0.125 -0.234375 0.234375q-0.171875 0.109375 -0.4375 0.171875q-0.265625 0.046875 -0.609375 0.046875q-0.296875 0 -0.578125 -0.046875q-0.28125 -0.0625 -0.484375 -0.1875q-0.21875 -0.125 -0.359375 -0.328125q-0.140625 -0.21875 -0.15625 -0.5l-1.71875 0q0 0.4375 0.203125 0.859375q0.21875 0.421875 0.625 0.75q0.40625 0.34375 1.015625 0.5625q0.609375 0.203125 1.40625 0.203125q0.71875 0 1.296875 -0.15625q0.59375 -0.171875 1.015625 -0.453125q0.40625 -0.28125 0.625 -0.671875q0.234375 -0.40625 0.234375 -0.875q0 -0.5 -0.234375 -0.859375q-0.21875 -0.375 -0.609375 -0.640625q-0.40625 -0.25 -0.953125 -0.40625q-0.546875 -0.171875 -1.171875 -0.28125q-0.453125 -0.0625 -0.734375 -0.140625q-0.28125 -0.09375 -0.453125 -0.203125q-0.171875 -0.109375 -0.234375 -0.234375q-0.0625 -0.140625 -0.0625 -0.296875q0 -0.15625 0.078125 -0.296875q0.078125 -0.140625 0.21875 -0.234375q0.15625 -0.125 0.390625 -0.1875q0.25 -0.0625 0.59375 -0.0625q0.390625 0 0.65625 0.09375q0.28125 0.09375 0.4375 0.265625q0.125 0.125 0.171875 0.28125q0.0625 0.140625 0.0625 0.3125l1.8125 0q0 -0.484375 -0.21875 -0.890625q-0.203125 -0.421875 -0.609375 -0.734375q-0.40625 -0.296875 -1.0 -0.46875q-0.578125 -0.171875 -1.3125 -0.171875q-0.703125 0 -1.265625 0.1875q-0.5625 0.171875 -0.953125 0.46875q-0.390625 0.296875 -0.609375 0.703125q-0.203125 0.390625 -0.203125 0.828125q0 0.4375 0.203125 0.78125q0.21875 0.34375 0.578125 0.609375q0.359375 0.265625 0.875 0.453125q0.515625 0.1875 1.125 0.3125q0.484375 0.09375 0.796875 0.1875q0.328125 0.078125 0.53125 0.1875q0.1875 0.109375 0.25 0.234375q0.078125 0.125 0.078125 0.28125zm5.6700745 2.75l3.546875 -10.28125l-1.6875 0l-3.546875 10.28125l1.6875 0zm8.420044 -6.609375l-1.796875 2.140625l1.15625 0.796875l1.375 -2.359375l1.375 2.421875l1.15625 -0.828125l-1.75 -2.109375l2.59375 -0.59375l-0.421875 -1.359375l-2.421875 1.0625l0.25 -2.84375l-1.421875 0l0.234375 2.796875l-2.4375 -1.078125l-0.4375 1.328125l2.546875 0.625z" fill-rule="nonzero"/><path fill="#ffffff" d="m447.89233 147.13124l146.74017 0l0 38.393692l-146.74017 0z" fill-rule="evenodd"/><path stroke="#434343" stroke-width="2.0" stroke-linejoin="round" stroke-linecap="butt" d="m447.89233 147.13124l146.74017 0l0 38.393692l-146.74017 0z" fill-rule="evenodd"/><path fill="#434343" d="m504.62723 170.0187l0 -3.734375l-3.390625 0l0 1.375l1.5625 0l0 1.71875q-0.078125 0.078125 -0.21875 0.15625q-0.125 0.078125 -0.3125 0.125q-0.1875 0.0625 -0.390625 0.09375q-0.203125 0.03125 -0.421875 0.03125q-0.359375 0 -0.640625 -0.109375q-0.265625 -0.109375 -0.46875 -0.3125q-0.125 -0.125 -0.234375 -0.28125q-0.09375 -0.171875 -0.171875 -0.359375q-0.125 -0.328125 -0.203125 -0.75q-0.0625 -0.421875 -0.0625 -0.9375l0 -1.296875q0 -0.40625 0.046875 -0.75q0.046875 -0.359375 0.140625 -0.640625q0.125 -0.375 0.296875 -0.640625q0.1875 -0.28125 0.40625 -0.453125q0.171875 -0.125 0.359375 -0.1875q0.203125 -0.0625 0.40625 -0.0625q0.375 0 0.65625 0.109375q0.28125 0.09375 0.46875 0.296875q0.15625 0.171875 0.25 0.4375q0.09375 0.265625 0.140625 0.609375l1.78125 0q-0.078125 -0.671875 -0.3125 -1.21875q-0.21875 -0.546875 -0.625 -0.9375q-0.421875 -0.375 -1.015625 -0.578125q-0.59375 -0.203125 -1.390625 -0.203125q-0.515625 0 -0.984375 0.15625q-0.46875 0.140625 -0.875 0.40625q-0.328125 0.25 -0.625 0.59375q-0.28125 0.34375 -0.484375 0.765625q-0.234375 0.46875 -0.359375 1.0625q-0.125 0.578125 -0.125 1.25l0 1.28125q0 0.71875 0.125 1.328125q0.125 0.59375 0.375 1.078125q0.21875 0.4375 0.53125 0.78125q0.3125 0.328125 0.6875 0.5625q0.375 0.234375 0.828125 0.34375q0.46875 0.125 0.984375 0.125q0.609375 0 1.125 -0.109375q0.515625 -0.109375 0.9375 -0.28125q0.421875 -0.1875 0.71875 -0.40625q0.3125 -0.21875 0.484375 -0.4375zm2.045044 -5.9375l0 1.484375l2.0 0l0 4.09375l-2.0 0l0 1.46875l5.7344055 0l0 -1.46875l-1.9062805 0l0 -5.578125l-3.828125 0zm1.875 -1.796875q0 0.203125 0.0625 0.390625q0.078125 0.171875 0.21875 0.296875q0.140625 0.125 0.328125 0.203125q0.1875 0.078125 0.421875 0.078125q0.484375 0 0.765625 -0.265625q0.28125 -0.28125 0.28125 -0.703125q0 -0.421875 -0.28125 -0.6875q-0.28125 -0.28125 -0.765625 -0.28125q-0.234375 0 -0.421875 0.078125q-0.1875 0.0625 -0.328125 0.1875q-0.140625 0.140625 -0.21875 0.328125q-0.0625 0.171875 -0.0625 0.375zm8.951324 0.078125l-1.8125 0l0 1.71875l-1.609375 0l0 1.34375l1.609375 0l0 3.203125q0 0.6875 0.1875 1.1875q0.1875 0.5 0.515625 0.8125q0.34375 0.328125 0.8125 0.484375q0.46875 0.15625 1.046875 0.15625q0.296875 0 0.609375 -0.03125q0.3125 -0.03125 0.59375 -0.078125q0.28125 -0.0625 0.53125 -0.140625q0.265625 -0.078125 0.453125 -0.1875l-0.171875 -1.25q-0.125 0.03125 -0.296875 0.078125q-0.171875 0.03125 -0.375 0.046875q-0.203125 0.03125 -0.421875 0.0625q-0.21875 0.015625 -0.421875 0.015625q-0.28125 0 -0.515625 -0.0625q-0.234375 -0.078125 -0.390625 -0.234375q-0.171875 -0.140625 -0.265625 -0.390625q-0.078125 -0.265625 -0.078125 -0.65625l0 -3.015625l2.625 0l0 -1.34375l-2.625 0l0 -1.71875zm10.873169 8.765625l0 -9.46875l-1.8125 0l0 3.875l-2.6875 0l0 -3.875l-1.8125 0l0 9.46875l1.8125 0l0 -4.109375l2.6875 0l0 4.109375l1.8125 0zm6.404419 0l1.640625 0l0 -7.046875l-1.8125 0l0 4.9375q-0.09375 0.171875 -0.21875 0.3125q-0.109375 0.140625 -0.25 0.234375q-0.1875 0.109375 -0.421875 0.171875q-0.21875 0.0625 -0.515625 0.0625q-0.3125 0 -0.53125 -0.078125q-0.21875 -0.078125 -0.359375 -0.265625q-0.140625 -0.171875 -0.203125 -0.46875q-0.0625 -0.296875 -0.0625 -0.71875l0 -4.1875l-1.8125 0l0 4.171875q0 0.796875 0.171875 1.375q0.1875 0.5625 0.515625 0.921875q0.328125 0.375 0.78125 0.546875q0.453125 0.171875 1.0 0.171875q0.609375 0 1.109375 -0.296875q0.5 -0.3125 0.859375 -0.828125l0.109375 0.984375zm9.74823 -3.453125l0 -0.125q0 -0.640625 -0.125 -1.203125q-0.109375 -0.5625 -0.34375 -1.015625q-0.140625 -0.28125 -0.34375 -0.515625q-0.1875 -0.234375 -0.4375 -0.40625q-0.296875 -0.21875 -0.6875 -0.328125q-0.375 -0.125 -0.828125 -0.125q-0.328125 0 -0.609375 0.078125q-0.28125 0.0625 -0.53125 0.203125q-0.15625 0.078125 -0.3125 0.21875q-0.15625 0.125 -0.28125 0.265625l0 -3.59375l-1.8125 0l0 10.0l1.625 0l0.09375 -0.75q0.109375 0.140625 0.234375 0.265625q0.125 0.125 0.265625 0.21875q0.265625 0.1875 0.59375 0.28125q0.34375 0.109375 0.75 0.109375q0.453125 0 0.828125 -0.109375q0.375 -0.109375 0.671875 -0.328125q0.328125 -0.234375 0.5625 -0.578125q0.25 -0.34375 0.40625 -0.765625q0.140625 -0.375 0.203125 -0.828125q0.078125 -0.453125 0.078125 -0.96875zm-1.8125 -0.125l0 0.125q0 0.28125 -0.03125 0.53125q-0.015625 0.25 -0.0625 0.46875q-0.0625 0.296875 -0.203125 0.53125q-0.125 0.21875 -0.328125 0.359375q-0.140625 0.109375 -0.34375 0.171875q-0.1875 0.0625 -0.421875 0.0625q-0.28125 0 -0.5 -0.0625q-0.21875 -0.078125 -0.375 -0.203125q-0.140625 -0.09375 -0.25 -0.21875q-0.09375 -0.140625 -0.171875 -0.296875l0 -2.8125q0.0625 -0.125 0.125 -0.234375q0.078125 -0.109375 0.15625 -0.1875q0.1875 -0.171875 0.421875 -0.265625q0.25 -0.09375 0.578125 -0.09375q0.234375 0 0.421875 0.0625q0.203125 0.046875 0.34375 0.15625q0.234375 0.1875 0.34375 0.40625q0.109375 0.203125 0.1875 0.46875q0.0625 0.21875 0.078125 0.484375q0.03125 0.265625 0.03125 0.546875z" fill-rule="nonzero"/><path fill="#000000" fill-opacity="0.0" d="m447.89233 166.32808l-56.566925 0" fill-rule="evenodd"/><path stroke="#434343" stroke-width="2.0" stroke-linejoin="round" stroke-linecap="butt" d="m447.8923 166.32808l-44.566925 0" fill-rule="evenodd"/><path fill="#434343" stroke="#434343" stroke-width="2.0" stroke-linecap="butt" d="m403.32538 163.02461l-9.076202 3.3034668l9.076202 3.3034668z" fill-rule="evenodd"/><path fill="#000000" fill-opacity="0.0" d="m128.12599 281.27298l341.03937 0l0 32.22046l-341.03937 0z" fill-rule="evenodd"/><path fill="#000000" d="m142.90724 300.5886q0 -0.25 -0.078125 -0.453125q-0.078125 -0.203125 -0.28125 -0.375q-0.203125 -0.171875 -0.5625 -0.34375q-0.359375 -0.171875 -0.9375 -0.359375q-0.640625 -0.203125 -1.21875 -0.453125q-0.578125 -0.265625 -1.015625 -0.609375q-0.4375 -0.359375 -0.703125 -0.8125q-0.25 -0.46875 -0.25 -1.078125q0 -0.59375 0.265625 -1.078125q0.265625 -0.484375 0.734375 -0.828125q0.46875 -0.359375 1.109375 -0.546875q0.640625 -0.1875 1.40625 -0.1875q1.046875 0 1.828125 0.390625q0.78125 0.375 1.203125 1.03125q0.4375 0.65625 0.4375 1.5l-1.9375 0q0 -0.421875 -0.171875 -0.734375q-0.171875 -0.3125 -0.515625 -0.5q-0.34375 -0.1875 -0.875 -0.1875q-0.515625 0 -0.859375 0.15625q-0.328125 0.15625 -0.5 0.421875q-0.171875 0.25 -0.171875 0.5625q0 0.25 0.125 0.453125q0.125 0.1875 0.359375 0.359375q0.25 0.15625 0.59375 0.3125q0.359375 0.15625 0.8125 0.296875q0.78125 0.234375 1.359375 0.53125q0.59375 0.28125 0.984375 0.65625q0.40625 0.359375 0.609375 0.828125q0.203125 0.453125 0.203125 1.03125q0 0.625 -0.25 1.125q-0.234375 0.484375 -0.6875 0.828125q-0.453125 0.328125 -1.09375 0.5q-0.625 0.171875 -1.40625 0.171875q-0.703125 0 -1.390625 -0.171875q-0.6875 -0.1875 -1.25 -0.5625q-0.546875 -0.390625 -0.875 -0.96875q-0.328125 -0.59375 -0.328125 -1.390625l1.953125 0q0 0.4375 0.140625 0.75q0.140625 0.3125 0.390625 0.5q0.25 0.1875 0.59375 0.28125q0.34375 0.078125 0.765625 0.078125q0.5 0 0.828125 -0.140625q0.328125 -0.15625 0.484375 -0.40625q0.171875 -0.25 0.171875 -0.578125zm6.065811 1.15625q0.34375 0 0.609375 -0.125q0.265625 -0.140625 0.421875 -0.390625q0.15625 -0.25 0.15625 -0.578125l1.765625 0q0 0.75 -0.390625 1.328125q-0.390625 0.5625 -1.0625 0.890625q-0.65625 0.328125 -1.46875 0.328125q-0.8125 0 -1.421875 -0.265625q-0.609375 -0.28125 -1.015625 -0.765625q-0.40625 -0.484375 -0.609375 -1.125q-0.203125 -0.65625 -0.203125 -1.390625l0 -0.1875q0 -0.75 0.203125 -1.390625q0.203125 -0.65625 0.609375 -1.140625q0.40625 -0.484375 1.0 -0.75q0.609375 -0.28125 1.421875 -0.28125q0.875 0 1.53125 0.328125q0.65625 0.328125 1.03125 0.953125q0.375 0.609375 0.375 1.453125l-1.765625 0q0 -0.359375 -0.140625 -0.640625q-0.140625 -0.28125 -0.40625 -0.453125q-0.265625 -0.171875 -0.65625 -0.171875q-0.40625 0 -0.671875 0.171875q-0.25 0.171875 -0.390625 0.46875q-0.140625 0.296875 -0.203125 0.671875q-0.0625 0.375 -0.0625 0.78125l0 0.1875q0 0.40625 0.046875 0.78125q0.0625 0.375 0.203125 0.671875q0.15625 0.296875 0.40625 0.46875q0.265625 0.171875 0.6875 0.171875zm5.8657837 -8.671875l0 10.0l-1.875 0l0 -10.0l1.875 0zm-0.265625 6.234375l-0.515625 0q0 -0.734375 0.1875 -1.359375q0.1875 -0.625 0.53125 -1.078125q0.359375 -0.46875 0.84375 -0.71875q0.5 -0.25 1.09375 -0.25q0.53125 0 0.953125 0.15625q0.421875 0.140625 0.734375 0.46875q0.3125 0.3125 0.484375 0.84375q0.171875 0.515625 0.171875 1.25l0 4.453125l-1.890625 0l0 -4.46875q0 -0.46875 -0.140625 -0.734375q-0.125 -0.265625 -0.375 -0.375q-0.25 -0.125 -0.625 -0.125q-0.40625 0 -0.6875 0.15625q-0.28125 0.140625 -0.453125 0.40625q-0.15625 0.265625 -0.234375 0.625q-0.078125 0.34375 -0.078125 0.75zm9.136414 3.890625q-0.8125 0 -1.46875 -0.25q-0.65625 -0.265625 -1.109375 -0.734375q-0.453125 -0.46875 -0.6875 -1.09375q-0.234375 -0.625 -0.234375 -1.328125l0 -0.265625q0 -0.796875 0.21875 -1.453125q0.234375 -0.671875 0.65625 -1.15625q0.421875 -0.484375 1.03125 -0.75q0.625 -0.265625 1.390625 -0.265625q0.75 0 1.328125 0.25q0.578125 0.25 0.96875 0.703125q0.390625 0.453125 0.59375 1.09375q0.203125 0.625 0.203125 1.40625l0 0.78125l-5.59375 0l0 -1.25l3.75 0l0 -0.140625q0 -0.390625 -0.140625 -0.703125q-0.140625 -0.3125 -0.421875 -0.484375q-0.28125 -0.1875 -0.71875 -0.1875q-0.359375 0 -0.625 0.171875q-0.265625 0.15625 -0.4375 0.453125q-0.171875 0.28125 -0.25 0.671875q-0.078125 0.390625 -0.078125 0.859375l0 0.265625q0 0.421875 0.109375 0.78125q0.125 0.359375 0.34375 0.625q0.234375 0.25 0.546875 0.40625q0.328125 0.140625 0.75 0.140625q0.5 0 0.9375 -0.203125q0.4375 -0.203125 0.765625 -0.609375l0.90625 1.0q-0.21875 0.3125 -0.609375 0.609375q-0.375 0.296875 -0.90625 0.484375q-0.53125 0.171875 -1.21875 0.171875zm5.838333 -5.703125l0 5.578125l-1.890625 0l0 -7.046875l1.765625 0l0.125 1.46875zm-0.265625 1.8125l-0.515625 0q0 -0.734375 0.171875 -1.359375q0.1875 -0.625 0.53125 -1.078125q0.34375 -0.46875 0.859375 -0.71875q0.515625 -0.25 1.1875 -0.25q0.46875 0 0.859375 0.140625q0.390625 0.140625 0.671875 0.4375q0.28125 0.296875 0.4375 0.765625q0.15625 0.46875 0.15625 1.125l0 4.703125l-1.875 0l0 -4.484375q0 -0.484375 -0.125 -0.75q-0.125 -0.265625 -0.375 -0.359375q-0.234375 -0.109375 -0.5625 -0.109375q-0.359375 0 -0.640625 0.15625q-0.265625 0.140625 -0.4375 0.40625q-0.171875 0.265625 -0.265625 0.625q-0.078125 0.34375 -0.078125 0.75zm4.1875 -0.21875l-0.671875 0.09375q0 -0.703125 0.171875 -1.28125q0.171875 -0.59375 0.515625 -1.046875q0.34375 -0.453125 0.84375 -0.703125q0.515625 -0.25 1.1875 -0.25q0.5 0 0.90625 0.15625q0.421875 0.140625 0.71875 0.453125q0.296875 0.3125 0.453125 0.828125q0.171875 0.5 0.171875 1.234375l0 4.5l-1.890625 0l0 -4.5q0 -0.484375 -0.125 -0.734375q-0.125 -0.265625 -0.359375 -0.359375q-0.234375 -0.109375 -0.5625 -0.109375q-0.34375 0 -0.59375 0.140625q-0.25 0.125 -0.421875 0.359375q-0.171875 0.234375 -0.265625 0.546875q-0.078125 0.3125 -0.078125 0.671875zm9.544968 2.390625l0 -3.125q0 -0.34375 -0.109375 -0.578125q-0.109375 -0.25 -0.34375 -0.390625q-0.234375 -0.140625 -0.59375 -0.140625q-0.3125 0 -0.546875 0.109375q-0.21875 0.109375 -0.34375 0.3125q-0.125 0.1875 -0.125 0.453125l-1.875 0q0 -0.4375 0.203125 -0.84375q0.21875 -0.40625 0.609375 -0.703125q0.390625 -0.3125 0.9375 -0.484375q0.5625 -0.1875 1.234375 -0.1875q0.828125 0 1.46875 0.28125q0.640625 0.265625 1.0 0.8125q0.375 0.546875 0.375 1.359375l0 3.015625q0 0.578125 0.0625 0.953125q0.078125 0.359375 0.21875 0.640625l0 0.109375l-1.90625 0q-0.125 -0.28125 -0.203125 -0.71875q-0.0625 -0.4375 -0.0625 -0.875zm0.25 -2.6875l0.015625 1.046875l-1.0625 0q-0.359375 0 -0.640625 0.09375q-0.265625 0.078125 -0.453125 0.234375q-0.171875 0.15625 -0.25 0.359375q-0.078125 0.203125 -0.078125 0.4375q0 0.234375 0.109375 0.4375q0.109375 0.1875 0.3125 0.296875q0.21875 0.109375 0.5 0.109375q0.421875 0 0.734375 -0.171875q0.3125 -0.171875 0.484375 -0.421875q0.171875 -0.25 0.171875 -0.46875l0.5 0.796875q-0.109375 0.265625 -0.296875 0.5625q-0.171875 0.28125 -0.453125 0.53125q-0.265625 0.25 -0.65625 0.40625q-0.375 0.15625 -0.90625 0.15625q-0.671875 0 -1.21875 -0.265625q-0.53125 -0.265625 -0.859375 -0.734375q-0.3125 -0.484375 -0.3125 -1.109375q0 -0.546875 0.203125 -0.96875q0.21875 -0.4375 0.625 -0.734375q0.40625 -0.296875 1.015625 -0.4375q0.625 -0.15625 1.421875 -0.15625l1.09375 0zm10.882645 -5.21875l0 9.5l-1.875 0l0 -7.328125l-2.25 0.703125l0 -1.46875l3.921875 -1.40625l0.203125 0zm3.240509 8.59375q0 -0.421875 0.296875 -0.6875q0.296875 -0.28125 0.765625 -0.28125q0.484375 0 0.765625 0.28125q0.296875 0.265625 0.296875 0.6875q0 0.421875 -0.296875 0.703125q-0.28125 0.28125 -0.765625 0.28125q-0.46875 0 -0.765625 -0.28125q-0.296875 -0.28125 -0.296875 -0.703125z" fill-rule="nonzero"/><path fill="#000000" d="m211.8565 298.35422l0 3.46875q-0.1875 0.265625 -0.578125 0.59375q-0.375 0.3125 -1.046875 0.546875q-0.671875 0.234375 -1.734375 0.234375q-0.859375 0 -1.59375 -0.296875q-0.71875 -0.296875 -1.25 -0.875q-0.53125 -0.59375 -0.828125 -1.421875q-0.28125 -0.84375 -0.28125 -1.90625l0 -0.734375q0 -1.0625 0.25 -1.890625q0.25 -0.828125 0.734375 -1.40625q0.484375 -0.59375 1.1875 -0.890625q0.71875 -0.3125 1.640625 -0.3125q1.078125 0 1.8125 0.375q0.734375 0.375 1.140625 1.03125q0.421875 0.65625 0.546875 1.5l-1.265625 0q-0.078125 -0.515625 -0.328125 -0.9375q-0.25 -0.421875 -0.71875 -0.671875q-0.453125 -0.265625 -1.1875 -0.265625q-0.65625 0 -1.140625 0.25q-0.484375 0.234375 -0.796875 0.6875q-0.3125 0.4375 -0.46875 1.078125q-0.140625 0.640625 -0.140625 1.4375l0 0.75q0 0.828125 0.1875 1.46875q0.1875 0.640625 0.546875 1.09375q0.359375 0.453125 0.859375 0.6875q0.5 0.234375 1.09375 0.234375q0.671875 0 1.09375 -0.109375q0.421875 -0.125 0.65625 -0.28125q0.234375 -0.15625 0.359375 -0.296875l0 -2.125l-2.203125 0l0 -1.015625l3.453125 0zm1.5628662 1.28125l0 -0.15625q0 -0.765625 0.21875 -1.40625q0.234375 -0.65625 0.640625 -1.140625q0.421875 -0.484375 1.015625 -0.75q0.59375 -0.28125 1.328125 -0.28125q0.734375 0 1.328125 0.28125q0.609375 0.265625 1.015625 0.75q0.421875 0.484375 0.640625 1.140625q0.234375 0.640625 0.234375 1.40625l0 0.15625q0 0.75 -0.234375 1.40625q-0.21875 0.65625 -0.640625 1.140625q-0.40625 0.484375 -1.0 0.75q-0.59375 0.265625 -1.328125 0.265625q-0.75 0 -1.34375 -0.265625q-0.59375 -0.265625 -1.015625 -0.75q-0.40625 -0.484375 -0.640625 -1.140625q-0.21875 -0.65625 -0.21875 -1.40625zm1.203125 -0.15625l0 0.15625q0 0.515625 0.125 0.984375q0.125 0.46875 0.375 0.828125q0.25 0.359375 0.625 0.5625q0.390625 0.203125 0.890625 0.203125q0.484375 0 0.859375 -0.203125q0.375 -0.203125 0.625 -0.5625q0.25 -0.359375 0.375 -0.828125q0.125 -0.46875 0.125 -0.984375l0 -0.15625q0 -0.515625 -0.125 -0.984375q-0.125 -0.46875 -0.375 -0.828125q-0.25 -0.359375 -0.625 -0.5625q-0.375 -0.21875 -0.875 -0.21875q-0.5 0 -0.875 0.21875q-0.375 0.203125 -0.625 0.5625q-0.25 0.359375 -0.375 0.828125q-0.125 0.46875 -0.125 0.984375zm6.3980713 0.15625l0 -0.15625q0 -0.765625 0.21875 -1.40625q0.234375 -0.65625 0.640625 -1.140625q0.421875 -0.484375 1.015625 -0.75q0.59375 -0.28125 1.328125 -0.28125q0.734375 0 1.328125 0.28125q0.609375 0.265625 1.015625 0.75q0.421875 0.484375 0.640625 1.140625q0.234375 0.640625 0.234375 1.40625l0 0.15625q0 0.75 -0.234375 1.40625q-0.21875 0.65625 -0.640625 1.140625q-0.40625 0.484375 -1.0 0.75q-0.59375 0.265625 -1.328125 0.265625q-0.75 0 -1.34375 -0.265625q-0.59375 -0.265625 -1.015625 -0.75q-0.40625 -0.484375 -0.640625 -1.140625q-0.21875 -0.65625 -0.21875 -1.40625zm1.203125 -0.15625l0 0.15625q0 0.515625 0.125 0.984375q0.125 0.46875 0.375 0.828125q0.25 0.359375 0.625 0.5625q0.390625 0.203125 0.890625 0.203125q0.484375 0 0.859375 -0.203125q0.375 -0.203125 0.625 -0.5625q0.25 -0.359375 0.375 -0.828125q0.125 -0.46875 0.125 -0.984375l0 -0.15625q0 -0.515625 -0.125 -0.984375q-0.125 -0.46875 -0.375 -0.828125q-0.25 -0.359375 -0.625 -0.5625q-0.375 -0.21875 -0.875 -0.21875q-0.5 0 -0.875 0.21875q-0.375 0.203125 -0.625 0.5625q-0.25 0.359375 -0.375 0.828125q-0.125 0.46875 -0.125 0.984375zm11.288696 -3.453125l1.09375 0l0 6.890625q0 0.9375 -0.390625 1.59375q-0.375 0.65625 -1.046875 1.0q-0.671875 0.34375 -1.546875 0.34375q-0.359375 0 -0.859375 -0.125q-0.484375 -0.109375 -0.96875 -0.375q-0.46875 -0.265625 -0.78125 -0.71875l0.625 -0.71875q0.453125 0.53125 0.9375 0.734375q0.484375 0.21875 0.953125 0.21875q0.578125 0 0.984375 -0.21875q0.421875 -0.21875 0.65625 -0.640625q0.234375 -0.421875 0.234375 -1.03125l0 -5.40625l0.109375 -1.546875zm-4.859375 3.609375l0 -0.140625q0 -0.8125 0.1875 -1.46875q0.203125 -0.65625 0.5625 -1.125q0.359375 -0.484375 0.875 -0.734375q0.515625 -0.265625 1.15625 -0.265625q0.671875 0 1.15625 0.234375q0.5 0.234375 0.84375 0.671875q0.359375 0.4375 0.5625 1.0625q0.203125 0.609375 0.28125 1.390625l0 0.59375q-0.078125 0.78125 -0.28125 1.40625q-0.203125 0.609375 -0.5625 1.046875q-0.34375 0.4375 -0.84375 0.671875q-0.5 0.21875 -1.171875 0.21875q-0.625 0 -1.140625 -0.265625q-0.5 -0.265625 -0.875 -0.734375q-0.359375 -0.484375 -0.5625 -1.140625q-0.1875 -0.65625 -0.1875 -1.421875zm1.203125 -0.140625l0 0.140625q0 0.515625 0.109375 0.984375q0.109375 0.46875 0.328125 0.828125q0.234375 0.34375 0.578125 0.546875q0.359375 0.1875 0.84375 0.1875q0.59375 0 0.984375 -0.25q0.390625 -0.265625 0.625 -0.671875q0.234375 -0.421875 0.359375 -0.90625l0 -1.5625q-0.0625 -0.359375 -0.21875 -0.6875q-0.140625 -0.34375 -0.375 -0.609375q-0.234375 -0.265625 -0.578125 -0.421875q-0.328125 -0.15625 -0.78125 -0.15625q-0.5 0 -0.859375 0.203125q-0.34375 0.203125 -0.578125 0.5625q-0.21875 0.359375 -0.328125 0.828125q-0.109375 0.453125 -0.109375 0.984375zm7.8746796 -6.421875l0 10.0l-1.203125 0l0 -10.0l1.203125 0zm4.865921 10.125q-0.734375 0 -1.34375 -0.25q-0.59375 -0.25 -1.015625 -0.703125q-0.421875 -0.453125 -0.65625 -1.078125q-0.21875 -0.625 -0.21875 -1.375l0 -0.265625q0 -0.859375 0.25 -1.53125q0.25 -0.671875 0.6875 -1.140625q0.4375 -0.46875 0.984375 -0.703125q0.5625 -0.25 1.15625 -0.25q0.75 0 1.296875 0.265625q0.546875 0.25 0.890625 0.71875q0.359375 0.46875 0.53125 1.09375q0.171875 0.625 0.171875 1.375l0 0.53125l-5.25 0l0 -0.984375l4.046875 0l0 -0.078125q-0.03125 -0.46875 -0.203125 -0.90625q-0.15625 -0.453125 -0.515625 -0.734375q-0.359375 -0.296875 -0.96875 -0.296875q-0.40625 0 -0.765625 0.171875q-0.34375 0.171875 -0.59375 0.515625q-0.234375 0.34375 -0.375 0.828125q-0.140625 0.484375 -0.140625 1.125l0 0.265625q0 0.515625 0.140625 0.953125q0.140625 0.4375 0.40625 0.765625q0.28125 0.328125 0.65625 0.515625q0.390625 0.1875 0.890625 0.1875q0.640625 0 1.078125 -0.25q0.4375 -0.265625 0.78125 -0.703125l0.71875 0.578125q-0.21875 0.34375 -0.578125 0.65625q-0.34375 0.3125 -0.859375 0.515625q-0.515625 0.1875 -1.203125 0.1875zm12.68605 -2.515625q0 -0.34375 -0.109375 -0.59375q-0.09375 -0.25 -0.34375 -0.453125q-0.25 -0.21875 -0.703125 -0.40625q-0.4375 -0.1875 -1.109375 -0.390625q-0.6875 -0.203125 -1.265625 -0.453125q-0.5625 -0.265625 -0.96875 -0.59375q-0.40625 -0.328125 -0.625 -0.75q-0.203125 -0.4375 -0.203125 -1.0q0 -0.546875 0.21875 -1.015625q0.234375 -0.46875 0.65625 -0.8125q0.4375 -0.359375 1.015625 -0.546875q0.59375 -0.203125 1.328125 -0.203125q1.0625 0 1.8125 0.40625q0.75 0.40625 1.1406097 1.0625q0.390625 0.65625 0.390625 1.40625l-1.2499847 0q0 -0.546875 -0.234375 -0.953125q-0.21875 -0.421875 -0.6875 -0.65625q-0.46875 -0.234375 -1.171875 -0.234375q-0.671875 0 -1.109375 0.203125q-0.4375 0.203125 -0.65625 0.546875q-0.203125 0.34375 -0.203125 0.78125q0 0.3125 0.125 0.5625q0.140625 0.234375 0.40625 0.4375q0.265625 0.203125 0.6875 0.390625q0.421875 0.171875 1.0 0.328125q0.8125 0.234375 1.390625 0.515625q0.59375 0.28125 0.96875 0.625q0.39060974 0.34375 0.56248474 0.78125q0.1875 0.4375 0.1875 1.0q0 0.578125 -0.234375 1.046875q-0.234375 0.46875 -0.67185974 0.796875q-0.421875 0.328125 -1.03125 0.515625q-0.609375 0.171875 -1.359375 0.171875q-0.65625 0 -1.296875 -0.171875q-0.625 -0.1875 -1.15625 -0.546875q-0.515625 -0.375 -0.828125 -0.90625q-0.296875 -0.53125 -0.296875 -1.25l1.25 0q0 0.484375 0.1875 0.84375q0.1875 0.34375 0.515625 0.578125q0.328125 0.21875 0.75 0.328125q0.421875 0.109375 0.875 0.109375q0.65625 0 1.109375 -0.171875q0.453125 -0.1875 0.6875 -0.53125q0.25 -0.34375 0.25 -0.796875zm3.882309 -7.609375l0 10.0l-1.203125 0l0 -10.0l1.203125 0zm-0.296875 6.21875l-0.5 -0.03125q0.015625 -0.71875 0.21875 -1.328125q0.203125 -0.625 0.578125 -1.078125q0.390625 -0.453125 0.90625 -0.703125q0.53125 -0.25 1.171875 -0.25q0.515625 0 0.921875 0.140625q0.421875 0.140625 0.71875 0.453125q0.296875 0.296875 0.453125 0.78125q0.15625 0.484375 0.15625 1.1875l0 4.609375l-1.203125 0l0 -4.625q0 -0.5625 -0.171875 -0.890625q-0.15625 -0.328125 -0.46875 -0.484375q-0.3125 -0.15625 -0.765625 -0.15625q-0.453125 0 -0.828125 0.1875q-0.359375 0.1875 -0.625 0.53125q-0.265625 0.328125 -0.421875 0.75q-0.140625 0.421875 -0.140625 0.90625zm9.356506 3.90625q-0.734375 0 -1.34375 -0.25q-0.59375 -0.25 -1.015625 -0.703125q-0.421875 -0.453125 -0.65625 -1.078125q-0.21875 -0.625 -0.21875 -1.375l0 -0.265625q0 -0.859375 0.25 -1.53125q0.25 -0.671875 0.6875 -1.140625q0.4375 -0.46875 0.984375 -0.703125q0.5625 -0.25 1.15625 -0.25q0.75 0 1.296875 0.265625q0.546875 0.25 0.890625 0.71875q0.359375 0.46875 0.53125 1.09375q0.171875 0.625 0.171875 1.375l0 0.53125l-5.25 0l0 -0.984375l4.046875 0l0 -0.078125q-0.03125 -0.46875 -0.203125 -0.90625q-0.15625 -0.453125 -0.515625 -0.734375q-0.359375 -0.296875 -0.96875 -0.296875q-0.40625 0 -0.765625 0.171875q-0.34375 0.171875 -0.59375 0.515625q-0.234375 0.34375 -0.375 0.828125q-0.140625 0.484375 -0.140625 1.125l0 0.265625q0 0.515625 0.140625 0.953125q0.140625 0.4375 0.40625 0.765625q0.28125 0.328125 0.65625 0.515625q0.390625 0.1875 0.890625 0.1875q0.640625 0 1.078125 -0.25q0.4375 -0.265625 0.78125 -0.703125l0.71875 0.578125q-0.21875 0.34375 -0.578125 0.65625q-0.34375 0.3125 -0.859375 0.515625q-0.515625 0.1875 -1.203125 0.1875zm7.067566 0q-0.734375 0 -1.34375 -0.25q-0.59375 -0.25 -1.015625 -0.703125q-0.421875 -0.453125 -0.65625 -1.078125q-0.21875 -0.625 -0.21875 -1.375l0 -0.265625q0 -0.859375 0.25 -1.53125q0.25 -0.671875 0.6875 -1.140625q0.4375 -0.46875 0.984375 -0.703125q0.5625 -0.25 1.15625 -0.25q0.75 0 1.296875 0.265625q0.546875 0.25 0.890625 0.71875q0.359375 0.46875 0.53125 1.09375q0.171875 0.625 0.171875 1.375l0 0.53125l-5.25 0l0 -0.984375l4.046875 0l0 -0.078125q-0.03125 -0.46875 -0.203125 -0.90625q-0.15625 -0.453125 -0.515625 -0.734375q-0.359375 -0.296875 -0.96875 -0.296875q-0.40625 0 -0.765625 0.171875q-0.34375 0.171875 -0.59375 0.515625q-0.234375 0.34375 -0.375 0.828125q-0.140625 0.484375 -0.140625 1.125l0 0.265625q0 0.515625 0.140625 0.953125q0.140625 0.4375 0.40625 0.765625q0.28125 0.328125 0.65625 0.515625q0.390625 0.1875 0.890625 0.1875q0.640625 0 1.078125 -0.25q0.4375 -0.265625 0.78125 -0.703125l0.71875 0.578125q-0.21875 0.34375 -0.578125 0.65625q-0.34375 0.3125 -0.859375 0.515625q-0.515625 0.1875 -1.203125 0.1875zm7.0831604 -7.171875l0 0.921875l-3.796875 0l0 -0.921875l3.796875 0zm-2.515625 -1.703125l1.203125 0l0 7.0q0 0.359375 0.109375 0.546875q0.109375 0.1875 0.28125 0.25q0.1875 0.046875 0.390625 0.046875q0.140625 0 0.3125 -0.03125q0.171875 -0.03125 0.25 -0.046875l0 0.984375q-0.140625 0.046875 -0.375 0.078125q-0.21875 0.046875 -0.546875 0.046875q-0.4375 0 -0.8125 -0.171875q-0.375 -0.171875 -0.59375 -0.578125q-0.21875 -0.421875 -0.21875 -1.125l0 -7.0zm8.032166 6.875q0 -0.25 -0.109375 -0.46875q-0.109375 -0.234375 -0.46875 -0.421875q-0.34375 -0.1875 -1.046875 -0.3125q-0.578125 -0.125 -1.046875 -0.296875q-0.46875 -0.171875 -0.8125 -0.40625q-0.328125 -0.25 -0.5 -0.5625q-0.171875 -0.328125 -0.171875 -0.765625q0 -0.421875 0.1875 -0.796875q0.1875 -0.375 0.515625 -0.65625q0.34375 -0.28125 0.828125 -0.4375q0.484375 -0.171875 1.078125 -0.171875q0.84375 0 1.4375 0.296875q0.609375 0.296875 0.921875 0.796875q0.328125 0.5 0.328125 1.109375l-1.203125 0q0 -0.296875 -0.1875 -0.5625q-0.171875 -0.28125 -0.5 -0.46875q-0.328125 -0.1875 -0.796875 -0.1875q-0.5 0 -0.8125 0.15625q-0.3125 0.15625 -0.453125 0.390625q-0.140625 0.234375 -0.140625 0.5q0 0.1875 0.0625 0.34375q0.078125 0.15625 0.25 0.28125q0.1875 0.125 0.5 0.234375q0.328125 0.109375 0.8125 0.21875q0.875 0.203125 1.421875 0.484375q0.5625 0.265625 0.828125 0.65625q0.28125 0.390625 0.28125 0.96875q0 0.453125 -0.1875 0.84375q-0.1875 0.375 -0.5625 0.65625q-0.359375 0.28125 -0.859375 0.4375q-0.484375 0.140625 -1.109375 0.140625q-0.921875 0 -1.578125 -0.328125q-0.640625 -0.328125 -0.96875 -0.859375q-0.328125 -0.53125 -0.328125 -1.109375l1.203125 0q0.03125 0.5 0.28125 0.796875q0.265625 0.28125 0.640625 0.40625q0.375 0.109375 0.75 0.109375q0.5 0 0.828125 -0.125q0.34375 -0.140625 0.515625 -0.359375q0.171875 -0.234375 0.171875 -0.53125zm7.5285645 -7.59375l0 9.46875l-1.265625 0l0 -9.46875l1.265625 0zm3.96875 4.25l0 1.03125l-4.25 0l0 -1.03125l4.25 0zm0.640625 -4.25l0 1.015625l-4.890625 0l0 -1.015625l4.890625 0zm2.6169128 2.421875l0 7.046875l-1.203125 0l0 -7.046875l1.203125 0zm-1.296875 -1.859375q0 -0.296875 0.171875 -0.5q0.1875 -0.203125 0.546875 -0.203125q0.34375 0 0.515625 0.203125q0.1875 0.203125 0.1875 0.5q0 0.28125 -0.1875 0.484375q-0.171875 0.1875 -0.515625 0.1875q-0.359375 0 -0.546875 -0.1875q-0.171875 -0.203125 -0.171875 -0.484375zm4.5378113 -1.09375l0 10.0l-1.203125 0l0 -10.0l1.203125 0zm4.865906 10.125q-0.734375 0 -1.34375 -0.25q-0.59375 -0.25 -1.015625 -0.703125q-0.421875 -0.453125 -0.65625 -1.078125q-0.21875 -0.625 -0.21875 -1.375l0 -0.265625q0 -0.859375 0.25 -1.53125q0.25 -0.671875 0.6875 -1.140625q0.4375 -0.46875 0.984375 -0.703125q0.5625 -0.25 1.15625 -0.25q0.75 0 1.296875 0.265625q0.546875 0.25 0.890625 0.71875q0.359375 0.46875 0.53125 1.09375q0.171875 0.625 0.171875 1.375l0 0.53125l-5.25 0l0 -0.984375l4.046875 0l0 -0.078125q-0.03125 -0.46875 -0.203125 -0.90625q-0.15625 -0.453125 -0.515625 -0.734375q-0.359375 -0.296875 -0.96875 -0.296875q-0.40625 0 -0.765625 0.171875q-0.34375 0.171875 -0.59375 0.515625q-0.234375 0.34375 -0.375 0.828125q-0.140625 0.484375 -0.140625 1.125l0 0.265625q0 0.515625 0.140625 0.953125q0.140625 0.4375 0.40625 0.765625q0.28125 0.328125 0.65625 0.515625q0.390625 0.1875 0.890625 0.1875q0.640625 0 1.078125 -0.25q0.4375 -0.265625 0.78125 -0.703125l0.71875 0.578125q-0.21875 0.34375 -0.578125 0.65625q-0.34375 0.3125 -0.859375 0.515625q-0.515625 0.1875 -1.203125 0.1875zm8.239441 -2.0q0 -0.25 -0.109375 -0.46875q-0.109375 -0.234375 -0.46875 -0.421875q-0.34375 -0.1875 -1.046875 -0.3125q-0.578125 -0.125 -1.046875 -0.296875q-0.46875 -0.171875 -0.8125 -0.40625q-0.328125 -0.25 -0.5 -0.5625q-0.171875 -0.328125 -0.171875 -0.765625q0 -0.421875 0.1875 -0.796875q0.1875 -0.375 0.515625 -0.65625q0.34375 -0.28125 0.828125 -0.4375q0.484375 -0.171875 1.078125 -0.171875q0.84375 0 1.4375 0.296875q0.609375 0.296875 0.921875 0.796875q0.328125 0.5 0.328125 1.109375l-1.203125 0q0 -0.296875 -0.1875 -0.5625q-0.171875 -0.28125 -0.5 -0.46875q-0.328125 -0.1875 -0.796875 -0.1875q-0.5 0 -0.8125 0.15625q-0.3125 0.15625 -0.453125 0.390625q-0.140625 0.234375 -0.140625 0.5q0 0.1875 0.0625 0.34375q0.078125 0.15625 0.25 0.28125q0.1875 0.125 0.5 0.234375q0.328125 0.109375 0.8125 0.21875q0.875 0.203125 1.421875 0.484375q0.5625 0.265625 0.828125 0.65625q0.28125 0.390625 0.28125 0.96875q0 0.453125 -0.1875 0.84375q-0.1875 0.375 -0.5625 0.65625q-0.359375 0.28125 -0.859375 0.4375q-0.484375 0.140625 -1.109375 0.140625q-0.921875 0 -1.578125 -0.328125q-0.640625 -0.328125 -0.96875 -0.859375q-0.328125 -0.53125 -0.328125 -1.109375l1.203125 0q0.03125 0.5 0.28125 0.796875q0.265625 0.28125 0.640625 0.40625q0.375 0.109375 0.75 0.109375q0.5 0 0.828125 -0.125q0.34375 -0.140625 0.515625 -0.359375q0.171875 -0.234375 0.171875 -0.53125zm11.325439 -0.515625q0 -0.34375 -0.109375 -0.59375q-0.09375 -0.25 -0.34375 -0.453125q-0.25 -0.21875 -0.703125 -0.40625q-0.4375 -0.1875 -1.109375 -0.390625q-0.6875 -0.203125 -1.265625 -0.453125q-0.5625 -0.265625 -0.96875 -0.59375q-0.40625 -0.328125 -0.625 -0.75q-0.203125 -0.4375 -0.203125 -1.0q0 -0.546875 0.21875 -1.015625q0.234375 -0.46875 0.65625 -0.8125q0.4375 -0.359375 1.015625 -0.546875q0.59375 -0.203125 1.328125 -0.203125q1.0625 0 1.8125 0.40625q0.75 0.40625 1.140625 1.0625q0.390625 0.65625 0.390625 1.40625l-1.25 0q0 -0.546875 -0.234375 -0.953125q-0.21875 -0.421875 -0.6875 -0.65625q-0.46875 -0.234375 -1.171875 -0.234375q-0.671875 0 -1.109375 0.203125q-0.4375 0.203125 -0.65625 0.546875q-0.203125 0.34375 -0.203125 0.78125q0 0.3125 0.125 0.5625q0.140625 0.234375 0.40625 0.4375q0.265625 0.203125 0.6875 0.390625q0.421875 0.171875 1.0 0.328125q0.8125 0.234375 1.390625 0.515625q0.59375 0.28125 0.96875 0.625q0.390625 0.34375 0.5625 0.78125q0.1875 0.4375 0.1875 1.0q0 0.578125 -0.234375 1.046875q-0.234375 0.46875 -0.671875 0.796875q-0.421875 0.328125 -1.03125 0.515625q-0.609375 0.171875 -1.359375 0.171875q-0.65625 0 -1.296875 -0.171875q-0.625 -0.1875 -1.15625 -0.546875q-0.515625 -0.375 -0.828125 -0.90625q-0.296875 -0.53125 -0.296875 -1.25l1.25 0q0 0.484375 0.1875 0.84375q0.1875 0.34375 0.515625 0.578125q0.328125 0.21875 0.75 0.328125q0.421875 0.109375 0.875 0.109375q0.65625 0 1.109375 -0.171875q0.453125 -0.1875 0.6875 -0.53125q0.25 -0.34375 0.25 -0.796875zm5.616699 -4.65625l0 0.921875l-3.796875 0l0 -0.921875l3.796875 0zm-2.515625 -1.703125l1.203125 0l0 7.0q0 0.359375 0.109375 0.546875q0.109375 0.1875 0.28125 0.25q0.1875 0.046875 0.390625 0.046875q0.140625 0 0.3125 -0.03125q0.171875 -0.03125 0.25 -0.046875l0 0.984375q-0.140625 0.046875 -0.375 0.078125q-0.21875 0.046875 -0.546875 0.046875q-0.4375 0 -0.8125 -0.171875q-0.375 -0.171875 -0.59375 -0.578125q-0.21875 -0.421875 -0.21875 -1.125l0 -7.0zm5.1415405 2.8125l0 5.9375l-1.203125 0l0 -7.046875l1.171875 0l0.03125 1.109375zm2.203125 -1.140625l-0.015625 1.109375q-0.140625 -0.03125 -0.28125 -0.03125q-0.140625 -0.015625 -0.296875 -0.015625q-0.421875 0 -0.75 0.140625q-0.3125 0.125 -0.53125 0.359375q-0.21875 0.234375 -0.34375 0.5625q-0.125 0.3125 -0.171875 0.703125l-0.34375 0.1875q0 -0.640625 0.125 -1.1875q0.140625 -0.5625 0.40625 -1.0q0.265625 -0.4375 0.671875 -0.671875q0.421875 -0.25 0.984375 -0.25q0.140625 0 0.296875 0.03125q0.171875 0.03125 0.25 0.0625zm5.407074 5.453125l0 -5.421875l1.21875 0l0 7.046875l-1.15625 0l-0.0625 -1.625zm0.234375 -1.484375l0.5 -0.015625q0 0.703125 -0.15625 1.296875q-0.140625 0.59375 -0.46875 1.03125q-0.3125 0.4375 -0.84375 0.6875q-0.53125 0.234375 -1.28125 0.234375q-0.515625 0 -0.953125 -0.140625q-0.421875 -0.15625 -0.734375 -0.46875q-0.296875 -0.3125 -0.46875 -0.8125q-0.15625 -0.5 -0.15625 -1.203125l0 -4.546875l1.203125 0l0 4.5625q0 0.46875 0.109375 0.78125q0.109375 0.3125 0.296875 0.5q0.1875 0.171875 0.40625 0.25q0.234375 0.0625 0.484375 0.0625q0.765625 0 1.21875 -0.296875q0.453125 -0.296875 0.640625 -0.796875q0.203125 -0.515625 0.203125 -1.125zm5.628662 2.25q0.4375 0 0.796875 -0.171875q0.359375 -0.171875 0.59375 -0.484375q0.234375 -0.3125 0.265625 -0.703125l1.15625 0q-0.03125 0.625 -0.421875 1.15625q-0.390625 0.53125 -1.015625 0.859375q-0.625 0.328125 -1.375 0.328125q-0.796875 0 -1.390625 -0.265625q-0.578125 -0.28125 -0.96875 -0.765625q-0.390625 -0.5 -0.578125 -1.125q-0.1875 -0.640625 -0.1875 -1.359375l0 -0.265625q0 -0.703125 0.1875 -1.34375q0.1875 -0.640625 0.578125 -1.125q0.390625 -0.484375 0.96875 -0.765625q0.59375 -0.28125 1.390625 -0.28125q0.828125 0 1.4375 0.34375q0.625 0.328125 0.984375 0.90625q0.359375 0.578125 0.390625 1.296875l-1.15625 0q-0.03125 -0.4375 -0.25 -0.78125q-0.203125 -0.359375 -0.5625 -0.5625q-0.359375 -0.21875 -0.84375 -0.21875q-0.546875 0 -0.921875 0.21875q-0.375 0.21875 -0.59375 0.59375q-0.21875 0.359375 -0.3125 0.8125q-0.09375 0.4375 -0.09375 0.90625l0 0.265625q0 0.46875 0.078125 0.921875q0.09375 0.4375 0.3125 0.8125q0.21875 0.359375 0.59375 0.578125q0.375 0.21875 0.9375 0.21875zm7.1014404 -6.1875l0 0.921875l-3.796875 0l0 -0.921875l3.796875 0zm-2.515625 -1.703125l1.203125 0l0 7.0q0 0.359375 0.109375 0.546875q0.109375 0.1875 0.28125 0.25q0.1875 0.046875 0.390625 0.046875q0.140625 0 0.3125 -0.03125q0.171875 -0.03125 0.25 -0.046875l0 0.984375q-0.140625 0.046875 -0.375 0.078125q-0.21875 0.046875 -0.546875 0.046875q-0.4375 0 -0.8125 -0.171875q-0.375 -0.171875 -0.59375 -0.578125q-0.21875 -0.421875 -0.21875 -1.125l0 -7.0zm8.23526 7.125l0 -5.421875l1.21875 0l0 7.046875l-1.15625 0l-0.0625 -1.625zm0.234375 -1.484375l0.5 -0.015625q0 0.703125 -0.15625 1.296875q-0.140625 0.59375 -0.46875 1.03125q-0.3125 0.4375 -0.84375 0.6875q-0.53125 0.234375 -1.28125 0.234375q-0.515625 0 -0.953125 -0.140625q-0.421875 -0.15625 -0.734375 -0.46875q-0.296875 -0.3125 -0.46875 -0.8125q-0.15625 -0.5 -0.15625 -1.203125l0 -4.546875l1.203125 0l0 4.5625q0 0.46875 0.109375 0.78125q0.109375 0.3125 0.296875 0.5q0.1875 0.171875 0.40625 0.25q0.234375 0.0625 0.484375 0.0625q0.765625 0 1.21875 -0.296875q0.453125 -0.296875 0.640625 -0.796875q0.203125 -0.515625 0.203125 -1.125zm4.019287 -2.828125l0 5.9375l-1.203125 0l0 -7.046875l1.171875 0l0.03125 1.109375zm2.203125 -1.140625l-0.015625 1.109375q-0.140625 -0.03125 -0.28125 -0.03125q-0.140625 -0.015625 -0.296875 -0.015625q-0.421875 0 -0.75 0.140625q-0.3125 0.125 -0.53125 0.359375q-0.21875 0.234375 -0.34375 0.5625q-0.125 0.3125 -0.171875 0.703125l-0.34375 0.1875q0 -0.640625 0.125 -1.1875q0.140625 -0.5625 0.40625 -1.0q0.265625 -0.4375 0.671875 -0.671875q0.421875 -0.25 0.984375 -0.25q0.140625 0 0.296875 0.03125q0.171875 0.03125 0.25 0.0625zm3.9083862 7.203125q-0.734375 0 -1.34375 -0.25q-0.59375 -0.25 -1.015625 -0.703125q-0.421875 -0.453125 -0.65625 -1.078125q-0.21875 -0.625 -0.21875 -1.375l0 -0.265625q0 -0.859375 0.25 -1.53125q0.25 -0.671875 0.6875 -1.140625q0.4375 -0.46875 0.984375 -0.703125q0.5625 -0.25 1.15625 -0.25q0.75 0 1.296875 0.265625q0.546875 0.25 0.890625 0.71875q0.359375 0.46875 0.53125 1.09375q0.171875 0.625 0.171875 1.375l0 0.53125l-5.25 0l0 -0.984375l4.046875 0l0 -0.078125q-0.03125 -0.46875 -0.203125 -0.90625q-0.15625 -0.453125 -0.515625 -0.734375q-0.359375 -0.296875 -0.96875 -0.296875q-0.40625 0 -0.765625 0.171875q-0.34375 0.171875 -0.59375 0.515625q-0.234375 0.34375 -0.375 0.828125q-0.140625 0.484375 -0.140625 1.125l0 0.265625q0 0.515625 0.140625 0.953125q0.140625 0.4375 0.40625 0.765625q0.28125 0.328125 0.65625 0.515625q0.390625 0.1875 0.890625 0.1875q0.640625 0 1.078125 -0.25q0.4375 -0.265625 0.78125 -0.703125l0.71875 0.578125q-0.21875 0.34375 -0.578125 0.65625q-0.34375 0.3125 -0.859375 0.515625q-0.515625 0.1875 -1.203125 0.1875zm14.92041 -5.15625l0 0.59375q0 1.0625 -0.265625 1.921875q-0.265625 0.84375 -0.765625 1.4375q-0.5 0.578125 -1.203125 0.890625q-0.703125 0.3125 -1.5625 0.3125q-0.84375 0 -1.546875 -0.3125q-0.6875 -0.3125 -1.203125 -0.890625q-0.515625 -0.59375 -0.796875 -1.4375q-0.265625 -0.859375 -0.265625 -1.921875l0 -0.59375q0 -1.078125 0.265625 -1.921875q0.28125 -0.84375 0.78125 -1.4375q0.515625 -0.59375 1.203125 -0.90625q0.703125 -0.3125 1.546875 -0.3125q0.875 0 1.5625 0.3125q0.703125 0.3125 1.203125 0.90625q0.515625 0.59375 0.78125 1.4375q0.265625 0.84375 0.265625 1.921875zm-1.234375 0.59375l0 -0.609375q0 -0.84375 -0.171875 -1.5q-0.171875 -0.65625 -0.515625 -1.09375q-0.328125 -0.4375 -0.8125 -0.65625q-0.46875 -0.234375 -1.078125 -0.234375q-0.578125 0 -1.0625 0.234375q-0.46875 0.21875 -0.8125 0.65625q-0.328125 0.4375 -0.515625 1.09375q-0.171875 0.65625 -0.171875 1.5l0 0.609375q0 0.859375 0.171875 1.515625q0.1875 0.640625 0.53125 1.09375q0.34375 0.4375 0.8125 0.671875q0.484375 0.21875 1.0625 0.21875q0.609375 0 1.078125 -0.21875q0.484375 -0.234375 0.8125 -0.671875q0.328125 -0.453125 0.5 -1.09375q0.171875 -0.65625 0.171875 -1.515625zm5.075836 3.34375l1.921875 -5.953125l1.234375 0l-2.53125 7.046875l-0.8125 0l0.1875 -1.09375zm-1.609375 -5.953125l1.984375 6.0l0.140625 1.046875l-0.8125 0l-2.546875 -7.046875l1.234375 0zm8.76181 7.171875q-0.734375 0 -1.34375 -0.25q-0.59375 -0.25 -1.015625 -0.703125q-0.421875 -0.453125 -0.65625 -1.078125q-0.21875 -0.625 -0.21875 -1.375l0 -0.265625q0 -0.859375 0.25 -1.53125q0.25 -0.671875 0.6875 -1.140625q0.4375 -0.46875 0.984375 -0.703125q0.5625 -0.25 1.15625 -0.25q0.75 0 1.296875 0.265625q0.546875 0.25 0.890625 0.71875q0.359375 0.46875 0.53125 1.09375q0.171875 0.625 0.171875 1.375l0 0.53125l-5.25 0l0 -0.984375l4.046875 0l0 -0.078125q-0.03125 -0.46875 -0.203125 -0.90625q-0.15625 -0.453125 -0.515625 -0.734375q-0.359375 -0.296875 -0.96875 -0.296875q-0.40625 0 -0.765625 0.171875q-0.34375 0.171875 -0.59375 0.515625q-0.234375 0.34375 -0.375 0.828125q-0.140625 0.484375 -0.140625 1.125l0 0.265625q0 0.515625 0.140625 0.953125q0.140625 0.4375 0.40625 0.765625q0.28125 0.328125 0.65625 0.515625q0.390625 0.1875 0.890625 0.1875q0.640625 0 1.078125 -0.25q0.4375 -0.265625 0.78125 -0.703125l0.71875 0.578125q-0.21875 0.34375 -0.578125 0.65625q-0.34375 0.3125 -0.859375 0.515625q-0.515625 0.1875 -1.203125 0.1875zm5.3487854 -6.0625l0 5.9375l-1.203125 0l0 -7.046875l1.171875 0l0.03125 1.109375zm2.203125 -1.140625l-0.015625 1.109375q-0.140625 -0.03125 -0.28125 -0.03125q-0.140625 -0.015625 -0.296875 -0.015625q-0.421875 0 -0.75 0.140625q-0.3125 0.125 -0.53125 0.359375q-0.21875 0.234375 -0.34375 0.5625q-0.125 0.3125 -0.171875 0.703125l-0.34375 0.1875q0 -0.640625 0.125 -1.1875q0.140625 -0.5625 0.40625 -1.0q0.265625 -0.4375 0.671875 -0.671875q0.421875 -0.25 0.984375 -0.25q0.140625 0 0.296875 0.03125q0.171875 0.03125 0.25 0.0625zm3.368042 5.984375l1.921875 -5.953125l1.234375 0l-2.53125 7.046875l-0.8125 0l0.1875 -1.09375zm-1.609375 -5.953125l1.984375 6.0l0.140625 1.046875l-0.8125 0l-2.546875 -7.046875l1.234375 0zm7.2214355 0l0 7.046875l-1.203125 0l0 -7.046875l1.203125 0zm-1.296875 -1.859375q0 -0.296875 0.171875 -0.5q0.1875 -0.203125 0.546875 -0.203125q0.34375 0 0.515625 0.203125q0.1875 0.203125 0.1875 0.5q0 0.28125 -0.1875 0.484375q-0.171875 0.1875 -0.515625 0.1875q-0.359375 0 -0.546875 -0.1875q-0.171875 -0.203125 -0.171875 -0.484375zm6.162781 9.03125q-0.734375 0 -1.34375 -0.25q-0.59375 -0.25 -1.015625 -0.703125q-0.421875 -0.453125 -0.65625 -1.078125q-0.21875 -0.625 -0.21875 -1.375l0 -0.265625q0 -0.859375 0.25 -1.53125q0.25 -0.671875 0.6875 -1.140625q0.4375 -0.46875 0.984375 -0.703125q0.5625 -0.25 1.15625 -0.25q0.75 0 1.296875 0.265625q0.546875 0.25 0.890625 0.71875q0.359375 0.46875 0.53125 1.09375q0.171875 0.625 0.171875 1.375l0 0.53125l-5.25 0l0 -0.984375l4.046875 0l0 -0.078125q-0.03125 -0.46875 -0.203125 -0.90625q-0.15625 -0.453125 -0.515625 -0.734375q-0.359375 -0.296875 -0.96875 -0.296875q-0.40625 0 -0.765625 0.171875q-0.34375 0.171875 -0.59375 0.515625q-0.234375 0.34375 -0.375 0.828125q-0.140625 0.484375 -0.140625 1.125l0 0.265625q0 0.515625 0.140625 0.953125q0.140625 0.4375 0.40625 0.765625q0.28125 0.328125 0.65625 0.515625q0.390625 0.1875 0.890625 0.1875q0.640625 0 1.078125 -0.25q0.4375 -0.265625 0.78125 -0.703125l0.71875 0.578125q-0.21875 0.34375 -0.578125 0.65625q-0.34375 0.3125 -0.859375 0.515625q-0.515625 0.1875 -1.203125 0.1875zm5.926941 -1.375l1.8125 -5.796875l0.78125 0l-0.15625 1.15625l-1.828125 5.890625l-0.78125 0l0.171875 -1.25zm-1.21875 -5.796875l1.546875 5.859375l0.109375 1.1875l-0.8125 0l-2.046875 -7.046875l1.203125 0zm5.546875 5.8125l1.46875 -5.8125l1.203125 0l-2.046875 7.046875l-0.796875 0l0.171875 -1.234375zm-1.546875 -5.8125l1.765625 5.703125l0.203125 1.34375l-0.765625 0l-1.890625 -5.90625l-0.15625 -1.140625l0.84375 0z" fill-rule="nonzero"/><path fill="#4a9fea" d="m232.21391 226.41576l0 0c0 -2.965866 2.4043274 -5.3701935 5.3701935 -5.3701935l135.99979 0c1.4242554 0 2.7901917 0.5657959 3.7973022 1.5728912c1.0071106 1.0071106 1.572876 2.3730316 1.572876 3.7973022l0 21.480103c0 2.965866 -2.4042969 5.370178 -5.370178 5.370178l-135.99979 0c-2.965866 0 -5.3701935 -2.4043121 -5.3701935 -5.370178z" fill-rule="evenodd"/><path stroke="#4a9fea" stroke-width="2.0" stroke-linejoin="round" stroke-linecap="butt" d="m232.21391 226.41576l0 0c0 -2.965866 2.4043274 -5.3701935 5.3701935 -5.3701935l135.99979 0c1.4242554 0 2.7901917 0.5657959 3.7973022 1.5728912c1.0071106 1.0071106 1.572876 2.3730316 1.572876 3.7973022l0 21.480103c0 2.965866 -2.4042969 5.370178 -5.370178 5.370178l-135.99979 0c-2.965866 0 -5.3701935 -2.4043121 -5.3701935 -5.370178z" fill-rule="evenodd"/><path fill="#ffffff" d="m271.3587 239.48706q0 0.25 -0.109375 0.46875q-0.09375 0.203125 -0.28125 0.359375q-0.203125 0.140625 -0.484375 0.234375q-0.28125 0.078125 -0.640625 0.078125q-0.421875 0 -0.765625 -0.09375q-0.328125 -0.09375 -0.578125 -0.28125q-0.25 -0.203125 -0.390625 -0.5q-0.125 -0.3125 -0.140625 -0.734375l-1.796875 0q0 0.734375 0.28125 1.28125q0.28125 0.546875 0.78125 0.953125q0.5 0.40625 1.1875 0.625q0.703125 0.203125 1.421875 0.203125q0.71875 0 1.328125 -0.171875q0.609375 -0.171875 1.046875 -0.515625q0.453125 -0.328125 0.703125 -0.8125q0.25 -0.484375 0.25 -1.109375q0 -0.71875 -0.34375 -1.265625q-0.328125 -0.5625 -0.875 -0.984375q-0.375 -0.25 -0.828125 -0.4375q-0.4375 -0.203125 -0.921875 -0.34375q-0.453125 -0.125 -0.828125 -0.265625q-0.359375 -0.140625 -0.609375 -0.3125q-0.25 -0.171875 -0.390625 -0.390625q-0.125 -0.21875 -0.125 -0.484375q0 -0.25 0.09375 -0.46875q0.109375 -0.21875 0.296875 -0.375q0.203125 -0.15625 0.484375 -0.234375q0.28125 -0.09375 0.640625 -0.09375q0.40625 0 0.703125 0.109375q0.296875 0.09375 0.5 0.28125q0.1875 0.203125 0.28125 0.46875q0.109375 0.265625 0.125 0.578125l1.78125 0q0 -0.625 -0.25 -1.15625q-0.25 -0.546875 -0.6875 -0.9375q-0.4375 -0.375 -1.0625 -0.59375q-0.609375 -0.21875 -1.359375 -0.21875q-0.703125 0 -1.328125 0.1875q-0.609375 0.1875 -1.046875 0.53125q-0.453125 0.34375 -0.71875 0.84375q-0.25 0.484375 -0.25 1.078125q0 0.515625 0.1875 0.96875q0.203125 0.4375 0.578125 0.796875q0.375 0.375 0.96875 0.6875q0.609375 0.296875 1.390625 0.5q0.5 0.140625 0.84375 0.3125q0.34375 0.15625 0.5625 0.34375q0.203125 0.1875 0.28125 0.40625q0.09375 0.21875 0.09375 0.484375zm6.466919 -6.296875l-1.8125 0l0 1.71875l-1.609375 0l0 1.34375l1.609375 0l0 3.203125q0 0.6875 0.1875 1.1875q0.1875 0.5 0.515625 0.8125q0.34375 0.328125 0.8125 0.484375q0.46875 0.15625 1.046875 0.15625q0.296875 0 0.609375 -0.03125q0.3125 -0.03125 0.59375 -0.078125q0.28125 -0.0625 0.53125 -0.140625q0.265625 -0.078125 0.453125 -0.1875l-0.171875 -1.25q-0.125 0.03125 -0.296875 0.078125q-0.171875 0.03125 -0.375 0.046875q-0.203125 0.03125 -0.421875 0.0625q-0.21875 0.015625 -0.421875 0.015625q-0.28125 0 -0.515625 -0.0625q-0.234375 -0.078125 -0.390625 -0.234375q-0.171875 -0.140625 -0.265625 -0.390625q-0.078125 -0.265625 -0.078125 -0.65625l0 -3.015625l2.625 0l0 -1.34375l-2.625 0l0 -1.71875zm4.4356995 5.1875l0 0.125q0 0.78125 0.21875 1.4375q0.21875 0.65625 0.65625 1.125q0.421875 0.484375 1.03125 0.765625q0.625 0.265625 1.421875 0.265625q0.796875 0 1.40625 -0.265625q0.625 -0.28125 1.046875 -0.765625q0.421875 -0.46875 0.640625 -1.125q0.21875 -0.65625 0.21875 -1.4375l0 -0.125q0 -0.78125 -0.21875 -1.421875q-0.21875 -0.65625 -0.640625 -1.140625q-0.4375 -0.484375 -1.0625 -0.75q-0.609375 -0.28125 -1.40625 -0.28125q-0.78125 0 -1.40625 0.28125q-0.609375 0.265625 -1.03125 0.75q-0.4375 0.484375 -0.65625 1.140625q-0.21875 0.640625 -0.21875 1.421875zm1.8125 0.125l0 -0.125q0 -0.4375 0.078125 -0.8125q0.09375 -0.390625 0.265625 -0.6875q0.1875 -0.296875 0.46875 -0.453125q0.28125 -0.171875 0.6875 -0.171875q0.421875 0 0.703125 0.171875q0.28125 0.15625 0.46875 0.453125q0.171875 0.296875 0.25 0.6875q0.09375 0.375 0.09375 0.8125l0 0.125q0 0.453125 -0.09375 0.84375q-0.078125 0.375 -0.25 0.65625q-0.1875 0.296875 -0.46875 0.46875q-0.28125 0.171875 -0.6875 0.171875q-0.40625 0 -0.703125 -0.171875q-0.28125 -0.171875 -0.46875 -0.46875q-0.171875 -0.28125 -0.265625 -0.65625q-0.078125 -0.390625 -0.078125 -0.84375zm11.482544 -3.71875q-0.703125 0 -1.3125 0.34375q-0.59375 0.34375 -1.015625 0.9375l-0.015625 -0.15625l-0.078125 -1.0l-1.671875 0l0 7.046875l1.796875 0l0 -4.234375q0.125 -0.296875 0.3125 -0.515625q0.1875 -0.21875 0.453125 -0.359375q0.234375 -0.125 0.515625 -0.1875q0.28125 -0.0625 0.625 -0.0625q0.34375 0 0.71875 0.046875q0.375 0.03125 0.734375 0.125l0.265625 -1.8125q-0.21875 -0.0625 -0.5625 -0.109375q-0.34375 -0.0625 -0.765625 -0.0625zm7.3419495 7.171875l1.84375 0l0 -0.109375q-0.140625 -0.265625 -0.21875 -0.640625q-0.0625 -0.375 -0.0625 -0.9375l0 -3.015625q0 -0.609375 -0.234375 -1.078125q-0.21875 -0.46875 -0.625 -0.765625q-0.40625 -0.3125 -0.953125 -0.46875q-0.546875 -0.15625 -1.1875 -0.15625q-0.71875 0 -1.265625 0.1875q-0.546875 0.171875 -0.921875 0.46875q-0.390625 0.3125 -0.59375 0.71875q-0.1875 0.40625 -0.1875 0.84375l1.8125 0q0 -0.1875 0.046875 -0.34375q0.0625 -0.15625 0.171875 -0.265625q0.140625 -0.125 0.34375 -0.1875q0.203125 -0.0625 0.5 -0.0625q0.3125 0 0.5625 0.078125q0.25 0.078125 0.40625 0.234375q0.15625 0.140625 0.234375 0.34375q0.078125 0.1875 0.078125 0.4375l0 0.421875l-1.015625 0q-0.765625 0 -1.375 0.140625q-0.609375 0.140625 -1.015625 0.40625q-0.453125 0.28125 -0.6875 0.734375q-0.21875 0.453125 -0.21875 1.046875q0 0.453125 0.171875 0.84375q0.1875 0.390625 0.515625 0.65625q0.328125 0.28125 0.78125 0.4375q0.453125 0.15625 0.984375 0.15625q0.34375 0 0.625 -0.0625q0.28125 -0.0625 0.53125 -0.171875q0.234375 -0.09375 0.421875 -0.234375q0.203125 -0.15625 0.34375 -0.3125q0.03125 0.1875 0.078125 0.359375q0.046875 0.171875 0.109375 0.296875zm-1.71875 -1.265625q-0.25 0 -0.453125 -0.0625q-0.1875 -0.0625 -0.3125 -0.171875q-0.140625 -0.109375 -0.203125 -0.265625q-0.0625 -0.15625 -0.0625 -0.34375q0 -0.25 0.078125 -0.453125q0.09375 -0.203125 0.28125 -0.359375q0.203125 -0.140625 0.5 -0.21875q0.296875 -0.078125 0.71875 -0.078125l0.921875 0l0 1.203125q-0.078125 0.140625 -0.21875 0.28125q-0.125 0.125 -0.328125 0.234375q-0.1875 0.09375 -0.421875 0.171875q-0.234375 0.0625 -0.5 0.0625zm5.138794 -2.3125l0 0.140625q0 0.765625 0.1875 1.421875q0.203125 0.65625 0.578125 1.125q0.375 0.484375 0.890625 0.75q0.53125 0.265625 1.1875 0.265625q0.328125 0 0.609375 -0.078125q0.296875 -0.0625 0.546875 -0.1875q0.15625 -0.09375 0.296875 -0.203125q0.15625 -0.125 0.28125 -0.265625l0 0.40625q0 0.359375 -0.109375 0.640625q-0.09375 0.28125 -0.28125 0.484375q-0.203125 0.203125 -0.515625 0.3125q-0.3125 0.125 -0.703125 0.125q-0.25 0 -0.484375 -0.0625q-0.234375 -0.046875 -0.453125 -0.140625q-0.21875 -0.09375 -0.421875 -0.25q-0.203125 -0.15625 -0.375 -0.359375l-0.8125 1.109375q0.234375 0.296875 0.546875 0.5q0.328125 0.21875 0.671875 0.34375q0.359375 0.140625 0.71875 0.203125q0.375 0.0625 0.6875 0.0625q0.75 0 1.359375 -0.203125q0.625 -0.1875 1.0625 -0.578125q0.4375 -0.375 0.671875 -0.9375q0.25 -0.5625 0.25 -1.28125l0 -6.8125l-1.640625 0l-0.078125 0.671875q-0.125 -0.15625 -0.28125 -0.28125q-0.15625 -0.140625 -0.34375 -0.234375q-0.234375 -0.140625 -0.53125 -0.203125q-0.296875 -0.078125 -0.65625 -0.078125q-0.671875 0 -1.203125 0.265625q-0.515625 0.25 -0.890625 0.734375q-0.375 0.46875 -0.578125 1.140625q-0.1875 0.65625 -0.1875 1.453125zm1.8125 0.140625l0 -0.140625q0 -0.4375 0.09375 -0.828125q0.09375 -0.390625 0.28125 -0.671875q0.1875 -0.296875 0.453125 -0.453125q0.28125 -0.171875 0.671875 -0.171875q0.203125 0 0.375 0.046875q0.1875 0.03125 0.34375 0.109375q0.171875 0.078125 0.3125 0.21875q0.140625 0.140625 0.234375 0.3125l0 2.984375q-0.09375 0.15625 -0.21875 0.296875q-0.125 0.125 -0.28125 0.21875q-0.15625 0.078125 -0.359375 0.125q-0.1875 0.046875 -0.421875 0.046875q-0.375 0 -0.65625 -0.15625q-0.28125 -0.171875 -0.46875 -0.453125q-0.171875 -0.28125 -0.265625 -0.65625q-0.09375 -0.390625 -0.09375 -0.828125zm9.779449 3.5625q1.03125 0 1.78125 -0.390625q0.75 -0.390625 1.09375 -0.890625l-0.90625 -0.96875q-0.3125 0.40625 -0.8125 0.609375q-0.5 0.1875 -1.046875 0.1875q-0.375 0 -0.703125 -0.109375q-0.3125 -0.125 -0.546875 -0.328125q-0.25 -0.21875 -0.390625 -0.46875q-0.140625 -0.265625 -0.234375 -0.6875l0 -0.015625l4.78125 0l0 -0.765625q0 -0.78125 -0.21875 -1.421875q-0.21875 -0.640625 -0.625 -1.09375q-0.421875 -0.453125 -1.015625 -0.703125q-0.59375 -0.25 -1.359375 -0.25q-0.734375 0 -1.359375 0.265625q-0.625 0.265625 -1.078125 0.75q-0.453125 0.484375 -0.703125 1.15625q-0.25 0.65625 -0.25 1.46875l0 0.25q0 0.71875 0.25 1.34375q0.265625 0.609375 0.734375 1.078125q0.46875 0.453125 1.125 0.71875q0.671875 0.265625 1.484375 0.265625zm-0.203125 -5.828125q0.34375 0 0.59375 0.109375q0.265625 0.09375 0.453125 0.28125q0.1875 0.1875 0.28125 0.453125q0.109375 0.25 0.109375 0.53125l0 0.140625l-2.96875 0q0.0625 -0.34375 0.1875 -0.625q0.140625 -0.28125 0.34375 -0.484375q0.1875 -0.203125 0.4375 -0.296875q0.25 -0.109375 0.5625 -0.109375zm9.326294 3.765625q0 0.171875 -0.078125 0.3125q-0.078125 0.125 -0.234375 0.234375q-0.171875 0.109375 -0.4375 0.171875q-0.265625 0.046875 -0.609375 0.046875q-0.296875 0 -0.578125 -0.046875q-0.28125 -0.0625 -0.484375 -0.1875q-0.21875 -0.125 -0.359375 -0.328125q-0.140625 -0.21875 -0.15625 -0.5l-1.71875 0q0 0.4375 0.203125 0.859375q0.21875 0.421875 0.625 0.75q0.40625 0.34375 1.015625 0.5625q0.609375 0.203125 1.40625 0.203125q0.71875 0 1.296875 -0.15625q0.59375 -0.171875 1.015625 -0.453125q0.40625 -0.28125 0.625 -0.671875q0.234375 -0.40625 0.234375 -0.875q0 -0.5 -0.234375 -0.859375q-0.21875 -0.375 -0.609375 -0.640625q-0.40625 -0.25 -0.953125 -0.40625q-0.546875 -0.171875 -1.171875 -0.28125q-0.453125 -0.0625 -0.734375 -0.140625q-0.28125 -0.09375 -0.453125 -0.203125q-0.171875 -0.109375 -0.234375 -0.234375q-0.0625 -0.140625 -0.0625 -0.296875q0 -0.15625 0.078125 -0.296875q0.078125 -0.140625 0.21875 -0.234375q0.15625 -0.125 0.390625 -0.1875q0.25 -0.0625 0.59375 -0.0625q0.390625 0 0.65625 0.09375q0.28125 0.09375 0.4375 0.265625q0.125 0.125 0.171875 0.28125q0.0625 0.140625 0.0625 0.3125l1.8125 0q0 -0.484375 -0.21875 -0.890625q-0.203125 -0.421875 -0.609375 -0.734375q-0.40625 -0.296875 -1.0 -0.46875q-0.578125 -0.171875 -1.3125 -0.171875q-0.703125 0 -1.265625 0.1875q-0.5625 0.171875 -0.953125 0.46875q-0.390625 0.296875 -0.609375 0.703125q-0.203125 0.390625 -0.203125 0.828125q0 0.4375 0.203125 0.78125q0.21875 0.34375 0.578125 0.609375q0.359375 0.265625 0.875 0.453125q0.515625 0.1875 1.125 0.3125q0.484375 0.09375 0.796875 0.1875q0.328125 0.078125 0.53125 0.1875q0.1875 0.109375 0.25 0.234375q0.078125 0.125 0.078125 0.28125zm5.6700745 2.75l3.546875 -10.28125l-1.6875 0l-3.546875 10.28125l1.6875 0zm8.420044 -6.609375l-1.796875 2.140625l1.15625 0.796875l1.375 -2.359375l1.375 2.421875l1.15625 -0.828125l-1.75 -2.109375l2.59375 -0.59375l-0.421875 -1.359375l-2.421875 1.0625l0.25 -2.84375l-1.421875 0l0.234375 2.796875l-2.4375 -1.078125l-0.4375 1.328125l2.546875 0.625z" fill-rule="nonzero"/></g></svg>